%TF.GenerationSoftware,KiCad,Pcbnew,8.0.7-1.fc41*%
%TF.CreationDate,2025-01-31T15:29:49-06:00*%
%TF.ProjectId,for_real_486,666f725f-7265-4616-9c5f-3438362e6b69,rev?*%
%TF.SameCoordinates,Original*%
%TF.FileFunction,Drillmap*%
%TF.FilePolarity,Positive*%
%FSLAX45Y45*%
G04 Gerber Fmt 4.5, Leading zero omitted, Abs format (unit mm)*
G04 Created by KiCad (PCBNEW 8.0.7-1.fc41) date 2025-01-31 15:29:49*
%MOMM*%
%LPD*%
G01*
G04 APERTURE LIST*
%ADD10C,0.050000*%
%ADD11C,0.200000*%
%ADD12C,0.150000*%
%ADD13C,0.100000*%
G04 APERTURE END LIST*
D10*
X20701000Y-5537200D02*
X20701000Y-24053800D01*
X2667000Y-26670000D02*
X2667000Y-7620000D01*
X2667000Y-7620000D02*
X2667000Y-5537200D01*
X20701000Y-24053800D02*
X20701000Y-26670000D01*
X20701000Y-26670000D02*
X2667000Y-26670000D01*
X2667000Y-5537200D02*
X20701000Y-5537200D01*
D11*
D12*
X6592500Y-7011600D02*
X6742500Y-7161600D01*
X6742500Y-7011600D02*
X6592500Y-7161600D01*
D13*
X6592500Y-6961600D02*
X6592500Y-7211600D01*
X6742500Y-7211600D02*
G75*
G02*
X6592500Y-7211600I-75000J0D01*
G01*
X6742500Y-7211600D02*
X6742500Y-6961600D01*
X6742500Y-6961600D02*
G75*
G03*
X6592500Y-6961600I-75000J0D01*
G01*
D12*
X10910500Y-7011600D02*
X11060500Y-7161600D01*
X11060500Y-7011600D02*
X10910500Y-7161600D01*
D13*
X10910500Y-6961600D02*
X10910500Y-7211600D01*
X11060500Y-7211600D02*
G75*
G02*
X10910500Y-7211600I-75000J0D01*
G01*
X11060500Y-7211600D02*
X11060500Y-6961600D01*
X11060500Y-6961600D02*
G75*
G03*
X10910500Y-6961600I-75000J0D01*
G01*
D11*
X2925277Y-26983984D02*
X2925277Y-26783984D01*
X2925277Y-26783984D02*
X2972896Y-26783984D01*
X2972896Y-26783984D02*
X3001467Y-26793508D01*
X3001467Y-26793508D02*
X3020515Y-26812555D01*
X3020515Y-26812555D02*
X3030039Y-26831603D01*
X3030039Y-26831603D02*
X3039562Y-26869698D01*
X3039562Y-26869698D02*
X3039562Y-26898269D01*
X3039562Y-26898269D02*
X3030039Y-26936365D01*
X3030039Y-26936365D02*
X3020515Y-26955412D01*
X3020515Y-26955412D02*
X3001467Y-26974460D01*
X3001467Y-26974460D02*
X2972896Y-26983984D01*
X2972896Y-26983984D02*
X2925277Y-26983984D01*
X3125277Y-26983984D02*
X3125277Y-26850650D01*
X3125277Y-26888746D02*
X3134801Y-26869698D01*
X3134801Y-26869698D02*
X3144324Y-26860174D01*
X3144324Y-26860174D02*
X3163372Y-26850650D01*
X3163372Y-26850650D02*
X3182420Y-26850650D01*
X3249086Y-26983984D02*
X3249086Y-26850650D01*
X3249086Y-26783984D02*
X3239562Y-26793508D01*
X3239562Y-26793508D02*
X3249086Y-26803031D01*
X3249086Y-26803031D02*
X3258610Y-26793508D01*
X3258610Y-26793508D02*
X3249086Y-26783984D01*
X3249086Y-26783984D02*
X3249086Y-26803031D01*
X3372896Y-26983984D02*
X3353848Y-26974460D01*
X3353848Y-26974460D02*
X3344324Y-26955412D01*
X3344324Y-26955412D02*
X3344324Y-26783984D01*
X3477658Y-26983984D02*
X3458610Y-26974460D01*
X3458610Y-26974460D02*
X3449086Y-26955412D01*
X3449086Y-26955412D02*
X3449086Y-26783984D01*
X3706229Y-26983984D02*
X3706229Y-26783984D01*
X3706229Y-26783984D02*
X3772896Y-26926841D01*
X3772896Y-26926841D02*
X3839562Y-26783984D01*
X3839562Y-26783984D02*
X3839562Y-26983984D01*
X4020515Y-26983984D02*
X4020515Y-26879222D01*
X4020515Y-26879222D02*
X4010991Y-26860174D01*
X4010991Y-26860174D02*
X3991943Y-26850650D01*
X3991943Y-26850650D02*
X3953848Y-26850650D01*
X3953848Y-26850650D02*
X3934801Y-26860174D01*
X4020515Y-26974460D02*
X4001467Y-26983984D01*
X4001467Y-26983984D02*
X3953848Y-26983984D01*
X3953848Y-26983984D02*
X3934801Y-26974460D01*
X3934801Y-26974460D02*
X3925277Y-26955412D01*
X3925277Y-26955412D02*
X3925277Y-26936365D01*
X3925277Y-26936365D02*
X3934801Y-26917317D01*
X3934801Y-26917317D02*
X3953848Y-26907793D01*
X3953848Y-26907793D02*
X4001467Y-26907793D01*
X4001467Y-26907793D02*
X4020515Y-26898269D01*
X4115753Y-26850650D02*
X4115753Y-27050650D01*
X4115753Y-26860174D02*
X4134801Y-26850650D01*
X4134801Y-26850650D02*
X4172896Y-26850650D01*
X4172896Y-26850650D02*
X4191943Y-26860174D01*
X4191943Y-26860174D02*
X4201467Y-26869698D01*
X4201467Y-26869698D02*
X4210991Y-26888746D01*
X4210991Y-26888746D02*
X4210991Y-26945888D01*
X4210991Y-26945888D02*
X4201467Y-26964936D01*
X4201467Y-26964936D02*
X4191943Y-26974460D01*
X4191943Y-26974460D02*
X4172896Y-26983984D01*
X4172896Y-26983984D02*
X4134801Y-26983984D01*
X4134801Y-26983984D02*
X4115753Y-26974460D01*
X4296705Y-26964936D02*
X4306229Y-26974460D01*
X4306229Y-26974460D02*
X4296705Y-26983984D01*
X4296705Y-26983984D02*
X4287182Y-26974460D01*
X4287182Y-26974460D02*
X4296705Y-26964936D01*
X4296705Y-26964936D02*
X4296705Y-26983984D01*
X4296705Y-26860174D02*
X4306229Y-26869698D01*
X4306229Y-26869698D02*
X4296705Y-26879222D01*
X4296705Y-26879222D02*
X4287182Y-26869698D01*
X4287182Y-26869698D02*
X4296705Y-26860174D01*
X4296705Y-26860174D02*
X4296705Y-26879222D01*
D12*
X2514500Y-27237500D02*
X2664500Y-27387500D01*
X2664500Y-27237500D02*
X2514500Y-27387500D01*
D11*
X3030039Y-27403984D02*
X2915753Y-27403984D01*
X2972896Y-27403984D02*
X2972896Y-27203984D01*
X2972896Y-27203984D02*
X2953848Y-27232555D01*
X2953848Y-27232555D02*
X2934801Y-27251603D01*
X2934801Y-27251603D02*
X2915753Y-27261127D01*
X3115753Y-27384936D02*
X3125277Y-27394460D01*
X3125277Y-27394460D02*
X3115753Y-27403984D01*
X3115753Y-27403984D02*
X3106229Y-27394460D01*
X3106229Y-27394460D02*
X3115753Y-27384936D01*
X3115753Y-27384936D02*
X3115753Y-27403984D01*
X3306229Y-27203984D02*
X3210991Y-27203984D01*
X3210991Y-27203984D02*
X3201467Y-27299222D01*
X3201467Y-27299222D02*
X3210991Y-27289698D01*
X3210991Y-27289698D02*
X3230039Y-27280174D01*
X3230039Y-27280174D02*
X3277658Y-27280174D01*
X3277658Y-27280174D02*
X3296705Y-27289698D01*
X3296705Y-27289698D02*
X3306229Y-27299222D01*
X3306229Y-27299222D02*
X3315753Y-27318269D01*
X3315753Y-27318269D02*
X3315753Y-27365888D01*
X3315753Y-27365888D02*
X3306229Y-27384936D01*
X3306229Y-27384936D02*
X3296705Y-27394460D01*
X3296705Y-27394460D02*
X3277658Y-27403984D01*
X3277658Y-27403984D02*
X3230039Y-27403984D01*
X3230039Y-27403984D02*
X3210991Y-27394460D01*
X3210991Y-27394460D02*
X3201467Y-27384936D01*
X3439562Y-27203984D02*
X3458610Y-27203984D01*
X3458610Y-27203984D02*
X3477658Y-27213508D01*
X3477658Y-27213508D02*
X3487182Y-27223031D01*
X3487182Y-27223031D02*
X3496705Y-27242079D01*
X3496705Y-27242079D02*
X3506229Y-27280174D01*
X3506229Y-27280174D02*
X3506229Y-27327793D01*
X3506229Y-27327793D02*
X3496705Y-27365888D01*
X3496705Y-27365888D02*
X3487182Y-27384936D01*
X3487182Y-27384936D02*
X3477658Y-27394460D01*
X3477658Y-27394460D02*
X3458610Y-27403984D01*
X3458610Y-27403984D02*
X3439562Y-27403984D01*
X3439562Y-27403984D02*
X3420515Y-27394460D01*
X3420515Y-27394460D02*
X3410991Y-27384936D01*
X3410991Y-27384936D02*
X3401467Y-27365888D01*
X3401467Y-27365888D02*
X3391943Y-27327793D01*
X3391943Y-27327793D02*
X3391943Y-27280174D01*
X3391943Y-27280174D02*
X3401467Y-27242079D01*
X3401467Y-27242079D02*
X3410991Y-27223031D01*
X3410991Y-27223031D02*
X3420515Y-27213508D01*
X3420515Y-27213508D02*
X3439562Y-27203984D01*
X3630039Y-27203984D02*
X3649086Y-27203984D01*
X3649086Y-27203984D02*
X3668134Y-27213508D01*
X3668134Y-27213508D02*
X3677658Y-27223031D01*
X3677658Y-27223031D02*
X3687182Y-27242079D01*
X3687182Y-27242079D02*
X3696705Y-27280174D01*
X3696705Y-27280174D02*
X3696705Y-27327793D01*
X3696705Y-27327793D02*
X3687182Y-27365888D01*
X3687182Y-27365888D02*
X3677658Y-27384936D01*
X3677658Y-27384936D02*
X3668134Y-27394460D01*
X3668134Y-27394460D02*
X3649086Y-27403984D01*
X3649086Y-27403984D02*
X3630039Y-27403984D01*
X3630039Y-27403984D02*
X3610991Y-27394460D01*
X3610991Y-27394460D02*
X3601467Y-27384936D01*
X3601467Y-27384936D02*
X3591943Y-27365888D01*
X3591943Y-27365888D02*
X3582420Y-27327793D01*
X3582420Y-27327793D02*
X3582420Y-27280174D01*
X3582420Y-27280174D02*
X3591943Y-27242079D01*
X3591943Y-27242079D02*
X3601467Y-27223031D01*
X3601467Y-27223031D02*
X3610991Y-27213508D01*
X3610991Y-27213508D02*
X3630039Y-27203984D01*
X3782420Y-27403984D02*
X3782420Y-27270650D01*
X3782420Y-27289698D02*
X3791943Y-27280174D01*
X3791943Y-27280174D02*
X3810991Y-27270650D01*
X3810991Y-27270650D02*
X3839563Y-27270650D01*
X3839563Y-27270650D02*
X3858610Y-27280174D01*
X3858610Y-27280174D02*
X3868134Y-27299222D01*
X3868134Y-27299222D02*
X3868134Y-27403984D01*
X3868134Y-27299222D02*
X3877658Y-27280174D01*
X3877658Y-27280174D02*
X3896705Y-27270650D01*
X3896705Y-27270650D02*
X3925277Y-27270650D01*
X3925277Y-27270650D02*
X3944324Y-27280174D01*
X3944324Y-27280174D02*
X3953848Y-27299222D01*
X3953848Y-27299222D02*
X3953848Y-27403984D01*
X4049086Y-27403984D02*
X4049086Y-27270650D01*
X4049086Y-27289698D02*
X4058610Y-27280174D01*
X4058610Y-27280174D02*
X4077658Y-27270650D01*
X4077658Y-27270650D02*
X4106229Y-27270650D01*
X4106229Y-27270650D02*
X4125277Y-27280174D01*
X4125277Y-27280174D02*
X4134801Y-27299222D01*
X4134801Y-27299222D02*
X4134801Y-27403984D01*
X4134801Y-27299222D02*
X4144324Y-27280174D01*
X4144324Y-27280174D02*
X4163372Y-27270650D01*
X4163372Y-27270650D02*
X4191943Y-27270650D01*
X4191943Y-27270650D02*
X4210991Y-27280174D01*
X4210991Y-27280174D02*
X4220515Y-27299222D01*
X4220515Y-27299222D02*
X4220515Y-27403984D01*
X4610991Y-27194460D02*
X4439563Y-27451603D01*
X4868134Y-27203984D02*
X4887182Y-27203984D01*
X4887182Y-27203984D02*
X4906229Y-27213508D01*
X4906229Y-27213508D02*
X4915753Y-27223031D01*
X4915753Y-27223031D02*
X4925277Y-27242079D01*
X4925277Y-27242079D02*
X4934801Y-27280174D01*
X4934801Y-27280174D02*
X4934801Y-27327793D01*
X4934801Y-27327793D02*
X4925277Y-27365888D01*
X4925277Y-27365888D02*
X4915753Y-27384936D01*
X4915753Y-27384936D02*
X4906229Y-27394460D01*
X4906229Y-27394460D02*
X4887182Y-27403984D01*
X4887182Y-27403984D02*
X4868134Y-27403984D01*
X4868134Y-27403984D02*
X4849087Y-27394460D01*
X4849087Y-27394460D02*
X4839563Y-27384936D01*
X4839563Y-27384936D02*
X4830039Y-27365888D01*
X4830039Y-27365888D02*
X4820515Y-27327793D01*
X4820515Y-27327793D02*
X4820515Y-27280174D01*
X4820515Y-27280174D02*
X4830039Y-27242079D01*
X4830039Y-27242079D02*
X4839563Y-27223031D01*
X4839563Y-27223031D02*
X4849087Y-27213508D01*
X4849087Y-27213508D02*
X4868134Y-27203984D01*
X5020515Y-27384936D02*
X5030039Y-27394460D01*
X5030039Y-27394460D02*
X5020515Y-27403984D01*
X5020515Y-27403984D02*
X5010991Y-27394460D01*
X5010991Y-27394460D02*
X5020515Y-27384936D01*
X5020515Y-27384936D02*
X5020515Y-27403984D01*
X5153848Y-27203984D02*
X5172896Y-27203984D01*
X5172896Y-27203984D02*
X5191944Y-27213508D01*
X5191944Y-27213508D02*
X5201468Y-27223031D01*
X5201468Y-27223031D02*
X5210991Y-27242079D01*
X5210991Y-27242079D02*
X5220515Y-27280174D01*
X5220515Y-27280174D02*
X5220515Y-27327793D01*
X5220515Y-27327793D02*
X5210991Y-27365888D01*
X5210991Y-27365888D02*
X5201468Y-27384936D01*
X5201468Y-27384936D02*
X5191944Y-27394460D01*
X5191944Y-27394460D02*
X5172896Y-27403984D01*
X5172896Y-27403984D02*
X5153848Y-27403984D01*
X5153848Y-27403984D02*
X5134801Y-27394460D01*
X5134801Y-27394460D02*
X5125277Y-27384936D01*
X5125277Y-27384936D02*
X5115753Y-27365888D01*
X5115753Y-27365888D02*
X5106229Y-27327793D01*
X5106229Y-27327793D02*
X5106229Y-27280174D01*
X5106229Y-27280174D02*
X5115753Y-27242079D01*
X5115753Y-27242079D02*
X5125277Y-27223031D01*
X5125277Y-27223031D02*
X5134801Y-27213508D01*
X5134801Y-27213508D02*
X5153848Y-27203984D01*
X5401468Y-27203984D02*
X5306229Y-27203984D01*
X5306229Y-27203984D02*
X5296706Y-27299222D01*
X5296706Y-27299222D02*
X5306229Y-27289698D01*
X5306229Y-27289698D02*
X5325277Y-27280174D01*
X5325277Y-27280174D02*
X5372896Y-27280174D01*
X5372896Y-27280174D02*
X5391944Y-27289698D01*
X5391944Y-27289698D02*
X5401468Y-27299222D01*
X5401468Y-27299222D02*
X5410991Y-27318269D01*
X5410991Y-27318269D02*
X5410991Y-27365888D01*
X5410991Y-27365888D02*
X5401468Y-27384936D01*
X5401468Y-27384936D02*
X5391944Y-27394460D01*
X5391944Y-27394460D02*
X5372896Y-27403984D01*
X5372896Y-27403984D02*
X5325277Y-27403984D01*
X5325277Y-27403984D02*
X5306229Y-27394460D01*
X5306229Y-27394460D02*
X5296706Y-27384936D01*
X5506229Y-27403984D02*
X5544325Y-27403984D01*
X5544325Y-27403984D02*
X5563372Y-27394460D01*
X5563372Y-27394460D02*
X5572896Y-27384936D01*
X5572896Y-27384936D02*
X5591944Y-27356365D01*
X5591944Y-27356365D02*
X5601467Y-27318269D01*
X5601467Y-27318269D02*
X5601467Y-27242079D01*
X5601467Y-27242079D02*
X5591944Y-27223031D01*
X5591944Y-27223031D02*
X5582420Y-27213508D01*
X5582420Y-27213508D02*
X5563372Y-27203984D01*
X5563372Y-27203984D02*
X5525277Y-27203984D01*
X5525277Y-27203984D02*
X5506229Y-27213508D01*
X5506229Y-27213508D02*
X5496706Y-27223031D01*
X5496706Y-27223031D02*
X5487182Y-27242079D01*
X5487182Y-27242079D02*
X5487182Y-27289698D01*
X5487182Y-27289698D02*
X5496706Y-27308746D01*
X5496706Y-27308746D02*
X5506229Y-27318269D01*
X5506229Y-27318269D02*
X5525277Y-27327793D01*
X5525277Y-27327793D02*
X5563372Y-27327793D01*
X5563372Y-27327793D02*
X5582420Y-27318269D01*
X5582420Y-27318269D02*
X5591944Y-27308746D01*
X5591944Y-27308746D02*
X5601467Y-27289698D01*
X5791944Y-27403984D02*
X5677658Y-27403984D01*
X5734801Y-27403984D02*
X5734801Y-27203984D01*
X5734801Y-27203984D02*
X5715753Y-27232555D01*
X5715753Y-27232555D02*
X5696706Y-27251603D01*
X5696706Y-27251603D02*
X5677658Y-27261127D01*
X5868134Y-27203984D02*
X5868134Y-27242079D01*
X5944325Y-27203984D02*
X5944325Y-27242079D01*
X6239563Y-27480174D02*
X6230039Y-27470650D01*
X6230039Y-27470650D02*
X6210991Y-27442079D01*
X6210991Y-27442079D02*
X6201468Y-27423031D01*
X6201468Y-27423031D02*
X6191944Y-27394460D01*
X6191944Y-27394460D02*
X6182420Y-27346841D01*
X6182420Y-27346841D02*
X6182420Y-27308746D01*
X6182420Y-27308746D02*
X6191944Y-27261127D01*
X6191944Y-27261127D02*
X6201468Y-27232555D01*
X6201468Y-27232555D02*
X6210991Y-27213508D01*
X6210991Y-27213508D02*
X6230039Y-27184936D01*
X6230039Y-27184936D02*
X6239563Y-27175412D01*
X6353848Y-27203984D02*
X6372896Y-27203984D01*
X6372896Y-27203984D02*
X6391944Y-27213508D01*
X6391944Y-27213508D02*
X6401468Y-27223031D01*
X6401468Y-27223031D02*
X6410991Y-27242079D01*
X6410991Y-27242079D02*
X6420515Y-27280174D01*
X6420515Y-27280174D02*
X6420515Y-27327793D01*
X6420515Y-27327793D02*
X6410991Y-27365888D01*
X6410991Y-27365888D02*
X6401468Y-27384936D01*
X6401468Y-27384936D02*
X6391944Y-27394460D01*
X6391944Y-27394460D02*
X6372896Y-27403984D01*
X6372896Y-27403984D02*
X6353848Y-27403984D01*
X6353848Y-27403984D02*
X6334801Y-27394460D01*
X6334801Y-27394460D02*
X6325277Y-27384936D01*
X6325277Y-27384936D02*
X6315753Y-27365888D01*
X6315753Y-27365888D02*
X6306229Y-27327793D01*
X6306229Y-27327793D02*
X6306229Y-27280174D01*
X6306229Y-27280174D02*
X6315753Y-27242079D01*
X6315753Y-27242079D02*
X6325277Y-27223031D01*
X6325277Y-27223031D02*
X6334801Y-27213508D01*
X6334801Y-27213508D02*
X6353848Y-27203984D01*
X6658610Y-27403984D02*
X6658610Y-27203984D01*
X6744325Y-27403984D02*
X6744325Y-27299222D01*
X6744325Y-27299222D02*
X6734801Y-27280174D01*
X6734801Y-27280174D02*
X6715753Y-27270650D01*
X6715753Y-27270650D02*
X6687182Y-27270650D01*
X6687182Y-27270650D02*
X6668134Y-27280174D01*
X6668134Y-27280174D02*
X6658610Y-27289698D01*
X6868134Y-27403984D02*
X6849087Y-27394460D01*
X6849087Y-27394460D02*
X6839563Y-27384936D01*
X6839563Y-27384936D02*
X6830039Y-27365888D01*
X6830039Y-27365888D02*
X6830039Y-27308746D01*
X6830039Y-27308746D02*
X6839563Y-27289698D01*
X6839563Y-27289698D02*
X6849087Y-27280174D01*
X6849087Y-27280174D02*
X6868134Y-27270650D01*
X6868134Y-27270650D02*
X6896706Y-27270650D01*
X6896706Y-27270650D02*
X6915753Y-27280174D01*
X6915753Y-27280174D02*
X6925277Y-27289698D01*
X6925277Y-27289698D02*
X6934801Y-27308746D01*
X6934801Y-27308746D02*
X6934801Y-27365888D01*
X6934801Y-27365888D02*
X6925277Y-27384936D01*
X6925277Y-27384936D02*
X6915753Y-27394460D01*
X6915753Y-27394460D02*
X6896706Y-27403984D01*
X6896706Y-27403984D02*
X6868134Y-27403984D01*
X7049087Y-27403984D02*
X7030039Y-27394460D01*
X7030039Y-27394460D02*
X7020515Y-27375412D01*
X7020515Y-27375412D02*
X7020515Y-27203984D01*
X7201468Y-27394460D02*
X7182420Y-27403984D01*
X7182420Y-27403984D02*
X7144325Y-27403984D01*
X7144325Y-27403984D02*
X7125277Y-27394460D01*
X7125277Y-27394460D02*
X7115753Y-27375412D01*
X7115753Y-27375412D02*
X7115753Y-27299222D01*
X7115753Y-27299222D02*
X7125277Y-27280174D01*
X7125277Y-27280174D02*
X7144325Y-27270650D01*
X7144325Y-27270650D02*
X7182420Y-27270650D01*
X7182420Y-27270650D02*
X7201468Y-27280174D01*
X7201468Y-27280174D02*
X7210991Y-27299222D01*
X7210991Y-27299222D02*
X7210991Y-27318269D01*
X7210991Y-27318269D02*
X7115753Y-27337317D01*
X7287182Y-27394460D02*
X7306230Y-27403984D01*
X7306230Y-27403984D02*
X7344325Y-27403984D01*
X7344325Y-27403984D02*
X7363372Y-27394460D01*
X7363372Y-27394460D02*
X7372896Y-27375412D01*
X7372896Y-27375412D02*
X7372896Y-27365888D01*
X7372896Y-27365888D02*
X7363372Y-27346841D01*
X7363372Y-27346841D02*
X7344325Y-27337317D01*
X7344325Y-27337317D02*
X7315753Y-27337317D01*
X7315753Y-27337317D02*
X7296706Y-27327793D01*
X7296706Y-27327793D02*
X7287182Y-27308746D01*
X7287182Y-27308746D02*
X7287182Y-27299222D01*
X7287182Y-27299222D02*
X7296706Y-27280174D01*
X7296706Y-27280174D02*
X7315753Y-27270650D01*
X7315753Y-27270650D02*
X7344325Y-27270650D01*
X7344325Y-27270650D02*
X7363372Y-27280174D01*
X7610992Y-27327793D02*
X7763373Y-27327793D01*
X7687182Y-27403984D02*
X7687182Y-27251603D01*
X8001468Y-27223031D02*
X8010992Y-27213508D01*
X8010992Y-27213508D02*
X8030039Y-27203984D01*
X8030039Y-27203984D02*
X8077658Y-27203984D01*
X8077658Y-27203984D02*
X8096706Y-27213508D01*
X8096706Y-27213508D02*
X8106230Y-27223031D01*
X8106230Y-27223031D02*
X8115753Y-27242079D01*
X8115753Y-27242079D02*
X8115753Y-27261127D01*
X8115753Y-27261127D02*
X8106230Y-27289698D01*
X8106230Y-27289698D02*
X7991944Y-27403984D01*
X7991944Y-27403984D02*
X8115753Y-27403984D01*
X8344325Y-27394460D02*
X8363373Y-27403984D01*
X8363373Y-27403984D02*
X8401468Y-27403984D01*
X8401468Y-27403984D02*
X8420516Y-27394460D01*
X8420516Y-27394460D02*
X8430039Y-27375412D01*
X8430039Y-27375412D02*
X8430039Y-27365888D01*
X8430039Y-27365888D02*
X8420516Y-27346841D01*
X8420516Y-27346841D02*
X8401468Y-27337317D01*
X8401468Y-27337317D02*
X8372896Y-27337317D01*
X8372896Y-27337317D02*
X8353849Y-27327793D01*
X8353849Y-27327793D02*
X8344325Y-27308746D01*
X8344325Y-27308746D02*
X8344325Y-27299222D01*
X8344325Y-27299222D02*
X8353849Y-27280174D01*
X8353849Y-27280174D02*
X8372896Y-27270650D01*
X8372896Y-27270650D02*
X8401468Y-27270650D01*
X8401468Y-27270650D02*
X8420516Y-27280174D01*
X8544325Y-27403984D02*
X8525277Y-27394460D01*
X8525277Y-27394460D02*
X8515754Y-27375412D01*
X8515754Y-27375412D02*
X8515754Y-27203984D01*
X8649087Y-27403984D02*
X8630039Y-27394460D01*
X8630039Y-27394460D02*
X8620516Y-27384936D01*
X8620516Y-27384936D02*
X8610992Y-27365888D01*
X8610992Y-27365888D02*
X8610992Y-27308746D01*
X8610992Y-27308746D02*
X8620516Y-27289698D01*
X8620516Y-27289698D02*
X8630039Y-27280174D01*
X8630039Y-27280174D02*
X8649087Y-27270650D01*
X8649087Y-27270650D02*
X8677658Y-27270650D01*
X8677658Y-27270650D02*
X8696706Y-27280174D01*
X8696706Y-27280174D02*
X8706230Y-27289698D01*
X8706230Y-27289698D02*
X8715754Y-27308746D01*
X8715754Y-27308746D02*
X8715754Y-27365888D01*
X8715754Y-27365888D02*
X8706230Y-27384936D01*
X8706230Y-27384936D02*
X8696706Y-27394460D01*
X8696706Y-27394460D02*
X8677658Y-27403984D01*
X8677658Y-27403984D02*
X8649087Y-27403984D01*
X8772897Y-27270650D02*
X8849087Y-27270650D01*
X8801468Y-27203984D02*
X8801468Y-27375412D01*
X8801468Y-27375412D02*
X8810992Y-27394460D01*
X8810992Y-27394460D02*
X8830039Y-27403984D01*
X8830039Y-27403984D02*
X8849087Y-27403984D01*
X8906230Y-27394460D02*
X8925277Y-27403984D01*
X8925277Y-27403984D02*
X8963373Y-27403984D01*
X8963373Y-27403984D02*
X8982420Y-27394460D01*
X8982420Y-27394460D02*
X8991944Y-27375412D01*
X8991944Y-27375412D02*
X8991944Y-27365888D01*
X8991944Y-27365888D02*
X8982420Y-27346841D01*
X8982420Y-27346841D02*
X8963373Y-27337317D01*
X8963373Y-27337317D02*
X8934801Y-27337317D01*
X8934801Y-27337317D02*
X8915754Y-27327793D01*
X8915754Y-27327793D02*
X8906230Y-27308746D01*
X8906230Y-27308746D02*
X8906230Y-27299222D01*
X8906230Y-27299222D02*
X8915754Y-27280174D01*
X8915754Y-27280174D02*
X8934801Y-27270650D01*
X8934801Y-27270650D02*
X8963373Y-27270650D01*
X8963373Y-27270650D02*
X8982420Y-27280174D01*
X9058611Y-27480174D02*
X9068135Y-27470650D01*
X9068135Y-27470650D02*
X9087182Y-27442079D01*
X9087182Y-27442079D02*
X9096706Y-27423031D01*
X9096706Y-27423031D02*
X9106230Y-27394460D01*
X9106230Y-27394460D02*
X9115754Y-27346841D01*
X9115754Y-27346841D02*
X9115754Y-27308746D01*
X9115754Y-27308746D02*
X9106230Y-27261127D01*
X9106230Y-27261127D02*
X9096706Y-27232555D01*
X9096706Y-27232555D02*
X9087182Y-27213508D01*
X9087182Y-27213508D02*
X9068135Y-27184936D01*
X9068135Y-27184936D02*
X9058611Y-27175412D01*
X9420516Y-27480174D02*
X9410992Y-27470650D01*
X9410992Y-27470650D02*
X9391944Y-27442079D01*
X9391944Y-27442079D02*
X9382420Y-27423031D01*
X9382420Y-27423031D02*
X9372897Y-27394460D01*
X9372897Y-27394460D02*
X9363373Y-27346841D01*
X9363373Y-27346841D02*
X9363373Y-27308746D01*
X9363373Y-27308746D02*
X9372897Y-27261127D01*
X9372897Y-27261127D02*
X9382420Y-27232555D01*
X9382420Y-27232555D02*
X9391944Y-27213508D01*
X9391944Y-27213508D02*
X9410992Y-27184936D01*
X9410992Y-27184936D02*
X9420516Y-27175412D01*
X9496706Y-27270650D02*
X9496706Y-27403984D01*
X9496706Y-27289698D02*
X9506230Y-27280174D01*
X9506230Y-27280174D02*
X9525277Y-27270650D01*
X9525277Y-27270650D02*
X9553849Y-27270650D01*
X9553849Y-27270650D02*
X9572897Y-27280174D01*
X9572897Y-27280174D02*
X9582420Y-27299222D01*
X9582420Y-27299222D02*
X9582420Y-27403984D01*
X9706230Y-27403984D02*
X9687182Y-27394460D01*
X9687182Y-27394460D02*
X9677658Y-27384936D01*
X9677658Y-27384936D02*
X9668135Y-27365888D01*
X9668135Y-27365888D02*
X9668135Y-27308746D01*
X9668135Y-27308746D02*
X9677658Y-27289698D01*
X9677658Y-27289698D02*
X9687182Y-27280174D01*
X9687182Y-27280174D02*
X9706230Y-27270650D01*
X9706230Y-27270650D02*
X9734801Y-27270650D01*
X9734801Y-27270650D02*
X9753849Y-27280174D01*
X9753849Y-27280174D02*
X9763373Y-27289698D01*
X9763373Y-27289698D02*
X9772897Y-27308746D01*
X9772897Y-27308746D02*
X9772897Y-27365888D01*
X9772897Y-27365888D02*
X9763373Y-27384936D01*
X9763373Y-27384936D02*
X9753849Y-27394460D01*
X9753849Y-27394460D02*
X9734801Y-27403984D01*
X9734801Y-27403984D02*
X9706230Y-27403984D01*
X9830039Y-27270650D02*
X9906230Y-27270650D01*
X9858611Y-27203984D02*
X9858611Y-27375412D01*
X9858611Y-27375412D02*
X9868135Y-27394460D01*
X9868135Y-27394460D02*
X9887182Y-27403984D01*
X9887182Y-27403984D02*
X9906230Y-27403984D01*
X10125278Y-27270650D02*
X10125278Y-27470650D01*
X10125278Y-27280174D02*
X10144325Y-27270650D01*
X10144325Y-27270650D02*
X10182420Y-27270650D01*
X10182420Y-27270650D02*
X10201468Y-27280174D01*
X10201468Y-27280174D02*
X10210992Y-27289698D01*
X10210992Y-27289698D02*
X10220516Y-27308746D01*
X10220516Y-27308746D02*
X10220516Y-27365888D01*
X10220516Y-27365888D02*
X10210992Y-27384936D01*
X10210992Y-27384936D02*
X10201468Y-27394460D01*
X10201468Y-27394460D02*
X10182420Y-27403984D01*
X10182420Y-27403984D02*
X10144325Y-27403984D01*
X10144325Y-27403984D02*
X10125278Y-27394460D01*
X10334801Y-27403984D02*
X10315754Y-27394460D01*
X10315754Y-27394460D02*
X10306230Y-27375412D01*
X10306230Y-27375412D02*
X10306230Y-27203984D01*
X10496706Y-27403984D02*
X10496706Y-27299222D01*
X10496706Y-27299222D02*
X10487182Y-27280174D01*
X10487182Y-27280174D02*
X10468135Y-27270650D01*
X10468135Y-27270650D02*
X10430039Y-27270650D01*
X10430039Y-27270650D02*
X10410992Y-27280174D01*
X10496706Y-27394460D02*
X10477659Y-27403984D01*
X10477659Y-27403984D02*
X10430039Y-27403984D01*
X10430039Y-27403984D02*
X10410992Y-27394460D01*
X10410992Y-27394460D02*
X10401468Y-27375412D01*
X10401468Y-27375412D02*
X10401468Y-27356365D01*
X10401468Y-27356365D02*
X10410992Y-27337317D01*
X10410992Y-27337317D02*
X10430039Y-27327793D01*
X10430039Y-27327793D02*
X10477659Y-27327793D01*
X10477659Y-27327793D02*
X10496706Y-27318269D01*
X10563373Y-27270650D02*
X10639563Y-27270650D01*
X10591944Y-27203984D02*
X10591944Y-27375412D01*
X10591944Y-27375412D02*
X10601468Y-27394460D01*
X10601468Y-27394460D02*
X10620516Y-27403984D01*
X10620516Y-27403984D02*
X10639563Y-27403984D01*
X10782420Y-27394460D02*
X10763373Y-27403984D01*
X10763373Y-27403984D02*
X10725278Y-27403984D01*
X10725278Y-27403984D02*
X10706230Y-27394460D01*
X10706230Y-27394460D02*
X10696706Y-27375412D01*
X10696706Y-27375412D02*
X10696706Y-27299222D01*
X10696706Y-27299222D02*
X10706230Y-27280174D01*
X10706230Y-27280174D02*
X10725278Y-27270650D01*
X10725278Y-27270650D02*
X10763373Y-27270650D01*
X10763373Y-27270650D02*
X10782420Y-27280174D01*
X10782420Y-27280174D02*
X10791944Y-27299222D01*
X10791944Y-27299222D02*
X10791944Y-27318269D01*
X10791944Y-27318269D02*
X10696706Y-27337317D01*
X10963373Y-27403984D02*
X10963373Y-27203984D01*
X10963373Y-27394460D02*
X10944325Y-27403984D01*
X10944325Y-27403984D02*
X10906230Y-27403984D01*
X10906230Y-27403984D02*
X10887182Y-27394460D01*
X10887182Y-27394460D02*
X10877659Y-27384936D01*
X10877659Y-27384936D02*
X10868135Y-27365888D01*
X10868135Y-27365888D02*
X10868135Y-27308746D01*
X10868135Y-27308746D02*
X10877659Y-27289698D01*
X10877659Y-27289698D02*
X10887182Y-27280174D01*
X10887182Y-27280174D02*
X10906230Y-27270650D01*
X10906230Y-27270650D02*
X10944325Y-27270650D01*
X10944325Y-27270650D02*
X10963373Y-27280174D01*
X11039563Y-27480174D02*
X11049087Y-27470650D01*
X11049087Y-27470650D02*
X11068135Y-27442079D01*
X11068135Y-27442079D02*
X11077659Y-27423031D01*
X11077659Y-27423031D02*
X11087182Y-27394460D01*
X11087182Y-27394460D02*
X11096706Y-27346841D01*
X11096706Y-27346841D02*
X11096706Y-27308746D01*
X11096706Y-27308746D02*
X11087182Y-27261127D01*
X11087182Y-27261127D02*
X11077659Y-27232555D01*
X11077659Y-27232555D02*
X11068135Y-27213508D01*
X11068135Y-27213508D02*
X11049087Y-27184936D01*
X11049087Y-27184936D02*
X11039563Y-27175412D01*
M02*
