%TF.GenerationSoftware,KiCad,Pcbnew,8.0.7-1.fc41*%
%TF.CreationDate,2025-01-31T15:29:50-06:00*%
%TF.ProjectId,for_real_486,666f725f-7265-4616-9c5f-3438362e6b69,rev?*%
%TF.SameCoordinates,Original*%
%TF.FileFunction,Paste,Top*%
%TF.FilePolarity,Positive*%
%FSLAX46Y46*%
G04 Gerber Fmt 4.6, Leading zero omitted, Abs format (unit mm)*
G04 Created by KiCad (PCBNEW 8.0.7-1.fc41) date 2025-01-31 15:29:50*
%MOMM*%
%LPD*%
G01*
G04 APERTURE LIST*
G04 Aperture macros list*
%AMRoundRect*
0 Rectangle with rounded corners*
0 $1 Rounding radius*
0 $2 $3 $4 $5 $6 $7 $8 $9 X,Y pos of 4 corners*
0 Add a 4 corners polygon primitive as box body*
4,1,4,$2,$3,$4,$5,$6,$7,$8,$9,$2,$3,0*
0 Add four circle primitives for the rounded corners*
1,1,$1+$1,$2,$3*
1,1,$1+$1,$4,$5*
1,1,$1+$1,$6,$7*
1,1,$1+$1,$8,$9*
0 Add four rect primitives between the rounded corners*
20,1,$1+$1,$2,$3,$4,$5,0*
20,1,$1+$1,$4,$5,$6,$7,0*
20,1,$1+$1,$6,$7,$8,$9,0*
20,1,$1+$1,$8,$9,$2,$3,0*%
G04 Aperture macros list end*
%ADD10R,0.500000X2.500000*%
%ADD11RoundRect,0.250000X0.650000X-0.325000X0.650000X0.325000X-0.650000X0.325000X-0.650000X-0.325000X0*%
%ADD12RoundRect,0.250000X0.650000X-0.412500X0.650000X0.412500X-0.650000X0.412500X-0.650000X-0.412500X0*%
%ADD13RoundRect,0.250000X0.350000X0.450000X-0.350000X0.450000X-0.350000X-0.450000X0.350000X-0.450000X0*%
%ADD14RoundRect,0.250000X-0.450000X0.350000X-0.450000X-0.350000X0.450000X-0.350000X0.450000X0.350000X0*%
%ADD15RoundRect,0.250000X0.450000X-0.350000X0.450000X0.350000X-0.450000X0.350000X-0.450000X-0.350000X0*%
%ADD16RoundRect,0.250000X-0.412500X-0.650000X0.412500X-0.650000X0.412500X0.650000X-0.412500X0.650000X0*%
%ADD17RoundRect,0.250000X0.412500X0.650000X-0.412500X0.650000X-0.412500X-0.650000X0.412500X-0.650000X0*%
%ADD18RoundRect,0.250000X-0.650000X0.412500X-0.650000X-0.412500X0.650000X-0.412500X0.650000X0.412500X0*%
%ADD19RoundRect,0.250000X-0.325000X-0.650000X0.325000X-0.650000X0.325000X0.650000X-0.325000X0.650000X0*%
%ADD20RoundRect,0.150000X0.150000X-0.825000X0.150000X0.825000X-0.150000X0.825000X-0.150000X-0.825000X0*%
%ADD21RoundRect,0.100000X-0.100000X0.637500X-0.100000X-0.637500X0.100000X-0.637500X0.100000X0.637500X0*%
%ADD22RoundRect,0.075000X-0.662500X-0.075000X0.662500X-0.075000X0.662500X0.075000X-0.662500X0.075000X0*%
%ADD23RoundRect,0.075000X-0.075000X-0.662500X0.075000X-0.662500X0.075000X0.662500X-0.075000X0.662500X0*%
%ADD24R,2.200000X0.600000*%
%ADD25RoundRect,0.250000X-0.350000X-0.450000X0.350000X-0.450000X0.350000X0.450000X-0.350000X0.450000X0*%
%ADD26RoundRect,0.075000X-0.075000X0.662500X-0.075000X-0.662500X0.075000X-0.662500X0.075000X0.662500X0*%
%ADD27RoundRect,0.150000X0.150000X-0.587500X0.150000X0.587500X-0.150000X0.587500X-0.150000X-0.587500X0*%
%ADD28RoundRect,0.250000X-0.650000X0.325000X-0.650000X-0.325000X0.650000X-0.325000X0.650000X0.325000X0*%
%ADD29RoundRect,0.100000X0.637500X0.100000X-0.637500X0.100000X-0.637500X-0.100000X0.637500X-0.100000X0*%
%ADD30RoundRect,0.100000X0.100000X-0.637500X0.100000X0.637500X-0.100000X0.637500X-0.100000X-0.637500X0*%
%ADD31RoundRect,0.100000X-0.637500X-0.100000X0.637500X-0.100000X0.637500X0.100000X-0.637500X0.100000X0*%
%ADD32RoundRect,0.150000X-0.512500X-0.150000X0.512500X-0.150000X0.512500X0.150000X-0.512500X0.150000X0*%
%ADD33RoundRect,0.150000X-0.150000X0.825000X-0.150000X-0.825000X0.150000X-0.825000X0.150000X0.825000X0*%
%ADD34RoundRect,0.150000X-0.650000X-0.150000X0.650000X-0.150000X0.650000X0.150000X-0.650000X0.150000X0*%
%ADD35RoundRect,0.250000X0.325000X0.650000X-0.325000X0.650000X-0.325000X-0.650000X0.325000X-0.650000X0*%
G04 APERTURE END LIST*
D10*
%TO.C,U4*%
X120295000Y-93475000D03*
X121095000Y-93475000D03*
X121895000Y-93475000D03*
X122695000Y-93475000D03*
X123495000Y-93475000D03*
X124295000Y-93475000D03*
X125095000Y-93475000D03*
X125895000Y-93475000D03*
X126695000Y-93475000D03*
X127495000Y-93475000D03*
X128295000Y-93475000D03*
X129095000Y-93475000D03*
X129895000Y-93475000D03*
X130695000Y-93475000D03*
X131495000Y-93475000D03*
X132295000Y-93475000D03*
X133095000Y-93475000D03*
X133895000Y-93475000D03*
X134695000Y-93475000D03*
X135495000Y-93475000D03*
X136295000Y-93475000D03*
X137095000Y-93475000D03*
X137095000Y-83215000D03*
X136295000Y-83215000D03*
X135495000Y-83215000D03*
X134695000Y-83215000D03*
X133895000Y-83215000D03*
X133095000Y-83215000D03*
X132295000Y-83215000D03*
X131495000Y-83215000D03*
X130695000Y-83215000D03*
X129895000Y-83215000D03*
X129095000Y-83215000D03*
X128295000Y-83215000D03*
X127495000Y-83215000D03*
X126695000Y-83215000D03*
X125895000Y-83215000D03*
X125095000Y-83215000D03*
X124295000Y-83215000D03*
X123495000Y-83215000D03*
X122695000Y-83215000D03*
X121895000Y-83215000D03*
X121095000Y-83215000D03*
X120295000Y-83215000D03*
%TD*%
D11*
%TO.C,C44*%
X114935000Y-151970000D03*
X114935000Y-149020000D03*
%TD*%
%TO.C,C39*%
X70644000Y-163400000D03*
X70644000Y-160450000D03*
%TD*%
D10*
%TO.C,U3*%
X96940000Y-93445000D03*
X97740000Y-93445000D03*
X98540000Y-93445000D03*
X99340000Y-93445000D03*
X100140000Y-93445000D03*
X100940000Y-93445000D03*
X101740000Y-93445000D03*
X102540000Y-93445000D03*
X103340000Y-93445000D03*
X104140000Y-93445000D03*
X104940000Y-93445000D03*
X105740000Y-93445000D03*
X106540000Y-93445000D03*
X107340000Y-93445000D03*
X108140000Y-93445000D03*
X108940000Y-93445000D03*
X109740000Y-93445000D03*
X110540000Y-93445000D03*
X111340000Y-93445000D03*
X112140000Y-93445000D03*
X112940000Y-93445000D03*
X113740000Y-93445000D03*
X113740000Y-83185000D03*
X112940000Y-83185000D03*
X112140000Y-83185000D03*
X111340000Y-83185000D03*
X110540000Y-83185000D03*
X109740000Y-83185000D03*
X108940000Y-83185000D03*
X108140000Y-83185000D03*
X107340000Y-83185000D03*
X106540000Y-83185000D03*
X105740000Y-83185000D03*
X104940000Y-83185000D03*
X104140000Y-83185000D03*
X103340000Y-83185000D03*
X102540000Y-83185000D03*
X101740000Y-83185000D03*
X100940000Y-83185000D03*
X100140000Y-83185000D03*
X99340000Y-83185000D03*
X98540000Y-83185000D03*
X97740000Y-83185000D03*
X96940000Y-83185000D03*
%TD*%
D12*
%TO.C,C46*%
X70799000Y-169347000D03*
X70799000Y-166222000D03*
%TD*%
D11*
%TO.C,C75*%
X131445000Y-113870000D03*
X131445000Y-110920000D03*
%TD*%
D13*
%TO.C,R71*%
X184489600Y-156464000D03*
X182489600Y-156464000D03*
%TD*%
D14*
%TO.C,R21*%
X166140000Y-111062600D03*
X166140000Y-113062600D03*
%TD*%
D11*
%TO.C,C12*%
X164465000Y-105820000D03*
X164465000Y-102870000D03*
%TD*%
%TO.C,C13*%
X154305000Y-105820000D03*
X154305000Y-102870000D03*
%TD*%
D15*
%TO.C,R29*%
X150600000Y-118444900D03*
X150600000Y-116444900D03*
%TD*%
D16*
%TO.C,C37*%
X143852500Y-168910000D03*
X146977500Y-168910000D03*
%TD*%
D17*
%TO.C,C90*%
X181560000Y-169816000D03*
X178435000Y-169816000D03*
%TD*%
D18*
%TO.C,C32*%
X153671000Y-142331500D03*
X153671000Y-145456500D03*
%TD*%
D19*
%TO.C,C15*%
X121715000Y-123825000D03*
X124665000Y-123825000D03*
%TD*%
D20*
%TO.C,U5*%
X54610000Y-102870000D03*
X55880000Y-102870000D03*
X57150000Y-102870000D03*
X58420000Y-102870000D03*
X59690000Y-102870000D03*
X60960000Y-102870000D03*
X62230000Y-102870000D03*
X62230000Y-97920000D03*
X60960000Y-97920000D03*
X59690000Y-97920000D03*
X58420000Y-97920000D03*
X57150000Y-97920000D03*
X55880000Y-97920000D03*
X54610000Y-97920000D03*
%TD*%
D15*
%TO.C,R12*%
X167893000Y-118110000D03*
X167893000Y-116110000D03*
%TD*%
D18*
%TO.C,C1*%
X72835000Y-83527500D03*
X72835000Y-86652500D03*
%TD*%
D15*
%TO.C,R52*%
X114300000Y-168640000D03*
X114300000Y-166640000D03*
%TD*%
D21*
%TO.C,U14*%
X172470000Y-101482500D03*
X171820000Y-101482500D03*
X171170000Y-101482500D03*
X170520000Y-101482500D03*
X169870000Y-101482500D03*
X169220000Y-101482500D03*
X168570000Y-101482500D03*
X167920000Y-101482500D03*
X167270000Y-101482500D03*
X166620000Y-101482500D03*
X166620000Y-107207500D03*
X167270000Y-107207500D03*
X167920000Y-107207500D03*
X168570000Y-107207500D03*
X169220000Y-107207500D03*
X169870000Y-107207500D03*
X170520000Y-107207500D03*
X171170000Y-107207500D03*
X171820000Y-107207500D03*
X172470000Y-107207500D03*
%TD*%
D15*
%TO.C,R48*%
X196215000Y-96250000D03*
X196215000Y-94250000D03*
%TD*%
D18*
%TO.C,C3*%
X116650000Y-83235000D03*
X116650000Y-86360000D03*
%TD*%
D22*
%TO.C,U11*%
X90937500Y-122695000D03*
X90937500Y-123195000D03*
X90937500Y-123695000D03*
X90937500Y-124195000D03*
X90937500Y-124695000D03*
X90937500Y-125195000D03*
X90937500Y-125695000D03*
X90937500Y-126195000D03*
X90937500Y-126695000D03*
X90937500Y-127195000D03*
X90937500Y-127695000D03*
X90937500Y-128195000D03*
X90937500Y-128695000D03*
X90937500Y-129195000D03*
X90937500Y-129695000D03*
X90937500Y-130195000D03*
X90937500Y-130695000D03*
X90937500Y-131195000D03*
X90937500Y-131695000D03*
X90937500Y-132195000D03*
X90937500Y-132695000D03*
X90937500Y-133195000D03*
X90937500Y-133695000D03*
X90937500Y-134195000D03*
X90937500Y-134695000D03*
X90937500Y-135195000D03*
X90937500Y-135695000D03*
X90937500Y-136195000D03*
X90937500Y-136695000D03*
X90937500Y-137195000D03*
X90937500Y-137695000D03*
X90937500Y-138195000D03*
X90937500Y-138695000D03*
X90937500Y-139195000D03*
X90937500Y-139695000D03*
X90937500Y-140195000D03*
D23*
X92850000Y-142107500D03*
X93350000Y-142107500D03*
X93850000Y-142107500D03*
X94350000Y-142107500D03*
X94850000Y-142107500D03*
X95350000Y-142107500D03*
X95850000Y-142107500D03*
X96350000Y-142107500D03*
X96850000Y-142107500D03*
X97350000Y-142107500D03*
X97850000Y-142107500D03*
X98350000Y-142107500D03*
X98850000Y-142107500D03*
X99350000Y-142107500D03*
X99850000Y-142107500D03*
X100350000Y-142107500D03*
X100850000Y-142107500D03*
X101350000Y-142107500D03*
X101850000Y-142107500D03*
X102350000Y-142107500D03*
X102850000Y-142107500D03*
X103350000Y-142107500D03*
X103850000Y-142107500D03*
X104350000Y-142107500D03*
X104850000Y-142107500D03*
X105350000Y-142107500D03*
X105850000Y-142107500D03*
X106350000Y-142107500D03*
X106850000Y-142107500D03*
X107350000Y-142107500D03*
X107850000Y-142107500D03*
X108350000Y-142107500D03*
X108850000Y-142107500D03*
X109350000Y-142107500D03*
X109850000Y-142107500D03*
X110350000Y-142107500D03*
D22*
X112262500Y-140195000D03*
X112262500Y-139695000D03*
X112262500Y-139195000D03*
X112262500Y-138695000D03*
X112262500Y-138195000D03*
X112262500Y-137695000D03*
X112262500Y-137195000D03*
X112262500Y-136695000D03*
X112262500Y-136195000D03*
X112262500Y-135695000D03*
X112262500Y-135195000D03*
X112262500Y-134695000D03*
X112262500Y-134195000D03*
X112262500Y-133695000D03*
X112262500Y-133195000D03*
X112262500Y-132695000D03*
X112262500Y-132195000D03*
X112262500Y-131695000D03*
X112262500Y-131195000D03*
X112262500Y-130695000D03*
X112262500Y-130195000D03*
X112262500Y-129695000D03*
X112262500Y-129195000D03*
X112262500Y-128695000D03*
X112262500Y-128195000D03*
X112262500Y-127695000D03*
X112262500Y-127195000D03*
X112262500Y-126695000D03*
X112262500Y-126195000D03*
X112262500Y-125695000D03*
X112262500Y-125195000D03*
X112262500Y-124695000D03*
X112262500Y-124195000D03*
X112262500Y-123695000D03*
X112262500Y-123195000D03*
X112262500Y-122695000D03*
D23*
X110350000Y-120782500D03*
X109850000Y-120782500D03*
X109350000Y-120782500D03*
X108850000Y-120782500D03*
X108350000Y-120782500D03*
X107850000Y-120782500D03*
X107350000Y-120782500D03*
X106850000Y-120782500D03*
X106350000Y-120782500D03*
X105850000Y-120782500D03*
X105350000Y-120782500D03*
X104850000Y-120782500D03*
X104350000Y-120782500D03*
X103850000Y-120782500D03*
X103350000Y-120782500D03*
X102850000Y-120782500D03*
X102350000Y-120782500D03*
X101850000Y-120782500D03*
X101350000Y-120782500D03*
X100850000Y-120782500D03*
X100350000Y-120782500D03*
X99850000Y-120782500D03*
X99350000Y-120782500D03*
X98850000Y-120782500D03*
X98350000Y-120782500D03*
X97850000Y-120782500D03*
X97350000Y-120782500D03*
X96850000Y-120782500D03*
X96350000Y-120782500D03*
X95850000Y-120782500D03*
X95350000Y-120782500D03*
X94850000Y-120782500D03*
X94350000Y-120782500D03*
X93850000Y-120782500D03*
X93350000Y-120782500D03*
X92850000Y-120782500D03*
%TD*%
D18*
%TO.C,C21*%
X146671000Y-134769000D03*
X146671000Y-137894000D03*
%TD*%
%TO.C,C31*%
X161671000Y-150331500D03*
X161671000Y-153456500D03*
%TD*%
D19*
%TO.C,C81*%
X116044000Y-146304000D03*
X118994000Y-146304000D03*
%TD*%
D17*
%TO.C,C93*%
X181560000Y-159766000D03*
X178435000Y-159766000D03*
%TD*%
D19*
%TO.C,C73*%
X116000000Y-142240000D03*
X118950000Y-142240000D03*
%TD*%
D21*
%TO.C,U16*%
X151885000Y-101482500D03*
X151235000Y-101482500D03*
X150585000Y-101482500D03*
X149935000Y-101482500D03*
X149285000Y-101482500D03*
X148635000Y-101482500D03*
X147985000Y-101482500D03*
X147335000Y-101482500D03*
X146685000Y-101482500D03*
X146035000Y-101482500D03*
X146035000Y-107207500D03*
X146685000Y-107207500D03*
X147335000Y-107207500D03*
X147985000Y-107207500D03*
X148635000Y-107207500D03*
X149285000Y-107207500D03*
X149935000Y-107207500D03*
X150585000Y-107207500D03*
X151235000Y-107207500D03*
X151885000Y-107207500D03*
%TD*%
D15*
%TO.C,R32*%
X111760000Y-173085000D03*
X111760000Y-171085000D03*
%TD*%
D17*
%TO.C,C83*%
X149517500Y-88265000D03*
X146392500Y-88265000D03*
%TD*%
D18*
%TO.C,C28*%
X161671000Y-142331500D03*
X161671000Y-145456500D03*
%TD*%
%TO.C,C35*%
X178943000Y-153463500D03*
X178943000Y-156588500D03*
%TD*%
D24*
%TO.C,U8*%
X34691000Y-242292000D03*
X34691000Y-243562000D03*
X34691000Y-244832000D03*
X34691000Y-246102000D03*
X34691000Y-247372000D03*
X34691000Y-248642000D03*
X34691000Y-249912000D03*
X34691000Y-251182000D03*
X34691000Y-252452000D03*
X34691000Y-253722000D03*
X34691000Y-254992000D03*
X34691000Y-256262000D03*
X34691000Y-257532000D03*
X34691000Y-258802000D03*
X44851000Y-258802000D03*
X44851000Y-257532000D03*
X44851000Y-256262000D03*
X44851000Y-254992000D03*
X44851000Y-253722000D03*
X44851000Y-252452000D03*
X44851000Y-251182000D03*
X44851000Y-249912000D03*
X44851000Y-248642000D03*
X44851000Y-247372000D03*
X44851000Y-246102000D03*
X44851000Y-244832000D03*
X44851000Y-243562000D03*
X44851000Y-242292000D03*
%TD*%
D15*
%TO.C,R19*%
X172720000Y-113062600D03*
X172720000Y-111062600D03*
%TD*%
D17*
%TO.C,C89*%
X87922500Y-62230000D03*
X84797500Y-62230000D03*
%TD*%
D15*
%TO.C,R36*%
X119380000Y-125460000D03*
X119380000Y-123460000D03*
%TD*%
%TO.C,R5*%
X37465000Y-196580000D03*
X37465000Y-194580000D03*
%TD*%
D21*
%TO.C,U17*%
X181165000Y-91292500D03*
X180515000Y-91292500D03*
X179865000Y-91292500D03*
X179215000Y-91292500D03*
X178565000Y-91292500D03*
X177915000Y-91292500D03*
X177265000Y-91292500D03*
X176615000Y-91292500D03*
X175965000Y-91292500D03*
X175315000Y-91292500D03*
X175315000Y-97017500D03*
X175965000Y-97017500D03*
X176615000Y-97017500D03*
X177265000Y-97017500D03*
X177915000Y-97017500D03*
X178565000Y-97017500D03*
X179215000Y-97017500D03*
X179865000Y-97017500D03*
X180515000Y-97017500D03*
X181165000Y-97017500D03*
%TD*%
D25*
%TO.C,R45*%
X117745000Y-152400000D03*
X119745000Y-152400000D03*
%TD*%
D26*
%TO.C,U35*%
X66710000Y-167102500D03*
X66210000Y-167102500D03*
X65710000Y-167102500D03*
X65210000Y-167102500D03*
X64710000Y-167102500D03*
X64210000Y-167102500D03*
X63710000Y-167102500D03*
X63210000Y-167102500D03*
X62710000Y-167102500D03*
X62210000Y-167102500D03*
X61710000Y-167102500D03*
X61210000Y-167102500D03*
X60710000Y-167102500D03*
X60210000Y-167102500D03*
X59710000Y-167102500D03*
X59210000Y-167102500D03*
X58710000Y-167102500D03*
X58210000Y-167102500D03*
X57710000Y-167102500D03*
X57210000Y-167102500D03*
X56710000Y-167102500D03*
X56210000Y-167102500D03*
X55710000Y-167102500D03*
X55210000Y-167102500D03*
X55210000Y-174527500D03*
X55710000Y-174527500D03*
X56210000Y-174527500D03*
X56710000Y-174527500D03*
X57210000Y-174527500D03*
X57710000Y-174527500D03*
X58210000Y-174527500D03*
X58710000Y-174527500D03*
X59210000Y-174527500D03*
X59710000Y-174527500D03*
X60210000Y-174527500D03*
X60710000Y-174527500D03*
X61210000Y-174527500D03*
X61710000Y-174527500D03*
X62210000Y-174527500D03*
X62710000Y-174527500D03*
X63210000Y-174527500D03*
X63710000Y-174527500D03*
X64210000Y-174527500D03*
X64710000Y-174527500D03*
X65210000Y-174527500D03*
X65710000Y-174527500D03*
X66210000Y-174527500D03*
X66710000Y-174527500D03*
%TD*%
D19*
%TO.C,C58*%
X116000000Y-135890000D03*
X118950000Y-135890000D03*
%TD*%
D15*
%TO.C,R15*%
X185420000Y-191500000D03*
X185420000Y-189500000D03*
%TD*%
D21*
%TO.C,U18*%
X170090000Y-91430000D03*
X169440000Y-91430000D03*
X168790000Y-91430000D03*
X168140000Y-91430000D03*
X167490000Y-91430000D03*
X166840000Y-91430000D03*
X166190000Y-91430000D03*
X165540000Y-91430000D03*
X164890000Y-91430000D03*
X164240000Y-91430000D03*
X164240000Y-97155000D03*
X164890000Y-97155000D03*
X165540000Y-97155000D03*
X166190000Y-97155000D03*
X166840000Y-97155000D03*
X167490000Y-97155000D03*
X168140000Y-97155000D03*
X168790000Y-97155000D03*
X169440000Y-97155000D03*
X170090000Y-97155000D03*
%TD*%
D15*
%TO.C,R13*%
X185420000Y-195834000D03*
X185420000Y-193834000D03*
%TD*%
D21*
%TO.C,U13*%
X182385000Y-101420000D03*
X181735000Y-101420000D03*
X181085000Y-101420000D03*
X180435000Y-101420000D03*
X179785000Y-101420000D03*
X179135000Y-101420000D03*
X178485000Y-101420000D03*
X177835000Y-101420000D03*
X177185000Y-101420000D03*
X176535000Y-101420000D03*
X176535000Y-107145000D03*
X177185000Y-107145000D03*
X177835000Y-107145000D03*
X178485000Y-107145000D03*
X179135000Y-107145000D03*
X179785000Y-107145000D03*
X180435000Y-107145000D03*
X181085000Y-107145000D03*
X181735000Y-107145000D03*
X182385000Y-107145000D03*
%TD*%
%TO.C,U20*%
X148090000Y-91430000D03*
X147440000Y-91430000D03*
X146790000Y-91430000D03*
X146140000Y-91430000D03*
X145490000Y-91430000D03*
X144840000Y-91430000D03*
X144190000Y-91430000D03*
X143540000Y-91430000D03*
X142890000Y-91430000D03*
X142240000Y-91430000D03*
X142240000Y-97155000D03*
X142890000Y-97155000D03*
X143540000Y-97155000D03*
X144190000Y-97155000D03*
X144840000Y-97155000D03*
X145490000Y-97155000D03*
X146140000Y-97155000D03*
X146790000Y-97155000D03*
X147440000Y-97155000D03*
X148090000Y-97155000D03*
%TD*%
D17*
%TO.C,C26*%
X164122500Y-168910000D03*
X160997500Y-168910000D03*
%TD*%
D18*
%TO.C,C48*%
X50479000Y-171587000D03*
X50479000Y-174712000D03*
%TD*%
D27*
%TO.C,U26*%
X68265000Y-153972500D03*
X70165000Y-153972500D03*
X69215000Y-152097500D03*
%TD*%
D17*
%TO.C,C85*%
X133935000Y-248920000D03*
X130810000Y-248920000D03*
%TD*%
D12*
%TO.C,C34*%
X155680000Y-119007400D03*
X155680000Y-115882400D03*
%TD*%
D15*
%TO.C,R59*%
X127635000Y-169275000D03*
X127635000Y-167275000D03*
%TD*%
D28*
%TO.C,C11*%
X174625000Y-102870000D03*
X174625000Y-105820000D03*
%TD*%
D19*
%TO.C,C59*%
X116000000Y-132080000D03*
X118950000Y-132080000D03*
%TD*%
D12*
%TO.C,C47*%
X70799000Y-175354500D03*
X70799000Y-172229500D03*
%TD*%
D29*
%TO.C,U23*%
X127322500Y-164215000D03*
X127322500Y-163565000D03*
X127322500Y-162915000D03*
X127322500Y-162265000D03*
X127322500Y-161615000D03*
X127322500Y-160965000D03*
X127322500Y-160315000D03*
X127322500Y-159665000D03*
X127322500Y-159015000D03*
X127322500Y-158365000D03*
X121597500Y-158365000D03*
X121597500Y-159015000D03*
X121597500Y-159665000D03*
X121597500Y-160315000D03*
X121597500Y-160965000D03*
X121597500Y-161615000D03*
X121597500Y-162265000D03*
X121597500Y-162915000D03*
X121597500Y-163565000D03*
X121597500Y-164215000D03*
%TD*%
D19*
%TO.C,C41*%
X64565000Y-106045000D03*
X67515000Y-106045000D03*
%TD*%
D18*
%TO.C,C33*%
X146671000Y-150331500D03*
X146671000Y-153456500D03*
%TD*%
D17*
%TO.C,C91*%
X181560000Y-166466000D03*
X178435000Y-166466000D03*
%TD*%
D28*
%TO.C,C77*%
X128270000Y-110920000D03*
X128270000Y-113870000D03*
%TD*%
D25*
%TO.C,R61*%
X70120000Y-157480000D03*
X72120000Y-157480000D03*
%TD*%
D26*
%TO.C,U21*%
X106869000Y-167004500D03*
X106369000Y-167004500D03*
X105869000Y-167004500D03*
X105369000Y-167004500D03*
X104869000Y-167004500D03*
X104369000Y-167004500D03*
X103869000Y-167004500D03*
X103369000Y-167004500D03*
X102869000Y-167004500D03*
X102369000Y-167004500D03*
X101869000Y-167004500D03*
X101369000Y-167004500D03*
X100869000Y-167004500D03*
X100369000Y-167004500D03*
X99869000Y-167004500D03*
X99369000Y-167004500D03*
X98869000Y-167004500D03*
X98369000Y-167004500D03*
X97869000Y-167004500D03*
X97369000Y-167004500D03*
X96869000Y-167004500D03*
X96369000Y-167004500D03*
X95869000Y-167004500D03*
X95369000Y-167004500D03*
X95369000Y-174429500D03*
X95869000Y-174429500D03*
X96369000Y-174429500D03*
X96869000Y-174429500D03*
X97369000Y-174429500D03*
X97869000Y-174429500D03*
X98369000Y-174429500D03*
X98869000Y-174429500D03*
X99369000Y-174429500D03*
X99869000Y-174429500D03*
X100369000Y-174429500D03*
X100869000Y-174429500D03*
X101369000Y-174429500D03*
X101869000Y-174429500D03*
X102369000Y-174429500D03*
X102869000Y-174429500D03*
X103369000Y-174429500D03*
X103869000Y-174429500D03*
X104369000Y-174429500D03*
X104869000Y-174429500D03*
X105369000Y-174429500D03*
X105869000Y-174429500D03*
X106369000Y-174429500D03*
X106869000Y-174429500D03*
%TD*%
D15*
%TO.C,R57*%
X193294000Y-86995000D03*
X193294000Y-84995000D03*
%TD*%
D17*
%TO.C,C88*%
X136182500Y-231775000D03*
X133057500Y-231775000D03*
%TD*%
D18*
%TO.C,C23*%
X146671000Y-142331500D03*
X146671000Y-145456500D03*
%TD*%
D28*
%TO.C,C70*%
X78105000Y-128065000D03*
X78105000Y-131015000D03*
%TD*%
D15*
%TO.C,R56*%
X128270000Y-134620000D03*
X128270000Y-132620000D03*
%TD*%
D16*
%TO.C,C82*%
X165442500Y-87630000D03*
X168567500Y-87630000D03*
%TD*%
D10*
%TO.C,U1*%
X53150000Y-93345000D03*
X53950000Y-93345000D03*
X54750000Y-93345000D03*
X55550000Y-93345000D03*
X56350000Y-93345000D03*
X57150000Y-93345000D03*
X57950000Y-93345000D03*
X58750000Y-93345000D03*
X59550000Y-93345000D03*
X60350000Y-93345000D03*
X61150000Y-93345000D03*
X61950000Y-93345000D03*
X62750000Y-93345000D03*
X63550000Y-93345000D03*
X64350000Y-93345000D03*
X65150000Y-93345000D03*
X65950000Y-93345000D03*
X66750000Y-93345000D03*
X67550000Y-93345000D03*
X68350000Y-93345000D03*
X69150000Y-93345000D03*
X69950000Y-93345000D03*
X69950000Y-83085000D03*
X69150000Y-83085000D03*
X68350000Y-83085000D03*
X67550000Y-83085000D03*
X66750000Y-83085000D03*
X65950000Y-83085000D03*
X65150000Y-83085000D03*
X64350000Y-83085000D03*
X63550000Y-83085000D03*
X62750000Y-83085000D03*
X61950000Y-83085000D03*
X61150000Y-83085000D03*
X60350000Y-83085000D03*
X59550000Y-83085000D03*
X58750000Y-83085000D03*
X57950000Y-83085000D03*
X57150000Y-83085000D03*
X56350000Y-83085000D03*
X55550000Y-83085000D03*
X54750000Y-83085000D03*
X53950000Y-83085000D03*
X53150000Y-83085000D03*
%TD*%
D15*
%TO.C,R23*%
X152170000Y-113472500D03*
X152170000Y-111472500D03*
%TD*%
D25*
%TO.C,R60*%
X83455000Y-163195000D03*
X85455000Y-163195000D03*
%TD*%
%TO.C,R38*%
X50800000Y-152400000D03*
X52800000Y-152400000D03*
%TD*%
%TO.C,R62*%
X36195000Y-184785000D03*
X38195000Y-184785000D03*
%TD*%
D18*
%TO.C,C17*%
X91119000Y-166442000D03*
X91119000Y-169567000D03*
%TD*%
D26*
%TO.C,U34*%
X86395000Y-167102500D03*
X85895000Y-167102500D03*
X85395000Y-167102500D03*
X84895000Y-167102500D03*
X84395000Y-167102500D03*
X83895000Y-167102500D03*
X83395000Y-167102500D03*
X82895000Y-167102500D03*
X82395000Y-167102500D03*
X81895000Y-167102500D03*
X81395000Y-167102500D03*
X80895000Y-167102500D03*
X80395000Y-167102500D03*
X79895000Y-167102500D03*
X79395000Y-167102500D03*
X78895000Y-167102500D03*
X78395000Y-167102500D03*
X77895000Y-167102500D03*
X77395000Y-167102500D03*
X76895000Y-167102500D03*
X76395000Y-167102500D03*
X75895000Y-167102500D03*
X75395000Y-167102500D03*
X74895000Y-167102500D03*
X74895000Y-174527500D03*
X75395000Y-174527500D03*
X75895000Y-174527500D03*
X76395000Y-174527500D03*
X76895000Y-174527500D03*
X77395000Y-174527500D03*
X77895000Y-174527500D03*
X78395000Y-174527500D03*
X78895000Y-174527500D03*
X79395000Y-174527500D03*
X79895000Y-174527500D03*
X80395000Y-174527500D03*
X80895000Y-174527500D03*
X81395000Y-174527500D03*
X81895000Y-174527500D03*
X82395000Y-174527500D03*
X82895000Y-174527500D03*
X83395000Y-174527500D03*
X83895000Y-174527500D03*
X84395000Y-174527500D03*
X84895000Y-174527500D03*
X85395000Y-174527500D03*
X85895000Y-174527500D03*
X86395000Y-174527500D03*
%TD*%
D30*
%TO.C,U48*%
X158365000Y-84777500D03*
X159015000Y-84777500D03*
X159665000Y-84777500D03*
X160315000Y-84777500D03*
X160965000Y-84777500D03*
X161615000Y-84777500D03*
X162265000Y-84777500D03*
X162915000Y-84777500D03*
X163565000Y-84777500D03*
X164215000Y-84777500D03*
X164215000Y-79052500D03*
X163565000Y-79052500D03*
X162915000Y-79052500D03*
X162265000Y-79052500D03*
X161615000Y-79052500D03*
X160965000Y-79052500D03*
X160315000Y-79052500D03*
X159665000Y-79052500D03*
X159015000Y-79052500D03*
X158365000Y-79052500D03*
%TD*%
D28*
%TO.C,C79*%
X134620000Y-110920000D03*
X134620000Y-113870000D03*
%TD*%
%TO.C,C67*%
X48260000Y-131875000D03*
X48260000Y-134825000D03*
%TD*%
D15*
%TO.C,R16*%
X159893000Y-118110000D03*
X159893000Y-116110000D03*
%TD*%
D19*
%TO.C,C74*%
X102284000Y-147124500D03*
X105234000Y-147124500D03*
%TD*%
D14*
%TO.C,R17*%
X139700000Y-111030000D03*
X139700000Y-113030000D03*
%TD*%
D31*
%TO.C,U22*%
X117152500Y-119040000D03*
X117152500Y-119690000D03*
X117152500Y-120340000D03*
X117152500Y-120990000D03*
X122877500Y-120990000D03*
X122877500Y-120340000D03*
X122877500Y-119690000D03*
X122877500Y-119040000D03*
%TD*%
D14*
%TO.C,R11*%
X143750000Y-111030000D03*
X143750000Y-113030000D03*
%TD*%
D32*
%TO.C,U28*%
X55377500Y-110175000D03*
X55377500Y-111125000D03*
X55377500Y-112075000D03*
X57652500Y-112075000D03*
X57652500Y-110175000D03*
%TD*%
D11*
%TO.C,C72*%
X48895000Y-119585000D03*
X48895000Y-116635000D03*
%TD*%
D21*
%TO.C,U15*%
X162310000Y-101482500D03*
X161660000Y-101482500D03*
X161010000Y-101482500D03*
X160360000Y-101482500D03*
X159710000Y-101482500D03*
X159060000Y-101482500D03*
X158410000Y-101482500D03*
X157760000Y-101482500D03*
X157110000Y-101482500D03*
X156460000Y-101482500D03*
X156460000Y-107207500D03*
X157110000Y-107207500D03*
X157760000Y-107207500D03*
X158410000Y-107207500D03*
X159060000Y-107207500D03*
X159710000Y-107207500D03*
X160360000Y-107207500D03*
X161010000Y-107207500D03*
X161660000Y-107207500D03*
X162310000Y-107207500D03*
%TD*%
D33*
%TO.C,U45*%
X201930000Y-163260000D03*
X200660000Y-163260000D03*
X199390000Y-163260000D03*
X198120000Y-163260000D03*
X196850000Y-163260000D03*
X195580000Y-163260000D03*
X194310000Y-163260000D03*
X194310000Y-168210000D03*
X195580000Y-168210000D03*
X196850000Y-168210000D03*
X198120000Y-168210000D03*
X199390000Y-168210000D03*
X200660000Y-168210000D03*
X201930000Y-168210000D03*
%TD*%
D25*
%TO.C,R6*%
X197120000Y-154940000D03*
X199120000Y-154940000D03*
%TD*%
%TO.C,R39*%
X50800000Y-154940000D03*
X52800000Y-154940000D03*
%TD*%
D15*
%TO.C,R26*%
X145520000Y-118714900D03*
X145520000Y-116714900D03*
%TD*%
D13*
%TO.C,R67*%
X38195000Y-170035000D03*
X36195000Y-170035000D03*
%TD*%
D19*
%TO.C,C65*%
X66900000Y-144145000D03*
X69850000Y-144145000D03*
%TD*%
D30*
%TO.C,U46*%
X82815000Y-108907500D03*
X83465000Y-108907500D03*
X84115000Y-108907500D03*
X84765000Y-108907500D03*
X85415000Y-108907500D03*
X86065000Y-108907500D03*
X86715000Y-108907500D03*
X87365000Y-108907500D03*
X87365000Y-103182500D03*
X86715000Y-103182500D03*
X86065000Y-103182500D03*
X85415000Y-103182500D03*
X84765000Y-103182500D03*
X84115000Y-103182500D03*
X83465000Y-103182500D03*
X82815000Y-103182500D03*
%TD*%
D12*
%TO.C,C2*%
X72835000Y-91732500D03*
X72835000Y-88607500D03*
%TD*%
D14*
%TO.C,R9*%
X120585000Y-166968500D03*
X120585000Y-168968500D03*
%TD*%
D13*
%TO.C,R47*%
X45815000Y-114075000D03*
X43815000Y-114075000D03*
%TD*%
D11*
%TO.C,C20*%
X83185000Y-160655000D03*
X83185000Y-157705000D03*
%TD*%
D14*
%TO.C,R18*%
X161980000Y-110990100D03*
X161980000Y-112990100D03*
%TD*%
D25*
%TO.C,R63*%
X36195000Y-181610000D03*
X38195000Y-181610000D03*
%TD*%
D14*
%TO.C,R20*%
X169430000Y-111062600D03*
X169430000Y-113062600D03*
%TD*%
D30*
%TO.C,U31*%
X121550000Y-139387500D03*
X122200000Y-139387500D03*
X122850000Y-139387500D03*
X123500000Y-139387500D03*
X124150000Y-139387500D03*
X124800000Y-139387500D03*
X125450000Y-139387500D03*
X126100000Y-139387500D03*
X126100000Y-133662500D03*
X125450000Y-133662500D03*
X124800000Y-133662500D03*
X124150000Y-133662500D03*
X123500000Y-133662500D03*
X122850000Y-133662500D03*
X122200000Y-133662500D03*
X121550000Y-133662500D03*
%TD*%
D12*
%TO.C,C24*%
X153671000Y-138019000D03*
X153671000Y-134894000D03*
%TD*%
D19*
%TO.C,C52*%
X84045000Y-130810000D03*
X86995000Y-130810000D03*
%TD*%
D25*
%TO.C,R44*%
X117745000Y-149225000D03*
X119745000Y-149225000D03*
%TD*%
D15*
%TO.C,R3*%
X34290000Y-229870000D03*
X34290000Y-227870000D03*
%TD*%
D30*
%TO.C,U38*%
X140585000Y-85100000D03*
X141235000Y-85100000D03*
X141885000Y-85100000D03*
X142535000Y-85100000D03*
X143185000Y-85100000D03*
X143835000Y-85100000D03*
X144485000Y-85100000D03*
X145135000Y-85100000D03*
X145785000Y-85100000D03*
X146435000Y-85100000D03*
X146435000Y-79375000D03*
X145785000Y-79375000D03*
X145135000Y-79375000D03*
X144485000Y-79375000D03*
X143835000Y-79375000D03*
X143185000Y-79375000D03*
X142535000Y-79375000D03*
X141885000Y-79375000D03*
X141235000Y-79375000D03*
X140585000Y-79375000D03*
%TD*%
D25*
%TO.C,R43*%
X87011000Y-154236500D03*
X89011000Y-154236500D03*
%TD*%
D19*
%TO.C,C78*%
X90092000Y-146616500D03*
X93042000Y-146616500D03*
%TD*%
D13*
%TO.C,R66*%
X38195000Y-172985000D03*
X36195000Y-172985000D03*
%TD*%
D14*
%TO.C,R34*%
X114300000Y-171085000D03*
X114300000Y-173085000D03*
%TD*%
D19*
%TO.C,C94*%
X58645000Y-106680000D03*
X61595000Y-106680000D03*
%TD*%
D18*
%TO.C,C36*%
X180021000Y-126721500D03*
X180021000Y-129846500D03*
%TD*%
D15*
%TO.C,R10*%
X170815000Y-118182000D03*
X170815000Y-116182000D03*
%TD*%
%TO.C,R22*%
X148880000Y-113472500D03*
X148880000Y-111472500D03*
%TD*%
D25*
%TO.C,R50*%
X182531000Y-154130000D03*
X184531000Y-154130000D03*
%TD*%
D34*
%TO.C,U36*%
X99651000Y-149791500D03*
X99651000Y-151061500D03*
X99651000Y-152331500D03*
X99651000Y-153601500D03*
X106851000Y-153601500D03*
X106851000Y-152331500D03*
X106851000Y-151061500D03*
X106851000Y-149791500D03*
%TD*%
D13*
%TO.C,R64*%
X38195000Y-178885000D03*
X36195000Y-178885000D03*
%TD*%
D15*
%TO.C,R24*%
X155460000Y-113472500D03*
X155460000Y-111472500D03*
%TD*%
D25*
%TO.C,R27*%
X109855000Y-159385000D03*
X111855000Y-159385000D03*
%TD*%
%TO.C,R28*%
X115840000Y-159385000D03*
X117840000Y-159385000D03*
%TD*%
D13*
%TO.C,R2*%
X124190000Y-179070000D03*
X122190000Y-179070000D03*
%TD*%
D22*
%TO.C,U12*%
X51948500Y-119520000D03*
X51948500Y-120020000D03*
X51948500Y-120520000D03*
X51948500Y-121020000D03*
X51948500Y-121520000D03*
X51948500Y-122020000D03*
X51948500Y-122520000D03*
X51948500Y-123020000D03*
X51948500Y-123520000D03*
X51948500Y-124020000D03*
X51948500Y-124520000D03*
X51948500Y-125020000D03*
X51948500Y-125520000D03*
X51948500Y-126020000D03*
X51948500Y-126520000D03*
X51948500Y-127020000D03*
X51948500Y-127520000D03*
X51948500Y-128020000D03*
X51948500Y-128520000D03*
X51948500Y-129020000D03*
X51948500Y-129520000D03*
X51948500Y-130020000D03*
X51948500Y-130520000D03*
X51948500Y-131020000D03*
X51948500Y-131520000D03*
X51948500Y-132020000D03*
X51948500Y-132520000D03*
X51948500Y-133020000D03*
X51948500Y-133520000D03*
X51948500Y-134020000D03*
X51948500Y-134520000D03*
X51948500Y-135020000D03*
X51948500Y-135520000D03*
X51948500Y-136020000D03*
X51948500Y-136520000D03*
X51948500Y-137020000D03*
D23*
X53861000Y-138932500D03*
X54361000Y-138932500D03*
X54861000Y-138932500D03*
X55361000Y-138932500D03*
X55861000Y-138932500D03*
X56361000Y-138932500D03*
X56861000Y-138932500D03*
X57361000Y-138932500D03*
X57861000Y-138932500D03*
X58361000Y-138932500D03*
X58861000Y-138932500D03*
X59361000Y-138932500D03*
X59861000Y-138932500D03*
X60361000Y-138932500D03*
X60861000Y-138932500D03*
X61361000Y-138932500D03*
X61861000Y-138932500D03*
X62361000Y-138932500D03*
X62861000Y-138932500D03*
X63361000Y-138932500D03*
X63861000Y-138932500D03*
X64361000Y-138932500D03*
X64861000Y-138932500D03*
X65361000Y-138932500D03*
X65861000Y-138932500D03*
X66361000Y-138932500D03*
X66861000Y-138932500D03*
X67361000Y-138932500D03*
X67861000Y-138932500D03*
X68361000Y-138932500D03*
X68861000Y-138932500D03*
X69361000Y-138932500D03*
X69861000Y-138932500D03*
X70361000Y-138932500D03*
X70861000Y-138932500D03*
X71361000Y-138932500D03*
D22*
X73273500Y-137020000D03*
X73273500Y-136520000D03*
X73273500Y-136020000D03*
X73273500Y-135520000D03*
X73273500Y-135020000D03*
X73273500Y-134520000D03*
X73273500Y-134020000D03*
X73273500Y-133520000D03*
X73273500Y-133020000D03*
X73273500Y-132520000D03*
X73273500Y-132020000D03*
X73273500Y-131520000D03*
X73273500Y-131020000D03*
X73273500Y-130520000D03*
X73273500Y-130020000D03*
X73273500Y-129520000D03*
X73273500Y-129020000D03*
X73273500Y-128520000D03*
X73273500Y-128020000D03*
X73273500Y-127520000D03*
X73273500Y-127020000D03*
X73273500Y-126520000D03*
X73273500Y-126020000D03*
X73273500Y-125520000D03*
X73273500Y-125020000D03*
X73273500Y-124520000D03*
X73273500Y-124020000D03*
X73273500Y-123520000D03*
X73273500Y-123020000D03*
X73273500Y-122520000D03*
X73273500Y-122020000D03*
X73273500Y-121520000D03*
X73273500Y-121020000D03*
X73273500Y-120520000D03*
X73273500Y-120020000D03*
X73273500Y-119520000D03*
D23*
X71361000Y-117607500D03*
X70861000Y-117607500D03*
X70361000Y-117607500D03*
X69861000Y-117607500D03*
X69361000Y-117607500D03*
X68861000Y-117607500D03*
X68361000Y-117607500D03*
X67861000Y-117607500D03*
X67361000Y-117607500D03*
X66861000Y-117607500D03*
X66361000Y-117607500D03*
X65861000Y-117607500D03*
X65361000Y-117607500D03*
X64861000Y-117607500D03*
X64361000Y-117607500D03*
X63861000Y-117607500D03*
X63361000Y-117607500D03*
X62861000Y-117607500D03*
X62361000Y-117607500D03*
X61861000Y-117607500D03*
X61361000Y-117607500D03*
X60861000Y-117607500D03*
X60361000Y-117607500D03*
X59861000Y-117607500D03*
X59361000Y-117607500D03*
X58861000Y-117607500D03*
X58361000Y-117607500D03*
X57861000Y-117607500D03*
X57361000Y-117607500D03*
X56861000Y-117607500D03*
X56361000Y-117607500D03*
X55861000Y-117607500D03*
X55361000Y-117607500D03*
X54861000Y-117607500D03*
X54361000Y-117607500D03*
X53861000Y-117607500D03*
%TD*%
D18*
%TO.C,C16*%
X91119000Y-172442000D03*
X91119000Y-175567000D03*
%TD*%
D11*
%TO.C,C84*%
X109855000Y-151970000D03*
X109855000Y-149020000D03*
%TD*%
D31*
%TO.C,U43*%
X122867500Y-99960000D03*
X122867500Y-100610000D03*
X122867500Y-101260000D03*
X122867500Y-101910000D03*
X122867500Y-102560000D03*
X122867500Y-103210000D03*
X122867500Y-103860000D03*
X122867500Y-104510000D03*
X128592500Y-104510000D03*
X128592500Y-103860000D03*
X128592500Y-103210000D03*
X128592500Y-102560000D03*
X128592500Y-101910000D03*
X128592500Y-101260000D03*
X128592500Y-100610000D03*
X128592500Y-99960000D03*
%TD*%
D30*
%TO.C,U42*%
X121815000Y-148277500D03*
X122465000Y-148277500D03*
X123115000Y-148277500D03*
X123765000Y-148277500D03*
X124415000Y-148277500D03*
X125065000Y-148277500D03*
X125715000Y-148277500D03*
X126365000Y-148277500D03*
X126365000Y-142552500D03*
X125715000Y-142552500D03*
X125065000Y-142552500D03*
X124415000Y-142552500D03*
X123765000Y-142552500D03*
X123115000Y-142552500D03*
X122465000Y-142552500D03*
X121815000Y-142552500D03*
%TD*%
D18*
%TO.C,C22*%
X120585000Y-172014500D03*
X120585000Y-175139500D03*
%TD*%
D11*
%TO.C,C14*%
X142875000Y-105820000D03*
X142875000Y-102870000D03*
%TD*%
%TO.C,C76*%
X86360000Y-122760000D03*
X86360000Y-119810000D03*
%TD*%
D19*
%TO.C,C69*%
X56310000Y-144145000D03*
X59260000Y-144145000D03*
%TD*%
D15*
%TO.C,R58*%
X195834000Y-86995000D03*
X195834000Y-84995000D03*
%TD*%
D11*
%TO.C,C42*%
X52705000Y-108995000D03*
X52705000Y-106045000D03*
%TD*%
D13*
%TO.C,R65*%
X38195000Y-175935000D03*
X36195000Y-175935000D03*
%TD*%
D21*
%TO.C,U19*%
X159090000Y-91555000D03*
X158440000Y-91555000D03*
X157790000Y-91555000D03*
X157140000Y-91555000D03*
X156490000Y-91555000D03*
X155840000Y-91555000D03*
X155190000Y-91555000D03*
X154540000Y-91555000D03*
X153890000Y-91555000D03*
X153240000Y-91555000D03*
X153240000Y-97280000D03*
X153890000Y-97280000D03*
X154540000Y-97280000D03*
X155190000Y-97280000D03*
X155840000Y-97280000D03*
X156490000Y-97280000D03*
X157140000Y-97280000D03*
X157790000Y-97280000D03*
X158440000Y-97280000D03*
X159090000Y-97280000D03*
%TD*%
D18*
%TO.C,C27*%
X153671000Y-150331500D03*
X153671000Y-153456500D03*
%TD*%
D25*
%TO.C,R49*%
X182531000Y-151130000D03*
X184531000Y-151130000D03*
%TD*%
%TO.C,R55*%
X77405000Y-153220500D03*
X79405000Y-153220500D03*
%TD*%
D17*
%TO.C,C86*%
X116813600Y-210185000D03*
X113688600Y-210185000D03*
%TD*%
D35*
%TO.C,C80*%
X89027000Y-150172500D03*
X86077000Y-150172500D03*
%TD*%
D15*
%TO.C,R14*%
X163893000Y-118110000D03*
X163893000Y-116110000D03*
%TD*%
D19*
%TO.C,C40*%
X109015000Y-146050000D03*
X111965000Y-146050000D03*
%TD*%
D32*
%TO.C,U29*%
X111257500Y-153990000D03*
X111257500Y-154940000D03*
X111257500Y-155890000D03*
X113532500Y-155890000D03*
X113532500Y-153990000D03*
%TD*%
D19*
%TO.C,C71*%
X74090000Y-114300000D03*
X77040000Y-114300000D03*
%TD*%
D21*
%TO.C,U24*%
X80268000Y-157470000D03*
X79618000Y-157470000D03*
X78968000Y-157470000D03*
X78318000Y-157470000D03*
X77668000Y-157470000D03*
X77018000Y-157470000D03*
X76368000Y-157470000D03*
X75718000Y-157470000D03*
X75068000Y-157470000D03*
X74418000Y-157470000D03*
X74418000Y-163195000D03*
X75068000Y-163195000D03*
X75718000Y-163195000D03*
X76368000Y-163195000D03*
X77018000Y-163195000D03*
X77668000Y-163195000D03*
X78318000Y-163195000D03*
X78968000Y-163195000D03*
X79618000Y-163195000D03*
X80268000Y-163195000D03*
%TD*%
D30*
%TO.C,U27*%
X87626000Y-163195000D03*
X88276000Y-163195000D03*
X88926000Y-163195000D03*
X89576000Y-163195000D03*
X90226000Y-163195000D03*
X90876000Y-163195000D03*
X91526000Y-163195000D03*
X92176000Y-163195000D03*
X92826000Y-163195000D03*
X93476000Y-163195000D03*
X93476000Y-157470000D03*
X92826000Y-157470000D03*
X92176000Y-157470000D03*
X91526000Y-157470000D03*
X90876000Y-157470000D03*
X90226000Y-157470000D03*
X89576000Y-157470000D03*
X88926000Y-157470000D03*
X88276000Y-157470000D03*
X87626000Y-157470000D03*
%TD*%
D18*
%TO.C,C30*%
X161671000Y-134894000D03*
X161671000Y-138019000D03*
%TD*%
%TO.C,C25*%
X140440000Y-115882400D03*
X140440000Y-119007400D03*
%TD*%
D25*
%TO.C,R54*%
X134525000Y-100965000D03*
X136525000Y-100965000D03*
%TD*%
%TO.C,R53*%
X117110000Y-139700000D03*
X119110000Y-139700000D03*
%TD*%
D28*
%TO.C,C50*%
X116205000Y-123620000D03*
X116205000Y-126570000D03*
%TD*%
D15*
%TO.C,R25*%
X158750000Y-113472500D03*
X158750000Y-111472500D03*
%TD*%
D30*
%TO.C,U39*%
X149475000Y-84777500D03*
X150125000Y-84777500D03*
X150775000Y-84777500D03*
X151425000Y-84777500D03*
X152075000Y-84777500D03*
X152725000Y-84777500D03*
X153375000Y-84777500D03*
X154025000Y-84777500D03*
X154675000Y-84777500D03*
X155325000Y-84777500D03*
X155325000Y-79052500D03*
X154675000Y-79052500D03*
X154025000Y-79052500D03*
X153375000Y-79052500D03*
X152725000Y-79052500D03*
X152075000Y-79052500D03*
X151425000Y-79052500D03*
X150775000Y-79052500D03*
X150125000Y-79052500D03*
X149475000Y-79052500D03*
%TD*%
D19*
%TO.C,C51*%
X84045000Y-126365000D03*
X86995000Y-126365000D03*
%TD*%
D25*
%TO.C,R40*%
X50800000Y-157480000D03*
X52800000Y-157480000D03*
%TD*%
D12*
%TO.C,C4*%
X116650000Y-91732500D03*
X116650000Y-88607500D03*
%TD*%
D19*
%TO.C,C18*%
X124255000Y-151130000D03*
X127205000Y-151130000D03*
%TD*%
D18*
%TO.C,C49*%
X50479000Y-165587000D03*
X50479000Y-168712000D03*
%TD*%
D34*
%TO.C,U32*%
X64345000Y-109220000D03*
X64345000Y-110490000D03*
X64345000Y-111760000D03*
X64345000Y-113030000D03*
X71545000Y-113030000D03*
X71545000Y-111760000D03*
X71545000Y-110490000D03*
X71545000Y-109220000D03*
%TD*%
D30*
%TO.C,U49*%
X167255000Y-84777500D03*
X167905000Y-84777500D03*
X168555000Y-84777500D03*
X169205000Y-84777500D03*
X169855000Y-84777500D03*
X170505000Y-84777500D03*
X171155000Y-84777500D03*
X171805000Y-84777500D03*
X172455000Y-84777500D03*
X173105000Y-84777500D03*
X173105000Y-79052500D03*
X172455000Y-79052500D03*
X171805000Y-79052500D03*
X171155000Y-79052500D03*
X170505000Y-79052500D03*
X169855000Y-79052500D03*
X169205000Y-79052500D03*
X168555000Y-79052500D03*
X167905000Y-79052500D03*
X167255000Y-79052500D03*
%TD*%
D35*
%TO.C,C19*%
X84614000Y-154786500D03*
X81664000Y-154786500D03*
%TD*%
D12*
%TO.C,C96*%
X179324000Y-87287500D03*
X179324000Y-84162500D03*
%TD*%
D17*
%TO.C,C95*%
X158407500Y-87630000D03*
X155282500Y-87630000D03*
%TD*%
D25*
%TO.C,R8*%
X197120000Y-158750000D03*
X199120000Y-158750000D03*
%TD*%
D15*
%TO.C,R31*%
X111760000Y-168640000D03*
X111760000Y-166640000D03*
%TD*%
D17*
%TO.C,C92*%
X181560000Y-163116000D03*
X178435000Y-163116000D03*
%TD*%
D25*
%TO.C,R33*%
X112030000Y-175260000D03*
X114030000Y-175260000D03*
%TD*%
D35*
%TO.C,C68*%
X51640000Y-113030000D03*
X48690000Y-113030000D03*
%TD*%
D10*
%TO.C,U2*%
X76225000Y-93345000D03*
X77025000Y-93345000D03*
X77825000Y-93345000D03*
X78625000Y-93345000D03*
X79425000Y-93345000D03*
X80225000Y-93345000D03*
X81025000Y-93345000D03*
X81825000Y-93345000D03*
X82625000Y-93345000D03*
X83425000Y-93345000D03*
X84225000Y-93345000D03*
X85025000Y-93345000D03*
X85825000Y-93345000D03*
X86625000Y-93345000D03*
X87425000Y-93345000D03*
X88225000Y-93345000D03*
X89025000Y-93345000D03*
X89825000Y-93345000D03*
X90625000Y-93345000D03*
X91425000Y-93345000D03*
X92225000Y-93345000D03*
X93025000Y-93345000D03*
X93025000Y-83085000D03*
X92225000Y-83085000D03*
X91425000Y-83085000D03*
X90625000Y-83085000D03*
X89825000Y-83085000D03*
X89025000Y-83085000D03*
X88225000Y-83085000D03*
X87425000Y-83085000D03*
X86625000Y-83085000D03*
X85825000Y-83085000D03*
X85025000Y-83085000D03*
X84225000Y-83085000D03*
X83425000Y-83085000D03*
X82625000Y-83085000D03*
X81825000Y-83085000D03*
X81025000Y-83085000D03*
X80225000Y-83085000D03*
X79425000Y-83085000D03*
X78625000Y-83085000D03*
X77825000Y-83085000D03*
X77025000Y-83085000D03*
X76225000Y-83085000D03*
%TD*%
D19*
%TO.C,C66*%
X77265000Y-120015000D03*
X80215000Y-120015000D03*
%TD*%
D30*
%TO.C,U41*%
X74560000Y-108907500D03*
X75210000Y-108907500D03*
X75860000Y-108907500D03*
X76510000Y-108907500D03*
X77160000Y-108907500D03*
X77810000Y-108907500D03*
X78460000Y-108907500D03*
X79110000Y-108907500D03*
X79110000Y-103182500D03*
X78460000Y-103182500D03*
X77810000Y-103182500D03*
X77160000Y-103182500D03*
X76510000Y-103182500D03*
X75860000Y-103182500D03*
X75210000Y-103182500D03*
X74560000Y-103182500D03*
%TD*%
D13*
%TO.C,R51*%
X45815000Y-111760000D03*
X43815000Y-111760000D03*
%TD*%
M02*
