%TF.GenerationSoftware,KiCad,Pcbnew,8.0.7-1.fc41*%
%TF.CreationDate,2025-01-31T15:29:51-06:00*%
%TF.ProjectId,for_real_486,666f725f-7265-4616-9c5f-3438362e6b69,rev?*%
%TF.SameCoordinates,Original*%
%TF.FileFunction,Soldermask,Bot*%
%TF.FilePolarity,Negative*%
%FSLAX46Y46*%
G04 Gerber Fmt 4.6, Leading zero omitted, Abs format (unit mm)*
G04 Created by KiCad (PCBNEW 8.0.7-1.fc41) date 2025-01-31 15:29:51*
%MOMM*%
%LPD*%
G01*
G04 APERTURE LIST*
%ADD10R,1.700000X1.700000*%
%ADD11O,1.700000X1.700000*%
%ADD12R,1.600000X1.600000*%
%ADD13C,1.600000*%
%ADD14O,1.600000X1.600000*%
%ADD15R,1.600000X2.400000*%
%ADD16O,1.600000X2.400000*%
%ADD17C,7.000000*%
%ADD18O,1.500000X2.000000*%
%ADD19C,1.500000*%
%ADD20R,1.500000X1.500000*%
%ADD21O,1.500000X1.500000*%
%ADD22R,2.000000X1.905000*%
%ADD23O,2.000000X1.905000*%
%ADD24O,3.500000X2.000000*%
%ADD25O,2.000000X4.000000*%
%ADD26R,1.200000X1.200000*%
%ADD27C,1.200000*%
%ADD28R,1.800000X1.800000*%
%ADD29C,1.800000*%
%ADD30R,2.400000X1.600000*%
%ADD31O,2.400000X1.600000*%
%ADD32C,2.500000*%
%ADD33R,1.524000X1.524000*%
%ADD34C,1.524000*%
%ADD35C,3.500000*%
%ADD36C,1.000000*%
%ADD37O,2.500000X5.000000*%
G04 APERTURE END LIST*
D10*
%TO.C,J34*%
X40005000Y-208915000D03*
D11*
X42545000Y-208915000D03*
X45085000Y-208915000D03*
%TD*%
D12*
%TO.C,C43*%
X181610000Y-139129900D03*
D13*
X181610000Y-141629900D03*
%TD*%
D10*
%TO.C,J28*%
X184785000Y-74930000D03*
D11*
X187325000Y-74930000D03*
X189865000Y-74930000D03*
X192405000Y-74930000D03*
X194945000Y-74930000D03*
X197485000Y-74930000D03*
X200025000Y-74930000D03*
%TD*%
D12*
%TO.C,C29*%
X132777000Y-171450000D03*
D13*
X130277000Y-171450000D03*
%TD*%
D10*
%TO.C,J16*%
X60579000Y-151765000D03*
D11*
X60579000Y-154305000D03*
X60579000Y-156845000D03*
%TD*%
D13*
%TO.C,R41*%
X51594000Y-161290000D03*
D14*
X61754000Y-161290000D03*
%TD*%
D15*
%TO.C,U6*%
X137795000Y-187960000D03*
D16*
X140335000Y-187960000D03*
X142875000Y-187960000D03*
X145415000Y-187960000D03*
X147955000Y-187960000D03*
X150495000Y-187960000D03*
X153035000Y-187960000D03*
X155575000Y-187960000D03*
X158115000Y-187960000D03*
X160655000Y-187960000D03*
X163195000Y-187960000D03*
X165735000Y-187960000D03*
X168275000Y-187960000D03*
X170815000Y-187960000D03*
X173355000Y-187960000D03*
X175895000Y-187960000D03*
X175895000Y-172720000D03*
X173355000Y-172720000D03*
X170815000Y-172720000D03*
X168275000Y-172720000D03*
X165735000Y-172720000D03*
X163195000Y-172720000D03*
X160655000Y-172720000D03*
X158115000Y-172720000D03*
X155575000Y-172720000D03*
X153035000Y-172720000D03*
X150495000Y-172720000D03*
X147955000Y-172720000D03*
X145415000Y-172720000D03*
X142875000Y-172720000D03*
X140335000Y-172720000D03*
X137795000Y-172720000D03*
%TD*%
D17*
%TO.C,H3*%
X193802000Y-62484000D03*
%TD*%
D10*
%TO.C,J8*%
X179055000Y-111125000D03*
D11*
X181595000Y-111125000D03*
%TD*%
D18*
%TO.C,J20*%
X51816000Y-224282000D03*
X54356000Y-224282000D03*
X56896000Y-224282000D03*
X59436000Y-224282000D03*
X61976000Y-224282000D03*
X64516000Y-224282000D03*
X67056000Y-224282000D03*
X69596000Y-224282000D03*
X72136000Y-224282000D03*
X74676000Y-224282000D03*
X77216000Y-224282000D03*
X79756000Y-224282000D03*
X82296000Y-224282000D03*
X84836000Y-224282000D03*
X87376000Y-224282000D03*
X89916000Y-224282000D03*
X92456000Y-224282000D03*
X94996000Y-224282000D03*
X97536000Y-224282000D03*
X100076000Y-224282000D03*
X102616000Y-224282000D03*
X105156000Y-224282000D03*
X107696000Y-224282000D03*
X110236000Y-224282000D03*
X112776000Y-224282000D03*
X115316000Y-224282000D03*
X117856000Y-224282000D03*
X120396000Y-224282000D03*
X122936000Y-224282000D03*
X125476000Y-224282000D03*
X128016000Y-224282000D03*
X51816000Y-219202000D03*
X54356000Y-219202000D03*
X56896000Y-219202000D03*
X59436000Y-219202000D03*
X61976000Y-219202000D03*
X64516000Y-219202000D03*
X67056000Y-219202000D03*
X69596000Y-219202000D03*
X72136000Y-219202000D03*
X74676000Y-219202000D03*
X77216000Y-219202000D03*
X79756000Y-219202000D03*
X82296000Y-219202000D03*
X84836000Y-219202000D03*
X87376000Y-219202000D03*
X89916000Y-219202000D03*
X92456000Y-219202000D03*
X94996000Y-219202000D03*
X97536000Y-219202000D03*
X100076000Y-219202000D03*
X102616000Y-219202000D03*
X105156000Y-219202000D03*
X107696000Y-219202000D03*
X110236000Y-219202000D03*
X112776000Y-219202000D03*
X115316000Y-219202000D03*
X117856000Y-219202000D03*
X120396000Y-219202000D03*
X122936000Y-219202000D03*
X125476000Y-219202000D03*
X128016000Y-219202000D03*
X138176000Y-224282000D03*
X140716000Y-224282000D03*
X143256000Y-224282000D03*
X145796000Y-224282000D03*
X148336000Y-224282000D03*
X150876000Y-224282000D03*
X153416000Y-224282000D03*
X155956000Y-224282000D03*
X158496000Y-224282000D03*
X161036000Y-224282000D03*
X163576000Y-224282000D03*
X166116000Y-224282000D03*
X168656000Y-224282000D03*
X171196000Y-224282000D03*
X173736000Y-224282000D03*
X176276000Y-224282000D03*
X178816000Y-224282000D03*
X181356000Y-224282000D03*
X138176000Y-219202000D03*
X140716000Y-219202000D03*
X143256000Y-219202000D03*
X145796000Y-219202000D03*
X148336000Y-219202000D03*
X150876000Y-219202000D03*
X153416000Y-219202000D03*
X155956000Y-219202000D03*
X158496000Y-219202000D03*
X161036000Y-219202000D03*
X163576000Y-219202000D03*
X166116000Y-219202000D03*
X168656000Y-219202000D03*
X171196000Y-219202000D03*
X173736000Y-219202000D03*
X176276000Y-219202000D03*
X178816000Y-219202000D03*
X181356000Y-219202000D03*
%TD*%
D13*
%TO.C,R70*%
X116840000Y-155575000D03*
D14*
X127000000Y-155575000D03*
%TD*%
D18*
%TO.C,J22*%
X51816000Y-264922000D03*
X54356000Y-264922000D03*
X56896000Y-264922000D03*
X59436000Y-264922000D03*
X61976000Y-264922000D03*
X64516000Y-264922000D03*
X67056000Y-264922000D03*
X69596000Y-264922000D03*
X72136000Y-264922000D03*
X74676000Y-264922000D03*
X77216000Y-264922000D03*
X79756000Y-264922000D03*
X82296000Y-264922000D03*
X84836000Y-264922000D03*
X87376000Y-264922000D03*
X89916000Y-264922000D03*
X92456000Y-264922000D03*
X94996000Y-264922000D03*
X97536000Y-264922000D03*
X100076000Y-264922000D03*
X102616000Y-264922000D03*
X105156000Y-264922000D03*
X107696000Y-264922000D03*
X110236000Y-264922000D03*
X112776000Y-264922000D03*
X115316000Y-264922000D03*
X117856000Y-264922000D03*
X120396000Y-264922000D03*
X122936000Y-264922000D03*
X125476000Y-264922000D03*
X128016000Y-264922000D03*
X51816000Y-259842000D03*
X54356000Y-259842000D03*
X56896000Y-259842000D03*
X59436000Y-259842000D03*
X61976000Y-259842000D03*
X64516000Y-259842000D03*
X67056000Y-259842000D03*
X69596000Y-259842000D03*
X72136000Y-259842000D03*
X74676000Y-259842000D03*
X77216000Y-259842000D03*
X79756000Y-259842000D03*
X82296000Y-259842000D03*
X84836000Y-259842000D03*
X87376000Y-259842000D03*
X89916000Y-259842000D03*
X92456000Y-259842000D03*
X94996000Y-259842000D03*
X97536000Y-259842000D03*
X100076000Y-259842000D03*
X102616000Y-259842000D03*
X105156000Y-259842000D03*
X107696000Y-259842000D03*
X110236000Y-259842000D03*
X112776000Y-259842000D03*
X115316000Y-259842000D03*
X117856000Y-259842000D03*
X120396000Y-259842000D03*
X122936000Y-259842000D03*
X125476000Y-259842000D03*
X128016000Y-259842000D03*
X138176000Y-264922000D03*
X140716000Y-264922000D03*
X143256000Y-264922000D03*
X145796000Y-264922000D03*
X148336000Y-264922000D03*
X150876000Y-264922000D03*
X153416000Y-264922000D03*
X155956000Y-264922000D03*
X158496000Y-264922000D03*
X161036000Y-264922000D03*
X163576000Y-264922000D03*
X166116000Y-264922000D03*
X168656000Y-264922000D03*
X171196000Y-264922000D03*
X173736000Y-264922000D03*
X176276000Y-264922000D03*
X178816000Y-264922000D03*
X181356000Y-264922000D03*
X138176000Y-259842000D03*
X140716000Y-259842000D03*
X143256000Y-259842000D03*
X145796000Y-259842000D03*
X148336000Y-259842000D03*
X150876000Y-259842000D03*
X153416000Y-259842000D03*
X155956000Y-259842000D03*
X158496000Y-259842000D03*
X161036000Y-259842000D03*
X163576000Y-259842000D03*
X166116000Y-259842000D03*
X168656000Y-259842000D03*
X171196000Y-259842000D03*
X173736000Y-259842000D03*
X176276000Y-259842000D03*
X178816000Y-259842000D03*
X181356000Y-259842000D03*
%TD*%
D15*
%TO.C,U7*%
X29205000Y-129530000D03*
D16*
X31745000Y-129530000D03*
X34285000Y-129530000D03*
X36825000Y-129530000D03*
X39365000Y-129530000D03*
X41905000Y-129530000D03*
X44445000Y-129530000D03*
X44445000Y-121910000D03*
X41905000Y-121910000D03*
X39365000Y-121910000D03*
X36825000Y-121910000D03*
X34285000Y-121910000D03*
X31745000Y-121910000D03*
X29205000Y-121910000D03*
%TD*%
D13*
%TO.C,R35*%
X92075000Y-105410000D03*
D14*
X92075000Y-115570000D03*
%TD*%
D13*
%TO.C,R37*%
X76835000Y-137795000D03*
D14*
X86995000Y-137795000D03*
%TD*%
D12*
%TO.C,C98*%
X132080000Y-210820000D03*
D13*
X134580000Y-210820000D03*
%TD*%
D12*
%TO.C,C38*%
X127000000Y-127064900D03*
D13*
X127000000Y-129564900D03*
%TD*%
%TO.C,R1*%
X30089000Y-232312000D03*
D14*
X30089000Y-242472000D03*
%TD*%
D12*
%TO.C,C62*%
X127824000Y-120650000D03*
D13*
X127824000Y-118150000D03*
%TD*%
D19*
%TO.C,Y1*%
X39370000Y-146045000D03*
X34470000Y-146045000D03*
%TD*%
D10*
%TO.C,J15*%
X56007000Y-151780000D03*
D11*
X56007000Y-154320000D03*
X56007000Y-156860000D03*
%TD*%
D12*
%TO.C,C53*%
X80709900Y-149156500D03*
D13*
X83209900Y-149156500D03*
%TD*%
D12*
%TO.C,C87*%
X122236100Y-208344900D03*
D13*
X122236100Y-210844900D03*
%TD*%
%TO.C,C6*%
X40005000Y-82590000D03*
X40005000Y-87590000D03*
%TD*%
D10*
%TO.C,J23*%
X71120000Y-182880000D03*
D11*
X73660000Y-182880000D03*
X76200000Y-182880000D03*
X78740000Y-182880000D03*
X81280000Y-182880000D03*
X83820000Y-182880000D03*
%TD*%
D17*
%TO.C,H5*%
X38862000Y-219964000D03*
%TD*%
D13*
%TO.C,C9*%
X51395000Y-59690000D03*
X46395000Y-59690000D03*
%TD*%
D12*
%TO.C,C54*%
X79212500Y-124460000D03*
D13*
X81712500Y-124460000D03*
%TD*%
D10*
%TO.C,J2*%
X130810000Y-179070000D03*
D11*
X130810000Y-181610000D03*
X130810000Y-184150000D03*
%TD*%
D20*
%TO.C,D1*%
X84455000Y-133985000D03*
D21*
X76835000Y-133985000D03*
%TD*%
D10*
%TO.C,J10*%
X90170000Y-182880000D03*
D11*
X92710000Y-182880000D03*
X95250000Y-182880000D03*
X97790000Y-182880000D03*
X100330000Y-182880000D03*
X102870000Y-182880000D03*
X105410000Y-182880000D03*
X107950000Y-182880000D03*
X110490000Y-182880000D03*
X113030000Y-182880000D03*
X115570000Y-182880000D03*
X118110000Y-182880000D03*
X120650000Y-182880000D03*
X123190000Y-182880000D03*
%TD*%
D22*
%TO.C,U40*%
X188595000Y-154940000D03*
D23*
X188595000Y-157480000D03*
X188595000Y-160020000D03*
%TD*%
D12*
%TO.C,C61*%
X94615000Y-152015400D03*
D13*
X94615000Y-154515400D03*
%TD*%
%TO.C,C57*%
X123190000Y-113625000D03*
X123190000Y-108625000D03*
%TD*%
D10*
%TO.C,J9*%
X90170000Y-186690000D03*
D11*
X92710000Y-186690000D03*
X95250000Y-186690000D03*
X97790000Y-186690000D03*
X100330000Y-186690000D03*
X102870000Y-186690000D03*
X105410000Y-186690000D03*
X107950000Y-186690000D03*
X110490000Y-186690000D03*
X113030000Y-186690000D03*
X115570000Y-186690000D03*
X118110000Y-186690000D03*
X120650000Y-186690000D03*
X123190000Y-186690000D03*
%TD*%
D12*
%TO.C,C55*%
X80074900Y-115570000D03*
D13*
X82574900Y-115570000D03*
%TD*%
%TO.C,R30*%
X64135000Y-154236500D03*
D14*
X64135000Y-144076500D03*
%TD*%
D13*
%TO.C,R46*%
X73660000Y-154305000D03*
D14*
X73660000Y-144145000D03*
%TD*%
D20*
%TO.C,D3*%
X115565000Y-129540000D03*
D21*
X123185000Y-129540000D03*
%TD*%
D13*
%TO.C,R42*%
X118745000Y-102235000D03*
D14*
X118745000Y-112395000D03*
%TD*%
D13*
%TO.C,R7*%
X34691000Y-237847000D03*
D14*
X44851000Y-237847000D03*
%TD*%
D13*
%TO.C,C64*%
X86995000Y-116800000D03*
X86995000Y-111800000D03*
%TD*%
D12*
%TO.C,J6*%
X32525000Y-85345000D03*
D13*
X32525000Y-82745000D03*
X32525000Y-87445000D03*
X32525000Y-80645000D03*
X35325000Y-87445000D03*
X35325000Y-80645000D03*
D24*
X29675000Y-77195000D03*
D25*
X28875000Y-84045000D03*
D24*
X29675000Y-90895000D03*
%TD*%
D13*
%TO.C,R68*%
X48260000Y-229235000D03*
D14*
X38100000Y-229235000D03*
%TD*%
D26*
%TO.C,C97*%
X174327600Y-88265000D03*
D27*
X172327600Y-88265000D03*
%TD*%
D10*
%TO.C,J32*%
X99568000Y-193040000D03*
D11*
X102108000Y-193040000D03*
X104648000Y-193040000D03*
X107188000Y-193040000D03*
X109728000Y-193040000D03*
X112268000Y-193040000D03*
X114808000Y-193040000D03*
X117348000Y-193040000D03*
X119888000Y-193040000D03*
X122428000Y-193040000D03*
X124968000Y-193040000D03*
X127508000Y-193040000D03*
X130048000Y-193040000D03*
X132588000Y-193040000D03*
X135128000Y-193040000D03*
X137668000Y-193040000D03*
X140208000Y-193040000D03*
X142748000Y-193040000D03*
X145288000Y-193040000D03*
X147828000Y-193040000D03*
X150368000Y-193040000D03*
X152908000Y-193040000D03*
%TD*%
D12*
%TO.C,C45*%
X180975000Y-123959100D03*
D13*
X180975000Y-121459100D03*
%TD*%
D28*
%TO.C,D2*%
X45085000Y-140970000D03*
D29*
X45085000Y-138430000D03*
%TD*%
D18*
%TO.C,J21*%
X51816000Y-244602000D03*
X54356000Y-244602000D03*
X56896000Y-244602000D03*
X59436000Y-244602000D03*
X61976000Y-244602000D03*
X64516000Y-244602000D03*
X67056000Y-244602000D03*
X69596000Y-244602000D03*
X72136000Y-244602000D03*
X74676000Y-244602000D03*
X77216000Y-244602000D03*
X79756000Y-244602000D03*
X82296000Y-244602000D03*
X84836000Y-244602000D03*
X87376000Y-244602000D03*
X89916000Y-244602000D03*
X92456000Y-244602000D03*
X94996000Y-244602000D03*
X97536000Y-244602000D03*
X100076000Y-244602000D03*
X102616000Y-244602000D03*
X105156000Y-244602000D03*
X107696000Y-244602000D03*
X110236000Y-244602000D03*
X112776000Y-244602000D03*
X115316000Y-244602000D03*
X117856000Y-244602000D03*
X120396000Y-244602000D03*
X122936000Y-244602000D03*
X125476000Y-244602000D03*
X128016000Y-244602000D03*
X51816000Y-239522000D03*
X54356000Y-239522000D03*
X56896000Y-239522000D03*
X59436000Y-239522000D03*
X61976000Y-239522000D03*
X64516000Y-239522000D03*
X67056000Y-239522000D03*
X69596000Y-239522000D03*
X72136000Y-239522000D03*
X74676000Y-239522000D03*
X77216000Y-239522000D03*
X79756000Y-239522000D03*
X82296000Y-239522000D03*
X84836000Y-239522000D03*
X87376000Y-239522000D03*
X89916000Y-239522000D03*
X92456000Y-239522000D03*
X94996000Y-239522000D03*
X97536000Y-239522000D03*
X100076000Y-239522000D03*
X102616000Y-239522000D03*
X105156000Y-239522000D03*
X107696000Y-239522000D03*
X110236000Y-239522000D03*
X112776000Y-239522000D03*
X115316000Y-239522000D03*
X117856000Y-239522000D03*
X120396000Y-239522000D03*
X122936000Y-239522000D03*
X125476000Y-239522000D03*
X128016000Y-239522000D03*
X138176000Y-244602000D03*
X140716000Y-244602000D03*
X143256000Y-244602000D03*
X145796000Y-244602000D03*
X148336000Y-244602000D03*
X150876000Y-244602000D03*
X153416000Y-244602000D03*
X155956000Y-244602000D03*
X158496000Y-244602000D03*
X161036000Y-244602000D03*
X163576000Y-244602000D03*
X166116000Y-244602000D03*
X168656000Y-244602000D03*
X171196000Y-244602000D03*
X173736000Y-244602000D03*
X176276000Y-244602000D03*
X178816000Y-244602000D03*
X181356000Y-244602000D03*
X138176000Y-239522000D03*
X140716000Y-239522000D03*
X143256000Y-239522000D03*
X145796000Y-239522000D03*
X148336000Y-239522000D03*
X150876000Y-239522000D03*
X153416000Y-239522000D03*
X155956000Y-239522000D03*
X158496000Y-239522000D03*
X161036000Y-239522000D03*
X163576000Y-239522000D03*
X166116000Y-239522000D03*
X168656000Y-239522000D03*
X171196000Y-239522000D03*
X173736000Y-239522000D03*
X176276000Y-239522000D03*
X178816000Y-239522000D03*
X181356000Y-239522000D03*
%TD*%
D17*
%TO.C,H1*%
X62230000Y-62484000D03*
%TD*%
D12*
%TO.C,C99*%
X132906888Y-254635000D03*
D13*
X135406888Y-254635000D03*
%TD*%
D10*
%TO.C,J5*%
X202565000Y-142250000D03*
D11*
X202565000Y-144790000D03*
X202565000Y-147330000D03*
X202565000Y-149870000D03*
%TD*%
D10*
%TO.C,J11*%
X124649000Y-173355000D03*
D11*
X124649000Y-170815000D03*
X124649000Y-168275000D03*
%TD*%
D12*
%TO.C,X1*%
X97790000Y-113665000D03*
D13*
X113030000Y-113665000D03*
X113030000Y-106045000D03*
X97790000Y-106045000D03*
%TD*%
D30*
%TO.C,U9*%
X29210000Y-154300000D03*
D31*
X29210000Y-156840000D03*
X29210000Y-159380000D03*
X29210000Y-161920000D03*
X29210000Y-164460000D03*
X29210000Y-167000000D03*
X29210000Y-169540000D03*
X29210000Y-172080000D03*
X29210000Y-174620000D03*
X29210000Y-177160000D03*
X29210000Y-179700000D03*
X29210000Y-182240000D03*
X29210000Y-184780000D03*
X29210000Y-187320000D03*
X29210000Y-189860000D03*
X29210000Y-192400000D03*
X29210000Y-194940000D03*
X29210000Y-197480000D03*
X29210000Y-200020000D03*
X29210000Y-202560000D03*
X44450000Y-202560000D03*
X44450000Y-200020000D03*
X44450000Y-197480000D03*
X44450000Y-194940000D03*
X44450000Y-192400000D03*
X44450000Y-189860000D03*
X44450000Y-187320000D03*
X44450000Y-184780000D03*
X44450000Y-182240000D03*
X44450000Y-179700000D03*
X44450000Y-177160000D03*
X44450000Y-174620000D03*
X44450000Y-172080000D03*
X44450000Y-169540000D03*
X44450000Y-167000000D03*
X44450000Y-164460000D03*
X44450000Y-161920000D03*
X44450000Y-159380000D03*
X44450000Y-156840000D03*
X44450000Y-154300000D03*
%TD*%
D32*
%TO.C,J26*%
X195335000Y-102426000D03*
X195335000Y-106626000D03*
X195335000Y-110826000D03*
X195335000Y-115026000D03*
X195335000Y-119226000D03*
X195335000Y-123426000D03*
X195335000Y-127626000D03*
X195335000Y-131826000D03*
X195335000Y-136026000D03*
X195335000Y-140226000D03*
X195335000Y-144426000D03*
X195335000Y-148626000D03*
X191135000Y-102426000D03*
X191135000Y-106626000D03*
X191135000Y-110826000D03*
X191135000Y-115026000D03*
X191135000Y-119226000D03*
X191135000Y-123426000D03*
X191135000Y-127626000D03*
X191135000Y-131826000D03*
X191135000Y-136026000D03*
X191135000Y-140226000D03*
X191135000Y-144426000D03*
X191135000Y-148626000D03*
%TD*%
D10*
%TO.C,J14*%
X179055000Y-113665000D03*
D11*
X181595000Y-113665000D03*
%TD*%
D10*
%TO.C,J25*%
X128270000Y-107950000D03*
D11*
X130810000Y-107950000D03*
X133350000Y-107950000D03*
X135890000Y-107950000D03*
%TD*%
D13*
%TO.C,C8*%
X29210000Y-150245000D03*
X29210000Y-145245000D03*
%TD*%
D28*
%TO.C,D5*%
X189230000Y-96520000D03*
D29*
X189230000Y-93980000D03*
%TD*%
D12*
%TO.C,J4*%
X32525000Y-66930000D03*
D13*
X32525000Y-64330000D03*
X32525000Y-69030000D03*
X32525000Y-62230000D03*
X35325000Y-69030000D03*
X35325000Y-62230000D03*
D24*
X29675000Y-58780000D03*
D25*
X28875000Y-65630000D03*
D24*
X29675000Y-72480000D03*
%TD*%
D13*
%TO.C,C56*%
X76875000Y-141605000D03*
X81875000Y-141605000D03*
%TD*%
D10*
%TO.C,J33*%
X50800000Y-193040000D03*
D11*
X53340000Y-193040000D03*
X55880000Y-193040000D03*
X58420000Y-193040000D03*
X60960000Y-193040000D03*
X63500000Y-193040000D03*
X66040000Y-193040000D03*
X68580000Y-193040000D03*
X71120000Y-193040000D03*
X73660000Y-193040000D03*
X76200000Y-193040000D03*
X78740000Y-193040000D03*
X81280000Y-193040000D03*
X83820000Y-193040000D03*
X86360000Y-193040000D03*
X88900000Y-193040000D03*
%TD*%
D28*
%TO.C,D4*%
X67310000Y-159824500D03*
D29*
X64770000Y-159824500D03*
%TD*%
D10*
%TO.C,J30*%
X69850000Y-58420000D03*
D11*
X72390000Y-58420000D03*
X74930000Y-58420000D03*
X77470000Y-58420000D03*
X80010000Y-58420000D03*
X82550000Y-58420000D03*
X85090000Y-58420000D03*
X87630000Y-58420000D03*
X90170000Y-58420000D03*
X92710000Y-58420000D03*
X95250000Y-58420000D03*
X97790000Y-58420000D03*
X100330000Y-58420000D03*
X102870000Y-58420000D03*
X105410000Y-58420000D03*
X107950000Y-58420000D03*
X110490000Y-58420000D03*
X113030000Y-58420000D03*
X115570000Y-58420000D03*
X118110000Y-58420000D03*
X120650000Y-58420000D03*
X123190000Y-58420000D03*
X125730000Y-58420000D03*
X128270000Y-58420000D03*
X130810000Y-58420000D03*
X133350000Y-58420000D03*
X135890000Y-58420000D03*
X138430000Y-58420000D03*
X140970000Y-58420000D03*
X143510000Y-58420000D03*
X146050000Y-58420000D03*
X148590000Y-58420000D03*
X151130000Y-58420000D03*
X153670000Y-58420000D03*
%TD*%
D13*
%TO.C,C5*%
X44450000Y-151125000D03*
X44450000Y-146125000D03*
%TD*%
D10*
%TO.C,J18*%
X104679000Y-157792500D03*
D11*
X104679000Y-160332500D03*
X104679000Y-162872500D03*
%TD*%
D10*
%TO.C,J27*%
X133345000Y-104140000D03*
D11*
X135885000Y-104140000D03*
%TD*%
D18*
%TO.C,J7*%
X51816000Y-203962000D03*
X54356000Y-203962000D03*
X56896000Y-203962000D03*
X59436000Y-203962000D03*
X61976000Y-203962000D03*
X64516000Y-203962000D03*
X67056000Y-203962000D03*
X69596000Y-203962000D03*
X72136000Y-203962000D03*
X74676000Y-203962000D03*
X77216000Y-203962000D03*
X79756000Y-203962000D03*
X82296000Y-203962000D03*
X84836000Y-203962000D03*
X87376000Y-203962000D03*
X89916000Y-203962000D03*
X92456000Y-203962000D03*
X94996000Y-203962000D03*
X97536000Y-203962000D03*
X100076000Y-203962000D03*
X102616000Y-203962000D03*
X105156000Y-203962000D03*
X107696000Y-203962000D03*
X110236000Y-203962000D03*
X112776000Y-203962000D03*
X115316000Y-203962000D03*
X117856000Y-203962000D03*
X120396000Y-203962000D03*
X122936000Y-203962000D03*
X125476000Y-203962000D03*
X128016000Y-203962000D03*
X51816000Y-198882000D03*
X54356000Y-198882000D03*
X56896000Y-198882000D03*
X59436000Y-198882000D03*
X61976000Y-198882000D03*
X64516000Y-198882000D03*
X67056000Y-198882000D03*
X69596000Y-198882000D03*
X72136000Y-198882000D03*
X74676000Y-198882000D03*
X77216000Y-198882000D03*
X79756000Y-198882000D03*
X82296000Y-198882000D03*
X84836000Y-198882000D03*
X87376000Y-198882000D03*
X89916000Y-198882000D03*
X92456000Y-198882000D03*
X94996000Y-198882000D03*
X97536000Y-198882000D03*
X100076000Y-198882000D03*
X102616000Y-198882000D03*
X105156000Y-198882000D03*
X107696000Y-198882000D03*
X110236000Y-198882000D03*
X112776000Y-198882000D03*
X115316000Y-198882000D03*
X117856000Y-198882000D03*
X120396000Y-198882000D03*
X122936000Y-198882000D03*
X125476000Y-198882000D03*
X128016000Y-198882000D03*
X138176000Y-203962000D03*
X140716000Y-203962000D03*
X143256000Y-203962000D03*
X145796000Y-203962000D03*
X148336000Y-203962000D03*
X150876000Y-203962000D03*
X153416000Y-203962000D03*
X155956000Y-203962000D03*
X158496000Y-203962000D03*
X161036000Y-203962000D03*
X163576000Y-203962000D03*
X166116000Y-203962000D03*
X168656000Y-203962000D03*
X171196000Y-203962000D03*
X173736000Y-203962000D03*
X176276000Y-203962000D03*
X178816000Y-203962000D03*
X181356000Y-203962000D03*
X138176000Y-198882000D03*
X140716000Y-198882000D03*
X143256000Y-198882000D03*
X145796000Y-198882000D03*
X148336000Y-198882000D03*
X150876000Y-198882000D03*
X153416000Y-198882000D03*
X155956000Y-198882000D03*
X158496000Y-198882000D03*
X161036000Y-198882000D03*
X163576000Y-198882000D03*
X166116000Y-198882000D03*
X168656000Y-198882000D03*
X171196000Y-198882000D03*
X173736000Y-198882000D03*
X176276000Y-198882000D03*
X178816000Y-198882000D03*
X181356000Y-198882000D03*
%TD*%
D10*
%TO.C,J29*%
X200152000Y-89496500D03*
D11*
X200152000Y-86956500D03*
X200152000Y-84416500D03*
X200152000Y-81876500D03*
%TD*%
D10*
%TO.C,J17*%
X98679000Y-157792500D03*
D11*
X98679000Y-160332500D03*
X98679000Y-162872500D03*
%TD*%
D33*
%TO.C,J19*%
X40017500Y-102545000D03*
D34*
X40017500Y-105045000D03*
X40017500Y-107045000D03*
X40017500Y-109545000D03*
D35*
X37307500Y-99475000D03*
X37307500Y-112615000D03*
%TD*%
D10*
%TO.C,J24*%
X184404000Y-86360000D03*
D11*
X186944000Y-86360000D03*
X189484000Y-86360000D03*
%TD*%
D13*
%TO.C,R4*%
X34691000Y-234037000D03*
D14*
X44851000Y-234037000D03*
%TD*%
D17*
%TO.C,H6*%
X193802000Y-219964000D03*
%TD*%
D12*
%TO.C,U10*%
X189860000Y-173350000D03*
D14*
X189860000Y-175890000D03*
X189860000Y-178430000D03*
X189860000Y-180970000D03*
X189860000Y-183510000D03*
X189860000Y-186050000D03*
X189860000Y-188590000D03*
X189860000Y-191130000D03*
X189860000Y-193670000D03*
X189860000Y-196210000D03*
X189860000Y-198750000D03*
X189860000Y-201290000D03*
X205100000Y-201290000D03*
X205100000Y-198750000D03*
X205100000Y-196210000D03*
X205100000Y-193670000D03*
X205100000Y-191130000D03*
X205100000Y-188590000D03*
X205100000Y-186050000D03*
X205100000Y-183510000D03*
X205100000Y-180970000D03*
X205100000Y-178430000D03*
X205100000Y-175890000D03*
X205100000Y-173350000D03*
%TD*%
D10*
%TO.C,J31*%
X45720000Y-83185000D03*
D11*
X45720000Y-85725000D03*
X45720000Y-88265000D03*
X45720000Y-90805000D03*
X45720000Y-93345000D03*
X45720000Y-95885000D03*
X45720000Y-98425000D03*
X45720000Y-100965000D03*
X45720000Y-103505000D03*
X45720000Y-106045000D03*
%TD*%
D10*
%TO.C,J13*%
X111760000Y-162560000D03*
D11*
X114300000Y-162560000D03*
X116840000Y-162560000D03*
%TD*%
D34*
%TO.C,U25*%
X173943500Y-164214000D03*
X171403500Y-164214000D03*
X168863500Y-164214000D03*
X166323500Y-164214000D03*
X163783500Y-164214000D03*
X161243500Y-164214000D03*
X158703500Y-164214000D03*
X156163500Y-164214000D03*
X153623500Y-164214000D03*
X151083500Y-164214000D03*
X148543500Y-164214000D03*
X146003500Y-164214000D03*
X143463500Y-164214000D03*
X140923500Y-164214000D03*
X138383500Y-164214000D03*
X135843500Y-164214000D03*
X133303500Y-164214000D03*
X173943500Y-161674000D03*
X171403500Y-161674000D03*
X168863500Y-161674000D03*
X166323500Y-161674000D03*
X163783500Y-161674000D03*
X161243500Y-161674000D03*
X158703500Y-161674000D03*
X156163500Y-161674000D03*
X153623500Y-161674000D03*
X151083500Y-161674000D03*
X148543500Y-161674000D03*
X146003500Y-161674000D03*
X143463500Y-161674000D03*
X140923500Y-161674000D03*
X138383500Y-161674000D03*
X135843500Y-161674000D03*
X133303500Y-161674000D03*
X173943500Y-159134000D03*
X171403500Y-159134000D03*
X168863500Y-159134000D03*
X166323500Y-159134000D03*
X163783500Y-159134000D03*
X161243500Y-159134000D03*
X158703500Y-159134000D03*
X156163500Y-159134000D03*
X153623500Y-159134000D03*
X151083500Y-159134000D03*
X148543500Y-159134000D03*
X146003500Y-159134000D03*
X143463500Y-159134000D03*
X140923500Y-159134000D03*
X138383500Y-159134000D03*
X135843500Y-159134000D03*
X133303500Y-159134000D03*
X173943500Y-156594000D03*
X171403500Y-156594000D03*
X168863500Y-156594000D03*
X138383500Y-156594000D03*
X135843500Y-156594000D03*
X133303500Y-156594000D03*
X173943500Y-154054000D03*
X171403500Y-154054000D03*
X168863500Y-154054000D03*
X138383500Y-154054000D03*
X135843500Y-154054000D03*
X133303500Y-154054000D03*
X173943500Y-151514000D03*
X171403500Y-151514000D03*
X168863500Y-151514000D03*
X138383500Y-151514000D03*
X135843500Y-151514000D03*
X133303500Y-151514000D03*
X173943500Y-148974000D03*
X171403500Y-148974000D03*
X168863500Y-148974000D03*
X138383500Y-148974000D03*
X135843500Y-148974000D03*
X133303500Y-148974000D03*
X173943500Y-146434000D03*
X171403500Y-146434000D03*
X168863500Y-146434000D03*
X138383500Y-146434000D03*
X135843500Y-146434000D03*
X133303500Y-146434000D03*
X173943500Y-143894000D03*
X171403500Y-143894000D03*
X168863500Y-143894000D03*
X138383500Y-143894000D03*
X135843500Y-143894000D03*
X133303500Y-143894000D03*
X173943500Y-141354000D03*
X171403500Y-141354000D03*
X168863500Y-141354000D03*
X138383500Y-141354000D03*
X135843500Y-141354000D03*
X133303500Y-141354000D03*
X173943500Y-138814000D03*
X171403500Y-138814000D03*
X168863500Y-138814000D03*
X138383500Y-138814000D03*
X135843500Y-138814000D03*
X133303500Y-138814000D03*
X173943500Y-136274000D03*
X171403500Y-136274000D03*
X168863500Y-136274000D03*
X138383500Y-136274000D03*
X135843500Y-136274000D03*
X133303500Y-136274000D03*
X173943500Y-133734000D03*
X171403500Y-133734000D03*
X168863500Y-133734000D03*
X138383500Y-133734000D03*
X135843500Y-133734000D03*
X133303500Y-133734000D03*
X173943500Y-131194000D03*
X171403500Y-131194000D03*
X168863500Y-131194000D03*
X138383500Y-131194000D03*
X135843500Y-131194000D03*
X133303500Y-131194000D03*
X173943500Y-128654000D03*
X171403500Y-128654000D03*
X168863500Y-128654000D03*
X166323500Y-128654000D03*
X163783500Y-128654000D03*
X161243500Y-128654000D03*
X158703500Y-128654000D03*
X156163500Y-128654000D03*
X153623500Y-128654000D03*
X151083500Y-128654000D03*
X148543500Y-128654000D03*
X146003500Y-128654000D03*
X143463500Y-128654000D03*
X140923500Y-128654000D03*
X138383500Y-128654000D03*
X135843500Y-128654000D03*
X133303500Y-128654000D03*
X173943500Y-126114000D03*
X171403500Y-126114000D03*
X168863500Y-126114000D03*
X166323500Y-126114000D03*
X163783500Y-126114000D03*
X161243500Y-126114000D03*
X158703500Y-126114000D03*
X156163500Y-126114000D03*
X153623500Y-126114000D03*
X151083500Y-126114000D03*
X148543500Y-126114000D03*
X146003500Y-126114000D03*
X143463500Y-126114000D03*
X140923500Y-126114000D03*
X138383500Y-126114000D03*
X135843500Y-126114000D03*
X133303500Y-126114000D03*
X173943500Y-123574000D03*
X171403500Y-123574000D03*
X168863500Y-123574000D03*
X166323500Y-123574000D03*
X163783500Y-123574000D03*
X161243500Y-123574000D03*
X158703500Y-123574000D03*
X156163500Y-123574000D03*
X153623500Y-123574000D03*
X151083500Y-123574000D03*
X148543500Y-123574000D03*
X146003500Y-123574000D03*
X143463500Y-123574000D03*
X140923500Y-123574000D03*
X138383500Y-123574000D03*
X135843500Y-123574000D03*
X133303500Y-123574000D03*
%TD*%
D12*
%TO.C,C60*%
X53340000Y-147955000D03*
D13*
X50840000Y-147955000D03*
%TD*%
D10*
%TO.C,J12*%
X181595000Y-116205000D03*
D11*
X179055000Y-116205000D03*
X176515000Y-116205000D03*
%TD*%
D13*
%TO.C,C63*%
X132120000Y-117475000D03*
X137120000Y-117475000D03*
%TD*%
%TO.C,C7*%
X40005000Y-90210000D03*
X40005000Y-95210000D03*
%TD*%
%TO.C,R69*%
X66040000Y-99060000D03*
D14*
X76200000Y-99060000D03*
%TD*%
D13*
%TO.C,C10*%
X38775000Y-59690000D03*
X43775000Y-59690000D03*
%TD*%
D36*
%TO.C,Y2*%
X28311000Y-244866000D03*
X30851000Y-244866000D03*
%TD*%
D10*
%TO.C,J3*%
X117475000Y-168275000D03*
D11*
X117475000Y-170815000D03*
X117475000Y-173355000D03*
%TD*%
D35*
%TO.C,BT1*%
X199390000Y-243840000D03*
X199390000Y-264160000D03*
%TD*%
D37*
%TO.C,U33*%
X66675000Y-70866000D03*
X109855000Y-70866000D03*
D34*
X53340000Y-73787000D03*
X52070000Y-71882000D03*
X55880000Y-73787000D03*
X54610000Y-71882000D03*
X58420000Y-73787000D03*
X57150000Y-71882000D03*
X60960000Y-73787000D03*
X59690000Y-71882000D03*
X63500000Y-73787000D03*
X62230000Y-71882000D03*
X71120000Y-73787000D03*
X69850000Y-71882000D03*
X73660000Y-73787000D03*
X72390000Y-71882000D03*
X76200000Y-73787000D03*
X74930000Y-71882000D03*
X78740000Y-73787000D03*
X77470000Y-71882000D03*
X81280000Y-73787000D03*
X80010000Y-71882000D03*
X83820000Y-73787000D03*
X82550000Y-71882000D03*
X86360000Y-73787000D03*
X85090000Y-71882000D03*
X88900000Y-73787000D03*
X87630000Y-71882000D03*
X91440000Y-73787000D03*
X90170000Y-71882000D03*
X93980000Y-73787000D03*
X92710000Y-71882000D03*
X96520000Y-73787000D03*
X95250000Y-71882000D03*
X99060000Y-73787000D03*
X97790000Y-71882000D03*
X101600000Y-73787000D03*
X100330000Y-71882000D03*
X104140000Y-73787000D03*
X102870000Y-71882000D03*
X106680000Y-73787000D03*
X105410000Y-71882000D03*
X114300000Y-73787000D03*
X113030000Y-71882000D03*
X116840000Y-73787000D03*
X115570000Y-71882000D03*
X119380000Y-73787000D03*
X118110000Y-71882000D03*
X121920000Y-73787000D03*
X120650000Y-71882000D03*
X124460000Y-73787000D03*
X123190000Y-71882000D03*
X127000000Y-73787000D03*
X125730000Y-71882000D03*
X129540000Y-73787000D03*
X128270000Y-71882000D03*
X132080000Y-73787000D03*
X130810000Y-71882000D03*
X134620000Y-73787000D03*
X133350000Y-71882000D03*
X137160000Y-73787000D03*
X135890000Y-71882000D03*
X139700000Y-73787000D03*
X138430000Y-71882000D03*
X142240000Y-73787000D03*
X140970000Y-71882000D03*
X144780000Y-73787000D03*
X143510000Y-71882000D03*
X147320000Y-73787000D03*
X146050000Y-71882000D03*
X149860000Y-73787000D03*
X148590000Y-71882000D03*
X152400000Y-73787000D03*
X151130000Y-71882000D03*
X154940000Y-73787000D03*
X153670000Y-71882000D03*
X157480000Y-73787000D03*
X156210000Y-71882000D03*
X160020000Y-73787000D03*
X158750000Y-71882000D03*
X162560000Y-73787000D03*
X161290000Y-71882000D03*
X165100000Y-73787000D03*
X163830000Y-71882000D03*
X167640000Y-73787000D03*
X166370000Y-71882000D03*
X52070000Y-68072000D03*
X53340000Y-69977000D03*
X54610000Y-68072000D03*
X55880000Y-69977000D03*
X57150000Y-68072000D03*
X58420000Y-69977000D03*
X59690000Y-68072000D03*
X60960000Y-69977000D03*
X62230000Y-68072000D03*
X63500000Y-69977000D03*
X69850000Y-68072000D03*
X71120000Y-69977000D03*
X72390000Y-68072000D03*
X73660000Y-69977000D03*
X74930000Y-68072000D03*
X76200000Y-69977000D03*
X77470000Y-68072000D03*
X78740000Y-69977000D03*
X80010000Y-68072000D03*
X81280000Y-69977000D03*
X82550000Y-68072000D03*
X83820000Y-69977000D03*
X85090000Y-68072000D03*
X86360000Y-69977000D03*
X87630000Y-68072000D03*
X88900000Y-69977000D03*
X90170000Y-68072000D03*
X91440000Y-69977000D03*
X92710000Y-68072000D03*
X93980000Y-69977000D03*
X95250000Y-68072000D03*
X96520000Y-69977000D03*
X97790000Y-68072000D03*
X99060000Y-69977000D03*
X100330000Y-68072000D03*
X101600000Y-69977000D03*
X102870000Y-68072000D03*
X104140000Y-69977000D03*
X105410000Y-68072000D03*
X106680000Y-69977000D03*
X113030000Y-68072000D03*
X114300000Y-69977000D03*
X115570000Y-68072000D03*
X116840000Y-69977000D03*
X118110000Y-68072000D03*
X119380000Y-69977000D03*
X120650000Y-68072000D03*
X121920000Y-69977000D03*
X123190000Y-68072000D03*
X124460000Y-69977000D03*
X125730000Y-68072000D03*
X127000000Y-69977000D03*
X128270000Y-68072000D03*
X129540000Y-69977000D03*
X130810000Y-68072000D03*
X132080000Y-69977000D03*
X133350000Y-68072000D03*
X134620000Y-69977000D03*
X135890000Y-68072000D03*
X137160000Y-69977000D03*
X138430000Y-68072000D03*
X139700000Y-69977000D03*
X140970000Y-68072000D03*
X142240000Y-69977000D03*
X143510000Y-68072000D03*
X144780000Y-69977000D03*
X146050000Y-68072000D03*
X147320000Y-69977000D03*
X148590000Y-68072000D03*
X149860000Y-69977000D03*
X151130000Y-68072000D03*
X152400000Y-69977000D03*
X153670000Y-68072000D03*
X154940000Y-69977000D03*
X156210000Y-68072000D03*
X157480000Y-69977000D03*
X158750000Y-68072000D03*
X160020000Y-69977000D03*
X161290000Y-68072000D03*
X162560000Y-69977000D03*
X163830000Y-68072000D03*
X165100000Y-69977000D03*
X166370000Y-68072000D03*
X167640000Y-69977000D03*
%TD*%
D10*
%TO.C,J1*%
X200660000Y-210185000D03*
D11*
X203200000Y-210185000D03*
X200660000Y-212725000D03*
X203200000Y-212725000D03*
X200660000Y-215265000D03*
X203200000Y-215265000D03*
X200660000Y-217805000D03*
X203200000Y-217805000D03*
X200660000Y-220345000D03*
X203200000Y-220345000D03*
X200660000Y-222885000D03*
X203200000Y-222885000D03*
X200660000Y-225425000D03*
X203200000Y-225425000D03*
X200660000Y-227965000D03*
X203200000Y-227965000D03*
%TD*%
M02*
