M48
; DRILL file {KiCad 8.0.7-1.fc41} date 2025-01-31T15:29:48-0600
; FORMAT={-:-/ absolute / inch / decimal}
; #@! TF.CreationDate,2025-01-31T15:29:48-06:00
; #@! TF.GenerationSoftware,Kicad,Pcbnew,8.0.7-1.fc41
; #@! TF.FileFunction,Plated,1,6,PTH
FMAT,2
INCH
; #@! TA.AperFunction,Plated,PTH,ViaDrill
T1C0.0118
; #@! TA.AperFunction,Plated,PTH,ComponentDrill
T2C0.0197
; #@! TA.AperFunction,Plated,PTH,ComponentDrill
T3C0.0236
; #@! TA.AperFunction,Plated,PTH,ComponentDrill
T4C0.0295
; #@! TA.AperFunction,Plated,PTH,ComponentDrill
T5C0.0300
; #@! TA.AperFunction,Plated,PTH,ComponentDrill
T6C0.0315
; #@! TA.AperFunction,Plated,PTH,ComponentDrill
T7C0.0354
; #@! TA.AperFunction,Plated,PTH,ComponentDrill
T8C0.0362
; #@! TA.AperFunction,Plated,PTH,ComponentDrill
T9C0.0394
; #@! TA.AperFunction,Plated,PTH,ComponentDrill
T10C0.0433
; #@! TA.AperFunction,Plated,PTH,ComponentDrill
T11C0.0591
; #@! TA.AperFunction,Plated,PTH,ComponentDrill
T12C0.0787
; #@! TA.AperFunction,Plated,PTH,ComponentDrill
T13C0.0906
; #@! TA.AperFunction,Plated,PTH,ComponentDrill
T14C0.1378
%
G90
G05
T1
X1.2881Y-5.9302
X1.326Y-5.192
X1.334Y-7.786
X1.38Y-9.2896
X1.4079Y-7.2085
X1.418Y-6.624
X1.429Y-10.0815
X1.4291Y-10.13
X1.4296Y-10.0391
X1.5078Y-7.1024
X1.5106Y-7.2089
X1.5475Y-7.0254
X1.551Y-5.3184
X1.5586Y-6.7398
X1.5945Y-6.6779
X1.607Y-4.8813
X1.6513Y-6.9271
X1.7157Y-4.6255
X1.7618Y-4.562
X1.7684Y-5.679
X1.8183Y-5.2773
X1.8289Y-9.8375
X1.8296Y-9.5891
X1.8297Y-10.181
X1.8548Y-9.5544
X1.8787Y-8.3391
X1.8911Y-5.1341
X1.8943Y-8.3084
X1.9041Y-7.5931
X1.914Y-6.692
X1.9169Y-4.3698
X1.9354Y-4.813
X1.9638Y-7.4118
X1.9707Y-5.1487
X1.9775Y-5.215
X1.98Y-6.0546
X1.9875Y-5.3819
X1.9949Y-4.8667
X1.9962Y-5.1679
X1.9963Y-5.1196
X1.9964Y-5.2429
X1.998Y-4.9636
X2.0074Y-5.4311
X2.0098Y-5.5586
X2.0173Y-4.2457
X2.0211Y-5.5971
X2.0323Y-9.4896
X2.0584Y-6.6376
X2.0752Y-6.6832
X2.0756Y-6.5248
X2.0833Y-5.5123
X2.0942Y-4.7644
X2.0943Y-5.3572
X2.0944Y-5.3209
X2.0946Y-5.4414
X2.0974Y-5.175
X2.1012Y-5.2672
X2.1044Y-4.8982
X2.1066Y-5.0249
X2.1074Y-4.8027
X2.1156Y-5.0789
X2.1183Y-3.8667
X2.1325Y-4.3632
X2.1329Y-5.5797
X2.1331Y-4.4544
X2.1343Y-4.5214
X2.1354Y-4.2811
X2.1433Y-6.339
X2.1478Y-6.8969
X2.1483Y-5.3222
X2.1518Y-5.1202
X2.152Y-4.5484
X2.1555Y-3.6056
X2.1589Y-3.796
X2.1629Y-4.5018
X2.1632Y-5.2616
X2.1664Y-6.5293
X2.1713Y-4.745
X2.1855Y-5.1983
X2.1906Y-7.5467
X2.1931Y-4.5715
X2.1947Y-6.3934
X2.1959Y-4.9029
X2.1984Y-4.4449
X2.2195Y-6.5248
X2.2259Y-3.3433
X2.2343Y-5.2978
X2.2386Y-5.3905
X2.2429Y-6.4328
X2.2494Y-5.8552
X2.25Y-5.6166
X2.25Y-3.6027
X2.2569Y-5.2745
X2.257Y-4.5313
X2.2582Y-3.3457
X2.2653Y-3.0219
X2.2702Y-6.4897
X2.2733Y-4.5688
X2.2782Y-6.2691
X2.2808Y-3.744
X2.2822Y-5.1899
X2.283Y-5.249
X2.2905Y-3.4423
X2.2918Y-3.6059
X2.2934Y-3.9805
X2.2938Y-6.3604
X2.2953Y-4.5211
X2.2967Y-3.3402
X2.2976Y-6.1054
X2.3047Y-7.7245
X2.3061Y-5.2264
X2.3106Y-5.1446
X2.318Y-4.4458
X2.3229Y-5.885
X2.3288Y-4.8355
X2.3368Y-6.8168
X2.3374Y-5.1238
X2.3381Y-5.3931
X2.339Y-3.3403
X2.3391Y-4.2806
X2.3468Y-5.0645
X2.3531Y-4.7561
X2.3534Y-5.1525
X2.3561Y-4.1083
X2.3593Y-3.1319
X2.3633Y-3.5501
X2.3678Y-5.2382
X2.37Y-6.4601
X2.3748Y-3.165
X2.3848Y-4.704
X2.3865Y-3.7703
X2.3872Y-5.409
X2.3889Y-4.4275
X2.3977Y-3.5621
X2.3982Y-4.7858
X2.4084Y-5.5842
X2.4093Y-4.8458
X2.4187Y-5.4184
X2.4265Y-7.19
X2.4267Y-4.4319
X2.4275Y-4.5813
X2.4281Y-5.826
X2.4284Y-3.4196
X2.4291Y-3.801
X2.4295Y-7.1583
X2.4441Y-5.584
X2.4451Y-4.7239
X2.4484Y-6.2716
X2.4537Y-5.9043
X2.4543Y-3.9682
X2.4559Y-5.2433
X2.4607Y-5.7943
X2.4625Y-4.7796
X2.4642Y-5.4121
X2.4664Y-5.1081
X2.4664Y-5.9665
X2.4689Y-7.1288
X2.4738Y-6.8072
X2.4787Y-4.4246
X2.4787Y-5.7244
X2.4815Y-4.3616
X2.4853Y-4.824
X2.4932Y-3.507
X2.4936Y-5.0072
X2.4964Y-5.3435
X2.5122Y-6.9805
X2.5159Y-4.7477
X2.5161Y-6.4897
X2.5161Y-6.653
X2.5204Y-4.6885
X2.5323Y-4.1111
X2.537Y-7.3964
X2.5375Y-5.0614
X2.5376Y-6.9576
X2.5387Y-3.8261
X2.5433Y-3.7443
X2.5461Y-6.7242
X2.5467Y-3.3404
X2.5476Y-6.4978
X2.5492Y-5.2266
X2.5603Y-7.5418
X2.561Y-5.534
X2.5697Y-4.6797
X2.57Y-5.723
X2.5711Y-4.8568
X2.5804Y-5.9859
X2.5846Y-4.5312
X2.5853Y-7.2824
X2.5858Y-4.9903
X2.5965Y-3.3521
X2.6028Y-4.5782
X2.603Y-3.7444
X2.6074Y-6.5165
X2.6141Y-3.1618
X2.6154Y-6.9271
X2.6175Y-4.2753
X2.6212Y-7.5329
X2.6287Y-4.1045
X2.6292Y-4.4674
X2.6301Y-4.516
X2.6318Y-3.8397
X2.6323Y-5.3141
X2.6358Y-3.3541
X2.64Y-3.7851
X2.6465Y-7.3225
X2.6514Y-5.052
X2.6527Y-6.5938
X2.6543Y-5.5189
X2.6553Y-4.7265
X2.6725Y-3.3496
X2.6726Y-5.4174
X2.6728Y-5.325
X2.68Y-4.878
X2.6832Y-4.3969
X2.6854Y-7.2243
X2.6867Y-6.5635
X2.6885Y-4.4683
X2.6892Y-6.2007
X2.691Y-6.411
X2.6939Y-3.5617
X2.6946Y-3.7721
X2.696Y-6.1692
X2.698Y-5.1304
X2.7022Y-7.679
X2.7027Y-6.9345
X2.7063Y-4.2628
X2.7074Y-5.8881
X2.7094Y-2.9464
X2.7174Y-6.6178
X2.7307Y-4.3885
X2.7326Y-6.4987
X2.7332Y-2.9711
X2.734Y-4.68
X2.7355Y-7.0181
X2.739Y-3.8053
X2.74Y-3.8529
X2.7406Y-4.3122
X2.744Y-6.1126
X2.7468Y-5.0538
X2.7569Y-5.9722
X2.7582Y-4.5411
X2.7608Y-4.979
X2.767Y-7.0504
X2.7729Y-5.9039
X2.7755Y-5.5972
X2.7777Y-6.383
X2.784Y-5.3215
X2.7866Y-3.078
X2.7894Y-3.169
X2.7931Y-5.1833
X2.7962Y-5.5201
X2.7962Y-5.2729
X2.798Y-5.5593
X2.7983Y-6.9978
X2.801Y-4.874
X2.8011Y-5.3672
X2.8014Y-4.1332
X2.8093Y-6.9501
X2.8105Y-5.0509
X2.8111Y-4.7729
X2.8126Y-7.3935
X2.8147Y-7.7168
X2.8157Y-4.9727
X2.8179Y-6.2474
X2.8209Y-4.7361
X2.8244Y-6.4976
X2.8246Y-6.1309
X2.8279Y-5.2818
X2.8291Y-7.0666
X2.8299Y-3.189
X2.8322Y-4.9126
X2.8356Y-5.3522
X2.8356Y-4.8808
X2.8377Y-4.1691
X2.85Y-7.5538
X2.8572Y-5.5502
X2.8624Y-4.1448
X2.8626Y-3.1084
X2.871Y-3.6926
X2.8728Y-5.8182
X2.8738Y-5.4484
X2.8793Y-7.4971
X2.8851Y-4.2355
X2.8867Y-5.6019
X2.8879Y-6.2652
X2.8883Y-4.4346
X2.8915Y-4.6796
X2.8989Y-4.5957
X2.9024Y-7.0502
X2.9117Y-6.4946
X2.913Y-5.8584
X2.9151Y-6.1334
X2.9212Y-6.6603
X2.929Y-6.3751
X2.9336Y-5.2747
X2.9355Y-4.8827
X2.9366Y-5.439
X2.937Y-5.1942
X2.9389Y-4.9967
X2.9391Y-4.1782
X2.9446Y-4.566
X2.9469Y-6.78
X2.947Y-5.0843
X2.9489Y-5.3586
X2.9526Y-4.729
X2.9644Y-6.9508
X2.9658Y-4.9363
X2.9662Y-3.649
X2.9672Y-5.2373
X2.9672Y-4.3551
X2.9676Y-5.9234
X2.9697Y-7.1174
X2.9749Y-6.8097
X2.9778Y-4.4165
X2.9779Y-4.1393
X2.9828Y-6.665
X2.9898Y-3.6059
X2.9944Y-5.2042
X2.9992Y-5.9116
X2.9992Y-6.5103
X3.0031Y-5.0705
X3.009Y-6.376
X3.0125Y-4.8156
X3.0153Y-5.7295
X3.0154Y-6.6376
X3.0217Y-6.7929
X3.0274Y-6.7159
X3.0323Y-6.5036
X3.0323Y-3.0222
X3.0388Y-5.8546
X3.0388Y-4.4409
X3.0388Y-4.6516
X3.0409Y-2.9472
X3.0433Y-6.0806
X3.0521Y-4.4077
X3.054Y-6.3547
X3.0643Y-2.5964
X3.0661Y-6.1043
X3.0711Y-3.47
X3.0727Y-6.5035
X3.0793Y-3.5716
X3.083Y-3.174
X3.0867Y-5.6217
X3.0872Y-3.0742
X3.0875Y-3.4071
X3.0928Y-3.9266
X3.0986Y-6.2489
X3.1026Y-6.7165
X3.1032Y-7.9499
X3.1041Y-6.4902
X3.1063Y-3.1982
X3.1068Y-5.2577
X3.1092Y-7.2536
X3.1144Y-6.3624
X3.1172Y-6.5288
X3.1181Y-4.666
X3.1182Y-3.8564
X3.1187Y-6.9951
X3.1196Y-6.8097
X3.1225Y-3.5958
X3.1246Y-4.7743
X3.1258Y-4.3392
X3.1278Y-6.6661
X3.1289Y-6.9568
X3.1291Y-7.1207
X3.142Y-3.7582
X3.15Y-8.142
X3.1538Y-3.3405
X3.1557Y-4.2041
X3.156Y-6.5249
X3.1568Y-5.7373
X3.1581Y-6.8007
X3.1591Y-4.4222
X3.1596Y-6.2485
X3.1608Y-5.5653
X3.1668Y-7.0432
X3.1677Y-7.2577
X3.1692Y-3.0057
X3.1743Y-3.4018
X3.1758Y-4.084
X3.1794Y-3.1349
X3.1814Y-6.0166
X3.1821Y-6.7135
X3.1828Y-6.3792
X3.1849Y-3.7605
X3.1871Y-7.0889
X3.1924Y-5.2408
X3.1993Y-6.772
X3.1997Y-5.5095
X3.2035Y-5.8036
X3.204Y-7.952
X3.2074Y-5.3854
X3.2131Y-3.2015
X3.2148Y-3.7448
X3.2174Y-7.0109
X3.2221Y-4.3128
X3.2248Y-5.8285
X3.2252Y-7.2794
X3.2253Y-4.6307
X3.2299Y-4.1848
X3.2321Y-6.92
X3.2326Y-7.0908
X3.241Y-6.6534
X3.2437Y-6.5231
X3.2447Y-5.0813
X3.2491Y-7.0208
X3.2503Y-6.7057
X3.252Y-2.9984
X3.2594Y-5.1821
X3.2632Y-5.9684
X3.2664Y-4.9613
X3.268Y-6.0895
X3.2684Y-4.7652
X3.2706Y-7.7806
X3.2723Y-5.3833
X3.2753Y-4.647
X3.2766Y-3.1824
X3.2775Y-3.4915
X3.2785Y-7.469
X3.2793Y-4.184
X3.2816Y-7.2811
X3.2849Y-5.6125
X3.2877Y-7.0529
X3.29Y-4.1247
X3.2907Y-6.6277
X3.2943Y-6.6783
X3.3Y-2.6683
X3.3001Y-4.7561
X3.3014Y-5.7476
X3.3061Y-6.5281
X3.3161Y-5.9643
X3.3182Y-5.4047
X3.3236Y-3.506
X3.325Y-4.8596
X3.3273Y-6.6283
X3.3289Y-6.5063
X3.33Y-8.164
X3.3306Y-5.57
X3.3321Y-6.6858
X3.3354Y-5.0436
X3.3362Y-6.9241
X3.3362Y-5.3532
X3.343Y-6.8147
X3.3466Y-7.2693
X3.3466Y-4.1604
X3.3528Y-4.6037
X3.3559Y-3.089
X3.356Y-4.8774
X3.3561Y-4.9409
X3.3562Y-7.4337
X3.3607Y-4.6491
X3.362Y-7.954
X3.3653Y-6.2315
X3.3659Y-6.9977
X3.3666Y-3.7522
X3.3713Y-3.9675
X3.3716Y-3.1759
X3.3742Y-6.2
X3.3801Y-4.2215
X3.3803Y-4.7772
X3.3809Y-6.372
X3.3825Y-5.1767
X3.3825Y-4.1887
X3.3937Y-5.0241
X3.4021Y-7.7349
X3.4034Y-6.6545
X3.4093Y-4.503
X3.4096Y-5.6167
X3.4186Y-3.438
X3.4297Y-6.5061
X3.4302Y-4.9007
X3.4307Y-6.7603
X3.4395Y-3.3414
X3.4473Y-3.5942
X3.4517Y-3.0823
X3.4547Y-6.8859
X3.4552Y-7.377
X3.4582Y-7.9674
X3.4592Y-7.5404
X3.46Y-5.5234
X3.4616Y-6.2778
X3.4667Y-4.8317
X3.4672Y-4.0892
X3.4676Y-7.4501
X3.4711Y-7.0854
X3.4749Y-5.3801
X3.4755Y-4.1226
X3.4765Y-3.7464
X3.4769Y-6.734
X3.4773Y-3.5037
X3.4778Y-5.3486
X3.4806Y-4.7636
X3.4811Y-6.7948
X3.4823Y-5.123
X3.4857Y-5.2369
X3.4915Y-3.1969
X3.4933Y-3.6045
X3.4943Y-3.8641
X3.4979Y-4.8807
X3.4985Y-7.0645
X3.4991Y-4.2407
X3.5007Y-5.8152
X3.5032Y-5.7385
X3.5042Y-6.6796
X3.5067Y-6.5928
X3.5091Y-5.0225
X3.5113Y-3.5013
X3.5114Y-5.1593
X3.5114Y-5.3209
X3.5124Y-4.4377
X3.5146Y-6.0159
X3.517Y-5.1139
X3.5207Y-4.7011
X3.5213Y-3.7979
X3.5216Y-5.0546
X3.5286Y-4.7971
X3.529Y-3.3464
X3.5388Y-5.6736
X3.5393Y-7.1308
X3.5412Y-7.0056
X3.5556Y-3.1969
X3.5571Y-3.7695
X3.5632Y-4.6115
X3.5638Y-7.6815
X3.5699Y-6.3385
X3.5765Y-4.6905
X3.5806Y-3.593
X3.5843Y-4.3077
X3.5889Y-7.4713
X3.5902Y-3.438
X3.5929Y-5.6189
X3.6021Y-6.7396
X3.6099Y-3.8201
X3.6122Y-4.7879
X3.6136Y-6.4906
X3.6182Y-5.8309
X3.6224Y-7.6963
X3.6224Y-6.2699
X3.6276Y-7.0426
X3.6295Y-5.0999
X3.6328Y-6.6078
X3.6332Y-5.8763
X3.6347Y-4.659
X3.6357Y-5.1317
X3.6374Y-5.2103
X3.6389Y-6.0091
X3.6401Y-5.4199
X3.6417Y-7.2784
X3.6436Y-4.9811
X3.6477Y-4.8883
X3.6553Y-6.3187
X3.6557Y-5.2367
X3.6569Y-5.3665
X3.6589Y-3.1961
X3.6739Y-4.3439
X3.6759Y-6.8257
X3.6772Y-3.5705
X3.6786Y-6.4949
X3.6851Y-6.3572
X3.6857Y-6.7491
X3.6924Y-6.6254
X3.6984Y-6.1424
X3.7016Y-6.657
X3.7034Y-3.7957
X3.7035Y-5.4953
X3.7048Y-6.5778
X3.7063Y-4.5907
X3.7077Y-7.2731
X3.7119Y-6.8217
X3.7154Y-6.2129
X3.717Y-4.6437
X3.7183Y-5.7544
X3.7248Y-7.7075
X3.7251Y-6.365
X3.7285Y-4.4752
X3.729Y-6.8909
X3.7315Y-5.0577
X3.732Y-4.6097
X3.733Y-6.1813
X3.7368Y-3.6691
X3.7388Y-5.8118
X3.7427Y-4.5523
X3.7471Y-5.5355
X3.7478Y-6.512
X3.75Y-7.536
X3.7532Y-6.6607
X3.7587Y-5.0008
X3.7712Y-5.0822
X3.7719Y-5.5065
X3.7761Y-3.4835
X3.7766Y-7.1094
X3.7787Y-3.3689
X3.7825Y-5.7186
X3.7885Y-5.2213
X3.7916Y-4.1022
X3.7926Y-4.883
X3.7932Y-5.6483
X3.7941Y-6.2383
X3.7984Y-5.3458
X3.8017Y-3.9004
X3.8058Y-4.5699
X3.8061Y-6.0158
X3.8063Y-5.3774
X3.8064Y-5.409
X3.8074Y-6.5128
X3.8113Y-3.756
X3.8127Y-5.6959
X3.8219Y-3.5606
X3.8255Y-4.6097
X3.8291Y-6.9306
X3.8306Y-6.7988
X3.8367Y-6.2829
X3.8367Y-6.3395
X3.8468Y-3.38
X3.8569Y-6.647
X3.8635Y-5.7558
X3.8638Y-7.0902
X3.8659Y-6.8069
X3.8673Y-3.5473
X3.8695Y-3.0823
X3.8696Y-3.8402
X3.874Y-5.0407
X3.8748Y-5.5419
X3.8756Y-4.6828
X3.8756Y-7.4693
X3.8772Y-5.2091
X3.8772Y-5.163
X3.8872Y-5.6914
X3.8935Y-3.4367
X3.8952Y-4.9519
X3.8969Y-5.8657
X3.9078Y-5.7256
X3.9121Y-5.5423
X3.915Y-3.8402
X3.9227Y-6.9229
X3.928Y-4.914
X3.9301Y-4.1089
X3.9348Y-4.3274
X3.9366Y-5.6701
X3.9404Y-3.5354
X3.9443Y-3.3587
X3.9462Y-4.282
X3.9466Y-6.3621
X3.9477Y-6.8184
X3.9481Y-6.998
X3.9515Y-6.6438
X3.9543Y-6.2594
X3.9573Y-3.0795
X3.9623Y-3.5122
X3.9688Y-5.8135
X3.9689Y-4.8832
X3.972Y-2.9875
X3.9726Y-4.087
X3.9732Y-3.7693
X3.9747Y-7.0451
X3.9762Y-5.7414
X3.9842Y-6.7479
X3.9868Y-5.8782
X3.987Y-5.6474
X4.001Y-7.0737
X4.0058Y-6.129
X4.0112Y-3.6092
X4.0134Y-6.3362
X4.0134Y-6.6239
X4.0172Y-3.4319
X4.0178Y-7.4063
X4.0186Y-3.764
X4.0187Y-5.125
X4.0228Y-6.4087
X4.0243Y-3.9689
X4.0295Y-5.3349
X4.0359Y-6.9312
X4.0417Y-3.1824
X4.0453Y-2.9953
X4.0456Y-5.9037
X4.0466Y-6.7646
X4.0543Y-7.529
X4.0555Y-4.9168
X4.0579Y-5.1191
X4.0604Y-5.3068
X4.0732Y-3.955
X4.0732Y-2.9493
X4.0857Y-6.6356
X4.0973Y-2.9891
X4.0979Y-7.4311
X4.105Y-4.369
X4.1092Y-6.8185
X4.1121Y-5.3931
X4.1124Y-3.8127
X4.113Y-3.5788
X4.1143Y-5.5128
X4.1211Y-5.3415
X4.1212Y-6.7371
X4.1238Y-6.924
X4.1282Y-6.7733
X4.1298Y-3.3627
X4.1349Y-3.1789
X4.137Y-5.9515
X4.1376Y-4.0815
X4.1416Y-7.0817
X4.143Y-3.787
X4.1441Y-5.4978
X4.1459Y-6.6434
X4.1494Y-4.6637
X4.1561Y-7.2905
X4.1573Y-5.6498
X4.1576Y-5.0214
X4.1651Y-5.8511
X4.1652Y-4.8266
X4.1669Y-3.1793
X4.1698Y-6.8183
X4.1716Y-6.6238
X4.177Y-5.0806
X4.1813Y-6.5255
X4.1844Y-5.7097
X4.1849Y-3.0188
X4.1859Y-5.2952
X4.1914Y-6.657
X4.196Y-3.3625
X4.1961Y-4.2085
X4.1984Y-3.1858
X4.2028Y-4.9289
X4.2062Y-6.7317
X4.2068Y-3.5811
X4.2068Y-5.6436
X4.2106Y-5.3546
X4.2123Y-5.4337
X4.216Y-6.3132
X4.2198Y-5.5459
X4.2224Y-5.0857
X4.2291Y-7.0828
X4.2292Y-6.9116
X4.2304Y-5.0214
X4.233Y-5.7477
X4.239Y-6.4031
X4.2396Y-3.7646
X4.2495Y-6.7038
X4.2513Y-6.5466
X4.254Y-6.6355
X4.2581Y-5.8208
X4.2605Y-4.2983
X4.2617Y-3.5618
X4.2643Y-2.9913
X4.2657Y-5.6804
X4.266Y-5.9503
X4.271Y-3.3524
X4.277Y-5.5127
X4.2818Y-6.2443
X4.2836Y-5.2131
X4.2847Y-4.3562
X4.2851Y-3.1654
X4.2865Y-7.1216
X4.2866Y-6.7309
X4.2884Y-6.9281
X4.29Y-7.8594
X4.2922Y-6.4281
X4.296Y-5.5383
X4.2993Y-6.515
X4.3108Y-5.3981
X4.3127Y-3.6096
X4.3135Y-5.6511
X4.3141Y-6.3434
X4.3153Y-4.8061
X4.3181Y-5.8208
X4.3189Y-6.5401
X4.3208Y-6.0563
X4.3248Y-4.4249
X4.329Y-5.6803
X4.3313Y-4.8931
X4.341Y-7.1297
X4.341Y-7.0982
X4.3412Y-5.2903
X4.3415Y-4.5353
X4.3443Y-3.6073
X4.3451Y-5.0057
X4.3456Y-5.0373
X4.3457Y-6.8812
X4.3459Y-6.6592
X4.3491Y-5.0965
X4.3523Y-6.625
X4.3538Y-3.429
X4.3568Y-5.4359
X4.3585Y-4.9275
X4.3589Y-6.7787
X4.3629Y-4.8959
X4.3658Y-5.33
X4.3686Y-4.6484
X4.3691Y-3.982
X4.3741Y-6.2028
X4.3768Y-3.5609
X4.378Y-4.7236
X4.3802Y-3.1377
X4.3806Y-3.8126
X4.3821Y-3.0015
X4.3872Y-7.1358
X4.3882Y-5.6048
X4.3964Y-5.8941
X4.4005Y-3.6095
X4.4029Y-7.0421
X4.4054Y-7.4734
X4.4083Y-7.426
X4.4123Y-3.8089
X4.4127Y-4.6886
X4.413Y-5.6885
X4.4345Y-7.0312
X4.4373Y-7.0628
X4.438Y-6.6001
X4.4396Y-5.6612
X4.4408Y-3.9646
X4.4414Y-4.7609
X4.4446Y-3.79
X4.4449Y-5.9666
X4.4499Y-5.5469
X4.4504Y-4.7985
X4.4531Y-6.3465
X4.4632Y-6.5238
X4.4643Y-6.2008
X4.4691Y-5.3041
X4.4695Y-5.0156
X4.4697Y-3.5136
X4.4699Y-5.2402
X4.4713Y-5.9909
X4.4717Y-5.8669
X4.472Y-4.7038
X4.4738Y-5.7416
X4.48Y-7.0344
X4.4894Y-5.1183
X4.4914Y-4.6753
X4.4917Y-6.9751
X4.492Y-6.2569
X4.4959Y-4.5245
X4.4967Y-5.3701
X4.5002Y-5.0722
X4.5005Y-5.8242
X4.5046Y-5.226
X4.5074Y-5.5793
X4.5091Y-3.1991
X4.5122Y-6.9511
X4.5193Y-5.2589
X4.5217Y-4.7575
X4.5237Y-3.3321
X4.5262Y-4.9503
X4.527Y-3.0153
X4.5271Y-7.0792
X4.5491Y-6.6778
X4.5495Y-3.6923
X4.5548Y-6.9744
X4.5549Y-3.8226
X4.5552Y-6.1531
X4.5579Y-7.0649
X4.56Y-6.7782
X4.562Y-6.9161
X4.5704Y-5.0423
X4.5716Y-6.8311
X4.5831Y-5.6675
X4.5908Y-5.2945
X4.5922Y-6.0213
X4.5922Y-7.276
X4.5943Y-6.9155
X4.5958Y-5.2573
X4.6004Y-4.4915
X4.6109Y-3.6594
X4.6182Y-3.7476
X4.6212Y-7.1324
X4.6225Y-6.9711
X4.6291Y-7.0593
X4.6298Y-5.2215
X4.6301Y-6.5699
X4.6311Y-5.8127
X4.6476Y-5.6537
X4.649Y-6.0773
X4.6498Y-3.7439
X4.6499Y-5.7034
X4.6503Y-3.877
X4.6518Y-5.5447
X4.6593Y-6.3532
X4.6647Y-4.8217
X4.6677Y-5.452
X4.6684Y-4.3074
X4.6717Y-6.5081
X4.673Y-6.204
X4.6825Y-6.8028
X4.6827Y-4.6537
X4.6876Y-3.517
X4.6896Y-4.0787
X4.6921Y-6.9251
X4.6959Y-6.4877
X4.6973Y-3.1869
X4.7005Y-3.6588
X4.7027Y-8.0838
X4.7035Y-4.8169
X4.7071Y-3.4919
X4.7184Y-5.9328
X4.7191Y-6.2771
X4.723Y-6.7017
X4.7242Y-6.0786
X4.7257Y-7.4485
X4.7259Y-4.1078
X4.7292Y-7.0761
X4.732Y-6.9988
X4.7321Y-5.8189
X4.7413Y-6.1453
X4.747Y-5.6989
X4.7476Y-4.7318
X4.7525Y-6.1922
X4.7568Y-4.823
X4.7608Y-5.5706
X4.7728Y-3.4239
X4.78Y-6.5305
X4.7876Y-7.4332
X4.7883Y-3.977
X4.7884Y-3.7911
X4.7914Y-3.1869
X4.7945Y-4.9314
X4.7954Y-3.5732
X4.8029Y-6.7553
X4.806Y-8.108
X4.8165Y-5.3309
X4.8173Y-6.0052
X4.8175Y-3.7723
X4.8201Y-5.9306
X4.8215Y-6.1959
X4.8256Y-6.0915
X4.8261Y-6.7059
X4.8264Y-5.0281
X4.8273Y-7.2681
X4.8328Y-5.713
X4.8364Y-6.1409
X4.8373Y-4.598
X4.8401Y-6.7914
X4.8408Y-6.4822
X4.8466Y-3.1957
X4.8488Y-3.8248
X4.8502Y-5.4386
X4.8506Y-4.8403
X4.8516Y-5.3354
X4.8526Y-3.3772
X4.8557Y-5.7889
X4.8686Y-6.9761
X4.8699Y-6.0055
X4.8713Y-5.8893
X4.8732Y-5.0224
X4.8748Y-6.4608
X4.8754Y-6.5331
X4.8757Y-4.9245
X4.8762Y-4.6142
X4.8779Y-4.8169
X4.8833Y-4.9888
X4.884Y-4.9566
X4.8985Y-3.9912
X4.9004Y-3.003
X4.9036Y-5.6611
X4.906Y-5.5376
X4.9062Y-6.2345
X4.9062Y-7.4351
X4.9081Y-4.7929
X4.9119Y-6.1553
X4.9169Y-3.4397
X4.9255Y-6.4994
X4.9255Y-5.9981
X4.9258Y-3.8564
X4.9261Y-3.3528
X4.9264Y-5.8886
X4.9301Y-5.4384
X4.931Y-4.0584
X4.9362Y-3.7933
X4.9412Y-5.6614
X4.9452Y-7.4463
X4.9501Y-7.1321
X4.9505Y-6.4613
X4.9531Y-3.4397
X4.9538Y-4.736
X4.9559Y-6.3046
X4.9564Y-4.1524
X4.9564Y-4.184
X4.9565Y-3.6111
X4.9587Y-7.0223
X4.965Y-5.9692
X4.9708Y-5.7639
X4.9766Y-4.0576
X4.9777Y-4.8604
X4.9821Y-6.8733
X4.9864Y-3.1876
X4.9927Y-7.966
X4.9932Y-5.8908
X4.9937Y-7.2888
X4.9976Y-7.0015
X5.0013Y-5.2758
X5.0063Y-4.1666
X5.0095Y-3.8828
X5.0151Y-6.5018
X5.0167Y-3.8464
X5.0173Y-5.35
X5.0238Y-4.1385
X5.0331Y-3.772
X5.0353Y-6.0379
X5.0357Y-3.9021
X5.0363Y-5.1698
X5.042Y-8.142
X5.0439Y-7.1577
X5.0443Y-5.5998
X5.046Y-7.2186
X5.05Y-2.7667
X5.0507Y-5.9504
X5.0576Y-3.5271
X5.0667Y-7.2445
X5.0731Y-6.5016
X5.0758Y-6.2327
X5.0759Y-5.5992
X5.0759Y-3.8175
X5.0764Y-3.1869
X5.0768Y-6.5507
X5.0807Y-5.4421
X5.0843Y-6.8579
X5.0861Y-6.9765
X5.0875Y-3.0307
X5.0888Y-6.1627
X5.0908Y-7.3764
X5.0943Y-4.7036
X5.0945Y-6.411
X5.0989Y-3.5854
X5.1018Y-5.9162
X5.1025Y-5.0745
X5.1148Y-3.7588
X5.1186Y-6.512
X5.1234Y-3.9298
X5.1268Y-5.6706
X5.1275Y-4.9559
X5.1317Y-6.9626
X5.136Y-4.7376
X5.1395Y-3.187
X5.1397Y-5.8664
X5.1473Y-6.3038
X5.1561Y-3.4611
X5.1574Y-5.0194
X5.1609Y-3.7704
X5.162Y-7.874
X5.1666Y-4.0355
X5.1679Y-3.8027
X5.1684Y-6.4634
X5.176Y-6.5276
X5.1792Y-6.3076
X5.1804Y-3.1622
X5.1804Y-6.2759
X5.1875Y-6.8468
X5.195Y-3.5113
X5.1969Y-5.2864
X5.1975Y-7.4372
X5.2065Y-6.4358
X5.2076Y-3.1796
X5.2175Y-7.1391
X5.2368Y-3.836
X5.2407Y-3.3867
X5.2459Y-3.5584
X5.2491Y-3.1176
X5.2539Y-7.3942
X5.2539Y-7.5279
X5.2539Y-7.7938
X5.2593Y-3.8134
X5.2621Y-7.3329
X5.2652Y-3.0054
X5.2749Y-3.2046
X5.2749Y-7.2842
X5.2751Y-4.5668
X5.278Y-3.572
X5.2961Y-3.7766
X5.3001Y-2.9762
X5.3019Y-5.6021
X5.3114Y-6.7899
X5.3155Y-3.4954
X5.3258Y-7.0618
X5.3276Y-5.9149
X5.3361Y-3.8009
X5.3434Y-3.189
X5.3497Y-3.7551
X5.3782Y-3.5481
X5.3832Y-3.401
X5.3855Y-6.7038
X5.389Y-3.0443
X5.3934Y-3.1881
X5.3982Y-5.5512
X5.4016Y-4.0537
X5.4123Y-4.7493
X5.438Y-4.2227
X5.4412Y-4.6826
X5.4464Y-3.3774
X5.4464Y-3.1173
X5.4464Y-4.0192
X5.4477Y-3.5423
X5.4517Y-3.2043
X5.4526Y-4.4855
X5.4641Y-4.1059
X5.4659Y-4.2628
X5.483Y-3.9593
X5.4851Y-3.8794
X5.497Y-2.8059
X5.5068Y-4.075
X5.5075Y-7.027
X5.508Y-3.8569
X5.5105Y-5.9292
X5.511Y-3.2081
X5.5124Y-5.3461
X5.5148Y-6.1929
X5.5211Y-3.6125
X5.5256Y-5.244
X5.5258Y-3.9315
X5.53Y-5.4874
X5.5315Y-3.549
X5.5356Y-3.5131
X5.5396Y-3.6566
X5.5482Y-4.114
X5.5492Y-3.2593
X5.5512Y-5.1964
X5.5715Y-6.1683
X5.5743Y-4.0894
X5.5795Y-3.5377
X5.5796Y-6.7191
X5.5882Y-3.042
X5.5895Y-4.7691
X5.5917Y-3.9199
X5.5923Y-2.9883
X5.6121Y-4.3549
X5.6204Y-6.5392
X5.6222Y-7.24
X5.6243Y-5.1392
X5.6478Y-3.7138
X5.6488Y-4.6105
X5.6499Y-3.1783
X5.6506Y-5.624
X5.6516Y-2.9745
X5.6518Y-3.5505
X5.6527Y-5.2438
X5.6536Y-3.6566
X5.6581Y-4.2223
X5.6593Y-3.0244
X5.6624Y-5.592
X5.6633Y-4.1011
X5.6664Y-6.177
X5.6794Y-3.7071
X5.6806Y-5.6844
X5.6823Y-3.0471
X5.6896Y-4.7448
X5.6936Y-4.8093
X5.6941Y-5.7902
X5.7069Y-5.3576
X5.708Y-5.8218
X5.7081Y-4.7173
X5.7083Y-2.6311
X5.7086Y-4.1651
X5.7133Y-4.2145
X5.7215Y-4.7924
X5.7219Y-4.3419
X5.7302Y-3.7536
X5.7307Y-5.5266
X5.7429Y-2.9926
X5.75Y-2.922
X5.7535Y-4.1023
X5.7587Y-3.2512
X5.7589Y-7.3174
X5.7592Y-6.5813
X5.7649Y-4.7473
X5.7667Y-2.9683
X5.77Y-6.2005
X5.775Y-4.0607
X5.7798Y-6.3063
X5.7814Y-4.3796
X5.7865Y-4.2926
X5.7887Y-4.0943
X5.7889Y-4.4112
X5.7902Y-3.2464
X5.7913Y-3.5507
X5.799Y-4.468
X5.8001Y-3.7699
X5.8205Y-4.0946
X5.8213Y-4.7839
X5.8338Y-3.0047
X5.8355Y-3.3058
X5.8386Y-3.5141
X5.8407Y-3.7264
X5.8448Y-2.6047
X5.8451Y-6.9052
X5.8586Y-3.5827
X5.8627Y-3.8748
X5.8629Y-3.2706
X5.8654Y-4.6699
X5.8694Y-5.1374
X5.8791Y-3.9281
X5.8831Y-4.2936
X5.8841Y-4.092
X5.8857Y-4.339
X5.8888Y-4.7951
X5.8901Y-3.6148
X5.9048Y-4.0632
X5.906Y-4.1651
X5.9082Y-3.8876
X5.9113Y-3.0042
X5.9187Y-3.2306
X5.9313Y-4.0912
X5.9365Y-4.7574
X5.9378Y-3.928
X5.9428Y-2.9992
X5.9441Y-3.2499
X5.9462Y-3.4242
X5.9535Y-7.2987
X5.9584Y-3.7012
X5.9641Y-4.092
X5.9641Y-3.222
X5.9676Y-5.4829
X5.9689Y-3.5224
X5.9711Y-4.5286
X5.9808Y-3.25
X5.9834Y-4.6822
X5.9916Y-3.4217
X5.9967Y-4.1633
X5.9979Y-3.0106
X5.9993Y-4.8034
X6.009Y-3.929
X6.0136Y-3.5527
X6.0213Y-3.2495
X6.0236Y-7.5257
X6.0253Y-2.5868
X6.0276Y-4.0908
X6.0276Y-4.7808
X6.0289Y-3.7714
X6.0299Y-5.1467
X6.0394Y-4.3112
X6.043Y-4.2118
X6.0452Y-5.2643
X6.0454Y-3.6824
X6.0482Y-4.4479
X6.0482Y-4.5711
X6.049Y-4.2786
X6.05Y-2.7607
X6.05Y-3.0312
X6.0532Y-3.7315
X6.0598Y-4.6377
X6.0606Y-3.9461
X6.061Y-3.5046
X6.0623Y-4.746
X6.0672Y-5.9934
X6.0704Y-3.8794
X6.0723Y-3.1857
X6.074Y-4.798
X6.074Y-9.342
X6.0747Y-3.0109
X6.075Y-7.3472
X6.0848Y-4.3125
X6.09Y-8.002
X6.0916Y-3.2449
X6.0922Y-3.9452
X6.0986Y-3.721
X6.1038Y-3.1807
X6.1149Y-6.0298
X6.1154Y-2.9556
X6.1181Y-3.8789
X6.1216Y-3.6993
X6.1232Y-6.1642
X6.1241Y-3.0051
X6.1332Y-5.4082
X6.138Y-3.24
X6.139Y-3.5439
X6.1444Y-3.0803
X6.1473Y-4.0737
X6.148Y-8.112
X6.1493Y-3.1807
X6.1507Y-3.6642
X6.1515Y-3.766
X6.1529Y-7.5206
X6.1549Y-2.9788
X6.1608Y-3.4655
X6.175Y-4.1698
X6.1776Y-4.7386
X6.1781Y-5.0058
X6.1791Y-3.9142
X6.1799Y-5.66
X6.1802Y-2.9594
X6.1837Y-3.389
X6.1852Y-7.5229
X6.1878Y-5.1152
X6.1932Y-4.1116
X6.1937Y-5.9458
X6.1992Y-4.3939
X6.1997Y-4.6173
X6.2031Y-3.2087
X6.2065Y-4.1715
X6.2108Y-3.0656
X6.2142Y-4.7898
X6.2147Y-2.5118
X6.2168Y-3.6816
X6.217Y-3.7263
X6.225Y-4.144
X6.2313Y-3.9056
X6.2397Y-3.5557
X6.2415Y-3.2315
X6.2468Y-3.172
X6.2473Y-4.647
X6.2518Y-6.5747
X6.2569Y-3.3901
X6.2574Y-4.3073
X6.2624Y-3.7481
X6.2647Y-5.9808
X6.2696Y-4.6936
X6.2698Y-4.8012
X6.2753Y-2.9779
X6.2892Y-3.3964
X6.292Y-3.5827
X6.2977Y-3.2188
X6.299Y-4.0811
X6.3046Y-4.3931
X6.3125Y-3.4568
X6.3146Y-3.0511
X6.3184Y-3.847
X6.3213Y-2.2345
X6.3221Y-4.1349
X6.3245Y-3.9183
X6.3322Y-4.6863
X6.3335Y-3.1728
X6.3398Y-4.7266
X6.346Y-4.0636
X6.3535Y-4.6322
X6.3694Y-3.847
X6.3814Y-4.277
X6.3817Y-4.0746
X6.3823Y-5.7933
X6.3866Y-3.4426
X6.3867Y-3.9183
X6.4043Y-3.7481
X6.413Y-3.6327
X6.4135Y-4.6935
X6.4146Y-3.0376
X6.4161Y-7.8892
X6.4206Y-3.8292
X6.4209Y-3.4525
X6.4254Y-4.3355
X6.4301Y-3.4039
X6.431Y-5.339
X6.4319Y-4.2241
X6.4329Y-5.8087
X6.4367Y-3.9062
X6.4406Y-3.2467
X6.4418Y-4.2871
X6.449Y-5.1437
X6.4491Y-3.2055
X6.4602Y-4.7395
X6.4624Y-3.3902
X6.4639Y-3.6493
X6.4796Y-3.2534
X6.4809Y-4.3984
X6.4826Y-3.6966
X6.4851Y-3.7282
X6.4856Y-7.7845
X6.4934Y-3.9132
X6.4948Y-5.7972
X6.4951Y-3.1739
X6.4973Y-4.1052
X6.5102Y-5.0262
X6.5137Y-3.6634
X6.5166Y-4.2357
X6.518Y-5.2911
X6.5209Y-6.0403
X6.5249Y-3.9142
X6.5264Y-3.1278
X6.5309Y-4.0746
X6.5353Y-4.1582
X6.5357Y-4.3104
X6.5381Y-3.7312
X6.5441Y-4.5618
X6.5509Y-4.6363
X6.5526Y-5.7636
X6.5567Y-3.3684
X6.5571Y-3.0814
X6.5595Y-6.1748
X6.5602Y-3.5285
X6.5609Y-4.7996
X6.5622Y-3.6912
X6.5729Y-4.1072
X6.5734Y-3.253
X6.5796Y-5.696
X6.5831Y-3.4067
X6.5835Y-3.5499
X6.5913Y-4.2723
X6.5945Y-4.1715
X6.5996Y-3.8749
X6.6124Y-7.6381
X6.6131Y-4.5131
X6.6153Y-3.2307
X6.6158Y-4.1286
X6.617Y-4.4401
X6.619Y-4.3536
X6.6201Y-3.7222
X6.6203Y-3.7582
X6.6312Y-3.2881
X6.6331Y-3.5044
X6.6335Y-4.4889
X6.6397Y-3.6758
X6.6422Y-3.1738
X6.6539Y-3.2466
X6.6742Y-3.9464
X6.6765Y-3.5504
X6.6783Y-4.2698
X6.679Y-3.8856
X6.683Y-3.7588
X6.6837Y-4.507
X6.6872Y-2.4986
X6.6893Y-3.7069
X6.6974Y-4.1699
X6.7001Y-3.205
X6.7059Y-7.748
X6.7059Y-4.0565
X6.7106Y-3.7418
X6.7289Y-4.3476
X6.7384Y-7.6434
X6.7384Y-2.7378
X6.7532Y-4.6965
X6.7532Y-3.8366
X6.7567Y-4.1062
X6.7609Y-4.4126
X6.7617Y-3.2882
X6.764Y-2.6464
X6.764Y-3.3985
X6.7658Y-3.2078
X6.7713Y-3.708
X6.7723Y-3.8959
X6.7755Y-3.1619
X6.7891Y-5.0321
X6.7896Y-3.2582
X6.8019Y-4.9042
X6.8194Y-4.0503
X6.8241Y-4.5072
X6.83Y-4.0857
X6.8405Y-3.5753
X6.841Y-4.2809
X6.847Y-4.346
X6.8473Y-4.2088
X6.8602Y-3.6416
X6.8629Y-3.9753
X6.8677Y-3.7501
X6.8747Y-4.319
X6.8794Y-4.6448
X6.884Y-4.3915
X6.8857Y-4.6954
X6.8909Y-5.1118
X6.8911Y-5.9013
X6.8956Y-3.9868
X6.897Y-3.7706
X6.8987Y-4.2822
X6.8988Y-4.2144
X6.8996Y-3.3516
X6.9026Y-5.7252
X6.916Y-3.7295
X6.9359Y-4.0481
X6.9476Y-3.7261
X6.9508Y-4.2953
X6.9569Y-4.4067
X6.9572Y-4.0714
X6.9609Y-3.5329
X6.9701Y-3.7482
X6.9766Y-8.5836
X6.9817Y-3.6723
X6.9828Y-4.1684
X7.001Y-7.0451
X7.0055Y-5.7366
X7.0193Y-5.0114
X7.0307Y-4.1318
X7.0387Y-3.9187
X7.0425Y-4.0418
X7.0442Y-3.6469
X7.0616Y-4.2709
X7.0626Y-3.741
X7.0664Y-4.069
X7.0688Y-7.4405
X7.0762Y-3.5452
X7.0815Y-4.1615
X7.0826Y-4.2988
X7.0869Y-3.8943
X7.0973Y-4.0519
X7.1301Y-3.659
X7.1301Y-3.7699
X7.1367Y-7.2696
X7.1432Y-4.2762
X7.1528Y-4.1342
X7.1549Y-3.9439
X7.1567Y-4.097
X7.1813Y-5.2918
X7.1818Y-7.6123
X7.2044Y-5.6098
X7.2129Y-3.8476
X7.2239Y-7.6027
X7.2271Y-5.4226
X7.2437Y-4.2783
X7.284Y-8.0338
X7.2929Y-4.3746
X7.322Y-6.04
X7.5258Y-8.1022
X7.5345Y-8.3227
X7.5511Y-8.3998
X7.6296Y-7.52
X7.6821Y-7.3674
X7.7674Y-8.5517
X7.8209Y-8.625
X7.856Y-7.42
X7.88Y-5.1624
X7.9104Y-7.2602
X7.9191Y-6.2836
X7.9244Y-4.9233
X7.9362Y-6.2321
X7.9486Y-5.4449
X7.9707Y-7.3338
T2
X1.1146Y-9.6404
X1.2146Y-9.6404
T3
X6.7846Y-3.475
X6.8633Y-3.475
T4
X3.025Y-5.275
X3.325Y-5.275
X4.5498Y-5.1
X4.8498Y-5.1
T5
X2.05Y-2.68
X2.05Y-2.83
X2.1Y-2.755
X2.1Y-2.905
X2.15Y-2.68
X2.15Y-2.83
X2.2Y-2.755
X2.2Y-2.905
X2.25Y-2.68
X2.25Y-2.83
X2.3Y-2.755
X2.3Y-2.905
X2.35Y-2.68
X2.35Y-2.83
X2.4Y-2.755
X2.4Y-2.905
X2.45Y-2.68
X2.45Y-2.83
X2.5Y-2.755
X2.5Y-2.905
X2.75Y-2.68
X2.75Y-2.83
X2.8Y-2.755
X2.8Y-2.905
X2.85Y-2.68
X2.85Y-2.83
X2.9Y-2.755
X2.9Y-2.905
X2.95Y-2.68
X2.95Y-2.83
X3.0Y-2.755
X3.0Y-2.905
X3.05Y-2.68
X3.05Y-2.83
X3.1Y-2.755
X3.1Y-2.905
X3.15Y-2.68
X3.15Y-2.83
X3.2Y-2.755
X3.2Y-2.905
X3.25Y-2.68
X3.25Y-2.83
X3.3Y-2.755
X3.3Y-2.905
X3.35Y-2.68
X3.35Y-2.83
X3.4Y-2.755
X3.4Y-2.905
X3.45Y-2.68
X3.45Y-2.83
X3.5Y-2.755
X3.5Y-2.905
X3.55Y-2.68
X3.55Y-2.83
X3.6Y-2.755
X3.6Y-2.905
X3.65Y-2.68
X3.65Y-2.83
X3.7Y-2.755
X3.7Y-2.905
X3.75Y-2.68
X3.75Y-2.83
X3.8Y-2.755
X3.8Y-2.905
X3.85Y-2.68
X3.85Y-2.83
X3.9Y-2.755
X3.9Y-2.905
X3.95Y-2.68
X3.95Y-2.83
X4.0Y-2.755
X4.0Y-2.905
X4.05Y-2.68
X4.05Y-2.83
X4.1Y-2.755
X4.1Y-2.905
X4.15Y-2.68
X4.15Y-2.83
X4.2Y-2.755
X4.2Y-2.905
X4.45Y-2.68
X4.45Y-2.83
X4.5Y-2.755
X4.5Y-2.905
X4.55Y-2.68
X4.55Y-2.83
X4.6Y-2.755
X4.6Y-2.905
X4.65Y-2.68
X4.65Y-2.83
X4.7Y-2.755
X4.7Y-2.905
X4.75Y-2.68
X4.75Y-2.83
X4.8Y-2.755
X4.8Y-2.905
X4.85Y-2.68
X4.85Y-2.83
X4.9Y-2.755
X4.9Y-2.905
X4.95Y-2.68
X4.95Y-2.83
X5.0Y-2.755
X5.0Y-2.905
X5.05Y-2.68
X5.05Y-2.83
X5.1Y-2.755
X5.1Y-2.905
X5.15Y-2.68
X5.15Y-2.83
X5.2Y-2.755
X5.2Y-2.905
X5.2482Y-4.8651
X5.2482Y-4.9651
X5.2482Y-5.0651
X5.2482Y-5.1651
X5.2482Y-5.2651
X5.2482Y-5.3651
X5.2482Y-5.4651
X5.2482Y-5.5651
X5.2482Y-5.6651
X5.2482Y-5.7651
X5.2482Y-5.8651
X5.2482Y-5.9651
X5.2482Y-6.0651
X5.2482Y-6.1651
X5.2482Y-6.2651
X5.2482Y-6.3651
X5.2482Y-6.4651
X5.25Y-2.68
X5.25Y-2.83
X5.3Y-2.755
X5.3Y-2.905
X5.3482Y-4.8651
X5.3482Y-4.9651
X5.3482Y-5.0651
X5.3482Y-5.1651
X5.3482Y-5.2651
X5.3482Y-5.3651
X5.3482Y-5.4651
X5.3482Y-5.5651
X5.3482Y-5.6651
X5.3482Y-5.7651
X5.3482Y-5.8651
X5.3482Y-5.9651
X5.3482Y-6.0651
X5.3482Y-6.1651
X5.3482Y-6.2651
X5.3482Y-6.3651
X5.3482Y-6.4651
X5.35Y-2.68
X5.35Y-2.83
X5.4Y-2.755
X5.4Y-2.905
X5.4482Y-4.8651
X5.4482Y-4.9651
X5.4482Y-5.0651
X5.4482Y-5.1651
X5.4482Y-5.2651
X5.4482Y-5.3651
X5.4482Y-5.4651
X5.4482Y-5.5651
X5.4482Y-5.6651
X5.4482Y-5.7651
X5.4482Y-5.8651
X5.4482Y-5.9651
X5.4482Y-6.0651
X5.4482Y-6.1651
X5.4482Y-6.2651
X5.4482Y-6.3651
X5.4482Y-6.4651
X5.45Y-2.68
X5.45Y-2.83
X5.5Y-2.755
X5.5Y-2.905
X5.5482Y-4.8651
X5.5482Y-4.9651
X5.5482Y-5.0651
X5.5482Y-6.2651
X5.5482Y-6.3651
X5.5482Y-6.4651
X5.55Y-2.68
X5.55Y-2.83
X5.6Y-2.755
X5.6Y-2.905
X5.6482Y-4.8651
X5.6482Y-4.9651
X5.6482Y-5.0651
X5.6482Y-6.2651
X5.6482Y-6.3651
X5.6482Y-6.4651
X5.65Y-2.68
X5.65Y-2.83
X5.7Y-2.755
X5.7Y-2.905
X5.7482Y-4.8651
X5.7482Y-4.9651
X5.7482Y-5.0651
X5.7482Y-6.2651
X5.7482Y-6.3651
X5.7482Y-6.4651
X5.75Y-2.68
X5.75Y-2.83
X5.8Y-2.755
X5.8Y-2.905
X5.8482Y-4.8651
X5.8482Y-4.9651
X5.8482Y-5.0651
X5.8482Y-6.2651
X5.8482Y-6.3651
X5.8482Y-6.4651
X5.85Y-2.68
X5.85Y-2.83
X5.9Y-2.755
X5.9Y-2.905
X5.9482Y-4.8651
X5.9482Y-4.9651
X5.9482Y-5.0651
X5.9482Y-6.2651
X5.9482Y-6.3651
X5.9482Y-6.4651
X5.95Y-2.68
X5.95Y-2.83
X6.0Y-2.755
X6.0Y-2.905
X6.0482Y-4.8651
X6.0482Y-4.9651
X6.0482Y-5.0651
X6.0482Y-6.2651
X6.0482Y-6.3651
X6.0482Y-6.4651
X6.05Y-2.68
X6.05Y-2.83
X6.1Y-2.755
X6.1Y-2.905
X6.1482Y-4.8651
X6.1482Y-4.9651
X6.1482Y-5.0651
X6.1482Y-6.2651
X6.1482Y-6.3651
X6.1482Y-6.4651
X6.15Y-2.68
X6.15Y-2.83
X6.2Y-2.755
X6.2Y-2.905
X6.2482Y-4.8651
X6.2482Y-4.9651
X6.2482Y-5.0651
X6.2482Y-6.2651
X6.2482Y-6.3651
X6.2482Y-6.4651
X6.25Y-2.68
X6.25Y-2.83
X6.3Y-2.755
X6.3Y-2.905
X6.3482Y-4.8651
X6.3482Y-4.9651
X6.3482Y-5.0651
X6.3482Y-6.2651
X6.3482Y-6.3651
X6.3482Y-6.4651
X6.35Y-2.68
X6.35Y-2.83
X6.4Y-2.755
X6.4Y-2.905
X6.4482Y-4.8651
X6.4482Y-4.9651
X6.4482Y-5.0651
X6.4482Y-6.2651
X6.4482Y-6.3651
X6.4482Y-6.4651
X6.45Y-2.68
X6.45Y-2.83
X6.5Y-2.755
X6.5Y-2.905
X6.5482Y-4.8651
X6.5482Y-4.9651
X6.5482Y-5.0651
X6.5482Y-6.2651
X6.5482Y-6.3651
X6.5482Y-6.4651
X6.55Y-2.68
X6.55Y-2.83
X6.6Y-2.755
X6.6Y-2.905
X6.6482Y-4.8651
X6.6482Y-4.9651
X6.6482Y-5.0651
X6.6482Y-5.1651
X6.6482Y-5.2651
X6.6482Y-5.3651
X6.6482Y-5.4651
X6.6482Y-5.5651
X6.6482Y-5.6651
X6.6482Y-5.7651
X6.6482Y-5.8651
X6.6482Y-5.9651
X6.6482Y-6.0651
X6.6482Y-6.1651
X6.6482Y-6.2651
X6.6482Y-6.3651
X6.6482Y-6.4651
X6.7482Y-4.8651
X6.7482Y-4.9651
X6.7482Y-5.0651
X6.7482Y-5.1651
X6.7482Y-5.2651
X6.7482Y-5.3651
X6.7482Y-5.4651
X6.7482Y-5.5651
X6.7482Y-5.6651
X6.7482Y-5.7651
X6.7482Y-5.8651
X6.7482Y-5.9651
X6.7482Y-6.0651
X6.7482Y-6.1651
X6.7482Y-6.2651
X6.7482Y-6.3651
X6.7482Y-6.4651
X6.8482Y-4.8651
X6.8482Y-4.9651
X6.8482Y-5.0651
X6.8482Y-5.1651
X6.8482Y-5.2651
X6.8482Y-5.3651
X6.8482Y-5.4651
X6.8482Y-5.5651
X6.8482Y-5.6651
X6.8482Y-5.7651
X6.8482Y-5.8651
X6.8482Y-5.9651
X6.8482Y-6.0651
X6.8482Y-6.1651
X6.8482Y-6.2651
X6.8482Y-6.3651
X6.8482Y-6.4651
T6
X1.1498Y-4.7996
X1.1498Y-5.0996
X1.15Y-5.7183
X1.15Y-5.9152
X1.15Y-6.0748
X1.15Y-6.1748
X1.15Y-6.2748
X1.15Y-6.3748
X1.15Y-6.4748
X1.15Y-6.5748
X1.15Y-6.6748
X1.15Y-6.7748
X1.15Y-6.8748
X1.15Y-6.9748
X1.15Y-7.0748
X1.15Y-7.1748
X1.15Y-7.2748
X1.15Y-7.3748
X1.15Y-7.4748
X1.15Y-7.5748
X1.15Y-7.6748
X1.15Y-7.7748
X1.15Y-7.8748
X1.15Y-7.9748
X1.1846Y-9.1461
X1.1846Y-9.5461
X1.2498Y-4.7996
X1.2498Y-5.0996
X1.2805Y-2.45
X1.2805Y-2.5327
X1.2805Y-2.635
X1.2805Y-2.7177
X1.2805Y-3.175
X1.2805Y-3.2577
X1.2805Y-3.36
X1.2805Y-3.4427
X1.3498Y-4.7996
X1.3498Y-5.0996
X1.3571Y-5.7498
X1.3658Y-9.2141
X1.3658Y-9.3641
X1.3907Y-2.45
X1.3907Y-2.7177
X1.3907Y-3.175
X1.3907Y-3.4427
X1.4498Y-4.7996
X1.4498Y-5.0996
X1.5Y-9.025
X1.5266Y-2.35
X1.5498Y-4.7996
X1.5498Y-5.0996
X1.55Y-5.7498
X1.575Y-3.2516
X1.575Y-3.4484
X1.575Y-3.5516
X1.575Y-3.7484
X1.6498Y-4.7996
X1.6498Y-5.0996
X1.7234Y-2.35
X1.7498Y-4.7996
X1.7498Y-5.0996
X1.75Y-5.753
X1.75Y-5.9498
X1.75Y-6.0748
X1.75Y-6.1748
X1.75Y-6.2748
X1.75Y-6.3748
X1.75Y-6.4748
X1.75Y-6.5748
X1.75Y-6.6748
X1.75Y-6.7748
X1.75Y-6.8748
X1.75Y-6.9748
X1.75Y-7.0748
X1.75Y-7.1748
X1.75Y-7.2748
X1.75Y-7.3748
X1.75Y-7.4748
X1.75Y-7.5748
X1.75Y-7.6748
X1.75Y-7.7748
X1.75Y-7.8748
X1.75Y-7.9748
X1.7658Y-9.2141
X1.7658Y-9.3641
X1.8266Y-2.35
X1.9Y-9.025
X2.0016Y-5.825
X2.0234Y-2.35
X2.0313Y-6.35
X2.04Y-7.83
X2.04Y-8.03
X2.04Y-8.63
X2.04Y-8.83
X2.04Y-9.43
X2.04Y-9.63
X2.04Y-10.23
X2.04Y-10.43
X2.1Y-5.825
X2.14Y-7.83
X2.14Y-8.03
X2.14Y-8.63
X2.14Y-8.83
X2.14Y-9.43
X2.14Y-9.63
X2.14Y-10.23
X2.14Y-10.43
X2.24Y-7.83
X2.24Y-8.03
X2.24Y-8.63
X2.24Y-8.83
X2.24Y-9.43
X2.24Y-9.63
X2.24Y-10.23
X2.24Y-10.43
X2.34Y-7.83
X2.34Y-8.03
X2.34Y-8.63
X2.34Y-8.83
X2.34Y-9.43
X2.34Y-9.63
X2.34Y-10.23
X2.34Y-10.43
X2.4313Y-6.35
X2.44Y-7.83
X2.44Y-8.03
X2.44Y-8.63
X2.44Y-8.83
X2.44Y-9.43
X2.44Y-9.63
X2.44Y-10.23
X2.44Y-10.43
X2.525Y-5.6723
X2.525Y-6.0723
X2.54Y-7.83
X2.54Y-8.03
X2.54Y-8.63
X2.54Y-8.83
X2.54Y-9.43
X2.54Y-9.63
X2.54Y-10.23
X2.54Y-10.43
X2.6Y-3.9
X2.64Y-7.83
X2.64Y-8.03
X2.64Y-8.63
X2.64Y-8.83
X2.64Y-9.43
X2.64Y-9.63
X2.64Y-10.23
X2.64Y-10.43
X2.74Y-7.83
X2.74Y-8.03
X2.74Y-8.63
X2.74Y-8.83
X2.74Y-9.43
X2.74Y-9.63
X2.74Y-10.23
X2.74Y-10.43
X2.84Y-7.83
X2.84Y-8.03
X2.84Y-8.63
X2.84Y-8.83
X2.84Y-9.43
X2.84Y-9.63
X2.84Y-10.23
X2.84Y-10.43
X2.9Y-5.675
X2.9Y-6.075
X2.94Y-7.83
X2.94Y-8.03
X2.94Y-8.63
X2.94Y-8.83
X2.94Y-9.43
X2.94Y-9.63
X2.94Y-10.23
X2.94Y-10.43
X3.0Y-3.9
X3.025Y-5.425
X3.0266Y-5.575
X3.04Y-7.83
X3.04Y-8.03
X3.04Y-8.63
X3.04Y-8.83
X3.04Y-9.43
X3.04Y-9.63
X3.04Y-10.23
X3.04Y-10.43
X3.1186Y-4.9
X3.14Y-7.83
X3.14Y-8.03
X3.14Y-8.63
X3.14Y-8.83
X3.14Y-9.43
X3.14Y-9.63
X3.14Y-10.23
X3.14Y-10.43
X3.1526Y-4.55
X3.1776Y-5.8723
X3.217Y-4.9
X3.2234Y-5.575
X3.24Y-7.83
X3.24Y-8.03
X3.24Y-8.63
X3.24Y-8.83
X3.24Y-9.43
X3.24Y-9.63
X3.24Y-10.23
X3.24Y-10.43
X3.251Y-4.55
X3.276Y-5.8723
X3.34Y-7.83
X3.34Y-8.03
X3.34Y-8.63
X3.34Y-8.83
X3.34Y-9.43
X3.34Y-9.63
X3.34Y-10.23
X3.34Y-10.43
X3.425Y-4.4016
X3.425Y-4.5984
X3.425Y-5.425
X3.44Y-7.83
X3.44Y-8.03
X3.44Y-8.63
X3.44Y-8.83
X3.44Y-9.43
X3.44Y-9.63
X3.44Y-10.23
X3.44Y-10.43
X3.54Y-7.83
X3.54Y-8.03
X3.54Y-8.63
X3.54Y-8.83
X3.54Y-9.43
X3.54Y-9.63
X3.54Y-10.23
X3.54Y-10.43
X3.625Y-4.15
X3.625Y-4.55
X3.64Y-7.83
X3.64Y-8.03
X3.64Y-8.63
X3.64Y-8.83
X3.64Y-9.43
X3.64Y-9.63
X3.64Y-10.23
X3.64Y-10.43
X3.725Y-5.9849
X3.725Y-6.0833
X3.74Y-7.83
X3.74Y-8.03
X3.74Y-8.63
X3.74Y-8.83
X3.74Y-9.43
X3.74Y-9.63
X3.74Y-10.23
X3.74Y-10.43
X3.84Y-7.83
X3.84Y-8.03
X3.84Y-8.63
X3.84Y-8.83
X3.84Y-9.43
X3.84Y-9.63
X3.84Y-10.23
X3.84Y-10.43
X3.85Y-4.175
X3.85Y-4.475
X3.94Y-7.83
X3.94Y-8.03
X3.94Y-8.63
X3.94Y-8.83
X3.94Y-9.43
X3.94Y-9.63
X3.94Y-10.23
X3.94Y-10.43
X4.04Y-7.83
X4.04Y-8.03
X4.04Y-8.63
X4.04Y-8.83
X4.04Y-9.43
X4.04Y-9.63
X4.04Y-10.23
X4.04Y-10.43
X4.14Y-7.83
X4.14Y-8.03
X4.14Y-8.63
X4.14Y-8.83
X4.14Y-9.43
X4.14Y-9.63
X4.14Y-10.23
X4.14Y-10.43
X4.24Y-7.83
X4.24Y-8.03
X4.24Y-8.63
X4.24Y-8.83
X4.24Y-9.43
X4.24Y-9.63
X4.24Y-10.23
X4.24Y-10.43
X4.34Y-7.83
X4.34Y-8.03
X4.34Y-8.63
X4.34Y-8.83
X4.34Y-9.43
X4.34Y-9.63
X4.34Y-10.23
X4.34Y-10.43
X4.44Y-7.83
X4.44Y-8.03
X4.44Y-8.63
X4.44Y-8.83
X4.44Y-9.43
X4.44Y-9.63
X4.44Y-10.23
X4.44Y-10.43
X4.45Y-4.175
X4.45Y-4.475
X4.54Y-7.83
X4.54Y-8.03
X4.54Y-8.63
X4.54Y-8.83
X4.54Y-9.43
X4.54Y-9.63
X4.54Y-10.23
X4.54Y-10.43
X4.6Y-6.125
X4.64Y-7.83
X4.64Y-8.03
X4.64Y-8.63
X4.64Y-8.83
X4.64Y-9.43
X4.64Y-9.63
X4.64Y-10.23
X4.64Y-10.43
X4.675Y-4.025
X4.675Y-4.425
X4.74Y-7.83
X4.74Y-8.03
X4.74Y-8.63
X4.74Y-8.83
X4.74Y-9.43
X4.74Y-9.63
X4.74Y-10.23
X4.74Y-10.43
X4.8124Y-8.2026
X4.8124Y-8.301
X4.84Y-7.83
X4.84Y-8.03
X4.84Y-8.63
X4.84Y-8.83
X4.84Y-9.43
X4.84Y-9.63
X4.84Y-10.23
X4.84Y-10.43
X4.85Y-4.2766
X4.85Y-4.4734
X4.94Y-7.83
X4.94Y-8.03
X4.94Y-8.63
X4.94Y-8.83
X4.94Y-9.43
X4.94Y-9.63
X4.94Y-10.23
X4.94Y-10.43
X5.0Y-5.0026
X5.0Y-5.101
X5.0Y-6.125
X5.0324Y-4.6516
X5.0324Y-4.75
X5.04Y-7.83
X5.04Y-8.03
X5.04Y-8.63
X5.04Y-8.83
X5.04Y-9.43
X5.04Y-9.63
X5.04Y-10.23
X5.04Y-10.43
X5.129Y-6.75
X5.2Y-8.3
X5.2016Y-4.625
X5.2274Y-6.75
X5.2326Y-10.025
X5.2984Y-8.3
X5.331Y-10.025
X5.3984Y-4.625
X5.425Y-6.8
X5.425Y-7.4
X5.44Y-7.83
X5.44Y-8.03
X5.44Y-8.63
X5.44Y-8.83
X5.44Y-9.43
X5.44Y-9.63
X5.44Y-10.23
X5.44Y-10.43
X5.525Y-6.8
X5.525Y-7.4
X5.54Y-7.83
X5.54Y-8.03
X5.54Y-8.63
X5.54Y-8.83
X5.54Y-9.43
X5.54Y-9.63
X5.54Y-10.23
X5.54Y-10.43
X5.625Y-6.8
X5.625Y-7.4
X5.64Y-7.83
X5.64Y-8.03
X5.64Y-8.63
X5.64Y-8.83
X5.64Y-9.43
X5.64Y-9.63
X5.64Y-10.23
X5.64Y-10.43
X5.725Y-6.8
X5.725Y-7.4
X5.74Y-7.83
X5.74Y-8.03
X5.74Y-8.63
X5.74Y-8.83
X5.74Y-9.43
X5.74Y-9.63
X5.74Y-10.23
X5.74Y-10.43
X5.825Y-6.8
X5.825Y-7.4
X5.84Y-7.83
X5.84Y-8.03
X5.84Y-8.63
X5.84Y-8.83
X5.84Y-9.43
X5.84Y-9.63
X5.84Y-10.23
X5.84Y-10.43
X5.925Y-6.8
X5.925Y-7.4
X5.94Y-7.83
X5.94Y-8.03
X5.94Y-8.63
X5.94Y-8.83
X5.94Y-9.43
X5.94Y-9.63
X5.94Y-10.23
X5.94Y-10.43
X6.025Y-6.8
X6.025Y-7.4
X6.04Y-7.83
X6.04Y-8.03
X6.04Y-8.63
X6.04Y-8.83
X6.04Y-9.43
X6.04Y-9.63
X6.04Y-10.23
X6.04Y-10.43
X6.125Y-6.8
X6.125Y-7.4
X6.14Y-7.83
X6.14Y-8.03
X6.14Y-8.63
X6.14Y-8.83
X6.14Y-9.43
X6.14Y-9.63
X6.14Y-10.23
X6.14Y-10.43
X6.225Y-6.8
X6.225Y-7.4
X6.24Y-7.83
X6.24Y-8.03
X6.24Y-8.63
X6.24Y-8.83
X6.24Y-9.43
X6.24Y-9.63
X6.24Y-10.23
X6.24Y-10.43
X6.325Y-6.8
X6.325Y-7.4
X6.34Y-7.83
X6.34Y-8.03
X6.34Y-8.63
X6.34Y-8.83
X6.34Y-9.43
X6.34Y-9.63
X6.34Y-10.23
X6.34Y-10.43
X6.425Y-6.8
X6.425Y-7.4
X6.44Y-7.83
X6.44Y-8.03
X6.44Y-8.63
X6.44Y-8.83
X6.44Y-9.43
X6.44Y-9.63
X6.44Y-10.23
X6.44Y-10.43
X6.525Y-6.8
X6.525Y-7.4
X6.54Y-7.83
X6.54Y-8.03
X6.54Y-8.63
X6.54Y-8.83
X6.54Y-9.43
X6.54Y-9.63
X6.54Y-10.23
X6.54Y-10.43
X6.625Y-6.8
X6.625Y-7.4
X6.64Y-7.83
X6.64Y-8.03
X6.64Y-8.63
X6.64Y-8.83
X6.64Y-9.43
X6.64Y-9.63
X6.64Y-10.23
X6.64Y-10.43
X6.725Y-6.8
X6.725Y-7.4
X6.74Y-7.83
X6.74Y-8.03
X6.74Y-8.63
X6.74Y-8.83
X6.74Y-9.43
X6.74Y-9.63
X6.74Y-10.23
X6.74Y-10.43
X6.825Y-6.8
X6.825Y-7.4
X6.84Y-7.83
X6.84Y-8.03
X6.84Y-8.63
X6.84Y-8.83
X6.84Y-9.43
X6.84Y-9.63
X6.84Y-10.23
X6.84Y-10.43
X6.925Y-6.8
X6.925Y-7.4
X6.94Y-7.83
X6.94Y-8.03
X6.94Y-8.63
X6.94Y-8.83
X6.94Y-9.43
X6.94Y-9.63
X6.94Y-10.23
X6.94Y-10.43
X7.04Y-7.83
X7.04Y-8.03
X7.04Y-8.63
X7.04Y-8.83
X7.04Y-9.43
X7.04Y-9.63
X7.04Y-10.23
X7.04Y-10.43
X7.125Y-4.7819
X7.125Y-4.8803
X7.14Y-7.83
X7.14Y-8.03
X7.14Y-8.63
X7.14Y-8.83
X7.14Y-9.43
X7.14Y-9.63
X7.14Y-10.23
X7.14Y-10.43
X7.15Y-5.4776
X7.15Y-5.576
X7.4748Y-6.8248
X7.4748Y-6.9248
X7.4748Y-7.0248
X7.4748Y-7.1248
X7.4748Y-7.2248
X7.4748Y-7.3248
X7.4748Y-7.4248
X7.4748Y-7.5248
X7.4748Y-7.6248
X7.4748Y-7.7248
X7.4748Y-7.8248
X7.4748Y-7.9248
X8.0748Y-6.8248
X8.0748Y-6.9248
X8.0748Y-7.0248
X8.0748Y-7.1248
X8.0748Y-7.2248
X8.0748Y-7.3248
X8.0748Y-7.4248
X8.0748Y-7.5248
X8.0748Y-7.6248
X8.0748Y-7.7248
X8.0748Y-7.8248
X8.0748Y-7.9248
T7
X1.775Y-5.45
X1.775Y-5.55
X2.55Y-6.2923
X2.65Y-6.2923
X7.45Y-3.7
X7.45Y-3.8
T8
X1.5755Y-4.0372
X1.5755Y-4.1356
X1.5755Y-4.2144
X1.5755Y-4.3128
T9
X1.575Y-8.225
X1.675Y-8.225
X1.775Y-8.225
X1.8Y-3.275
X1.8Y-3.375
X1.8Y-3.475
X1.8Y-3.575
X1.8Y-3.675
X1.8Y-3.775
X1.8Y-3.875
X1.8Y-3.975
X1.8Y-4.075
X1.8Y-4.175
X2.0Y-7.6
X2.1Y-7.6
X2.2Y-7.6
X2.205Y-5.9756
X2.205Y-6.0756
X2.205Y-6.1756
X2.3Y-7.6
X2.385Y-5.975
X2.385Y-6.075
X2.385Y-6.175
X2.4Y-7.6
X2.5Y-7.6
X2.6Y-7.6
X2.7Y-7.6
X2.75Y-2.3
X2.8Y-7.2
X2.8Y-7.6
X2.85Y-2.3
X2.9Y-7.2
X2.9Y-7.6
X2.95Y-2.3
X3.0Y-7.2
X3.0Y-7.6
X3.05Y-2.3
X3.1Y-7.2
X3.1Y-7.6
X3.15Y-2.3
X3.2Y-7.2
X3.2Y-7.6
X3.25Y-2.3
X3.3Y-7.2
X3.3Y-7.6
X3.35Y-2.3
X3.4Y-7.6
X3.45Y-2.3
X3.5Y-7.6
X3.55Y-2.3
X3.55Y-7.2
X3.55Y-7.35
X3.65Y-2.3
X3.65Y-7.2
X3.65Y-7.35
X3.75Y-2.3
X3.75Y-7.2
X3.75Y-7.35
X3.85Y-2.3
X3.85Y-7.2
X3.85Y-7.35
X3.885Y-6.2123
X3.885Y-6.3123
X3.885Y-6.4123
X3.92Y-7.6
X3.95Y-2.3
X3.95Y-7.2
X3.95Y-7.35
X4.02Y-7.6
X4.05Y-2.3
X4.05Y-7.2
X4.05Y-7.35
X4.12Y-7.6
X4.1212Y-6.2123
X4.1212Y-6.3123
X4.1212Y-6.4123
X4.15Y-2.3
X4.15Y-7.2
X4.15Y-7.35
X4.22Y-7.6
X4.25Y-2.3
X4.25Y-7.2
X4.25Y-7.35
X4.32Y-7.6
X4.35Y-2.3
X4.35Y-7.2
X4.35Y-7.35
X4.4Y-6.4
X4.42Y-7.6
X4.45Y-2.3
X4.45Y-7.2
X4.45Y-7.35
X4.5Y-6.4
X4.52Y-7.6
X4.55Y-2.3
X4.55Y-7.2
X4.55Y-7.35
X4.6Y-6.4
X4.62Y-7.6
X4.625Y-6.625
X4.625Y-6.725
X4.625Y-6.825
X4.65Y-2.3
X4.65Y-7.2
X4.65Y-7.35
X4.72Y-7.6
X4.75Y-2.3
X4.75Y-7.2
X4.75Y-7.35
X4.82Y-7.6
X4.85Y-2.3
X4.85Y-7.2
X4.85Y-7.35
X4.9074Y-6.625
X4.9074Y-6.725
X4.9074Y-6.825
X4.92Y-7.6
X4.95Y-2.3
X5.02Y-7.6
X5.05Y-2.3
X5.05Y-4.25
X5.12Y-7.6
X5.15Y-2.3
X5.15Y-4.25
X5.15Y-7.05
X5.15Y-7.15
X5.15Y-7.25
X5.22Y-7.6
X5.2498Y-4.1
X5.25Y-2.3
X5.25Y-4.25
X5.32Y-7.6
X5.3498Y-4.1
X5.35Y-2.3
X5.35Y-4.25
X5.42Y-7.6
X5.45Y-2.3
X5.52Y-7.6
X5.55Y-2.3
X5.62Y-7.6
X5.65Y-2.3
X5.72Y-7.6
X5.75Y-2.3
X5.82Y-7.6
X5.85Y-2.3
X5.92Y-7.6
X5.95Y-2.3
X6.02Y-7.6
X6.05Y-2.3
X6.9494Y-4.575
X7.0494Y-4.375
X7.0494Y-4.475
X7.0494Y-4.575
X7.1494Y-4.375
X7.1494Y-4.475
X7.1494Y-4.575
X7.26Y-3.4
X7.275Y-2.95
X7.36Y-3.4
X7.375Y-2.95
X7.46Y-3.4
X7.475Y-2.95
X7.575Y-2.95
X7.675Y-2.95
X7.775Y-2.95
X7.875Y-2.95
X7.88Y-3.2235
X7.88Y-3.3235
X7.88Y-3.4235
X7.88Y-3.5235
X7.9Y-8.275
X7.9Y-8.375
X7.9Y-8.475
X7.9Y-8.575
X7.9Y-8.675
X7.9Y-8.775
X7.9Y-8.875
X7.9Y-8.975
X7.975Y-5.6004
X7.975Y-5.7004
X7.975Y-5.8004
X7.975Y-5.9004
X8.0Y-8.275
X8.0Y-8.375
X8.0Y-8.475
X8.0Y-8.575
X8.0Y-8.675
X8.0Y-8.775
X8.0Y-8.875
X8.0Y-8.975
T10
X7.425Y-6.1
X7.425Y-6.2
X7.425Y-6.3
T11
X7.525Y-4.0325
X7.525Y-4.1979
X7.525Y-4.3632
X7.525Y-4.5286
X7.525Y-4.6939
X7.525Y-4.8593
X7.525Y-5.0246
X7.525Y-5.19
X7.525Y-5.3554
X7.525Y-5.5207
X7.525Y-5.6861
X7.525Y-5.8514
X7.6904Y-4.0325
X7.6904Y-4.1979
X7.6904Y-4.3632
X7.6904Y-4.5286
X7.6904Y-4.6939
X7.6904Y-4.8593
X7.6904Y-5.0246
X7.6904Y-5.19
X7.6904Y-5.3554
X7.6904Y-5.5207
X7.6904Y-5.6861
X7.6904Y-5.8514
T12
X7.85Y-9.6
X7.85Y-10.4
T13
X1.4688Y-3.9163
X1.4688Y-4.4337
T14
X1.53Y-8.66
X2.45Y-2.46
X7.63Y-2.46
X7.63Y-8.66
T9
G00X1.1368Y-2.5445
M15
G01X1.1368Y-2.6232
M16
G05
G00X1.1368Y-3.2695
M15
G01X1.1368Y-3.3482
M16
G05
G00X1.1978Y-2.3142
M15
G01X1.1388Y-2.3142
M16
G05
G00X1.1978Y-2.8535
M15
G01X1.1388Y-2.8535
M16
G05
G00X1.1978Y-3.0392
M15
G01X1.1388Y-3.0392
M16
G05
G00X1.1978Y-3.5785
M15
G01X1.1388Y-3.5785
M16
G05
M30
